<svg preserveAspectRatio="xMidYMid meet" width="99.0806" height="36.34" overflow="visible" style="display: block;" viewBox="0 0 99.0806 36.34" fill="none" xmlns="http://www.w3.org/2000/svg">
<g id="Frame 1000004262">
<path id="Vector" d="M95.2606 20.5C93.6739 20.5533 92.3272 20.68 91.2206 20.88C90.1139 21.0666 89.2139 21.32 88.5206 21.64C87.8272 21.96 87.3272 22.34 87.0206 22.78C86.7139 23.2066 86.5606 23.6866 86.5606 24.22C86.5606 24.7266 86.6406 25.1666 86.8006 25.54C86.9739 25.9 87.2006 26.2 87.4806 26.44C87.7739 26.6666 88.1139 26.8333 88.5006 26.94C88.8872 27.0466 89.3072 27.1 89.7606 27.1C90.3606 27.1 90.9072 27.04 91.4006 26.92C91.9072 26.8 92.3806 26.6333 92.8206 26.42C93.2606 26.1933 93.6806 25.92 94.0806 25.6C94.4806 25.28 94.8739 24.9133 95.2606 24.5V20.5ZM83.8206 12.04C84.9539 10.96 86.1806 10.1533 87.5006 9.61998C88.8339 9.08664 90.2939 8.81998 91.8806 8.81998C93.0406 8.81998 94.0672 9.01331 94.9606 9.39998C95.8539 9.77331 96.6072 10.3 97.2206 10.98C97.8339 11.66 98.2939 12.4733 98.6006 13.42C98.9206 14.3666 99.0806 15.4133 99.0806 16.56V29.52H97.3406C96.9539 29.52 96.6606 29.46 96.4606 29.34C96.2606 29.2066 96.1006 28.9666 95.9806 28.62L95.5606 26.84C95.0406 27.32 94.5272 27.7466 94.0206 28.12C93.5139 28.48 92.9806 28.7933 92.4206 29.06C91.8739 29.3133 91.2872 29.5066 90.6606 29.64C90.0339 29.7733 89.3406 29.84 88.5806 29.84C87.7806 29.84 87.0272 29.7333 86.3206 29.52C85.6272 29.2933 85.0206 28.9533 84.5006 28.5C83.9806 28.0466 83.5672 27.48 83.2606 26.8C82.9672 26.12 82.8206 25.3266 82.8206 24.42C82.8206 23.62 83.0339 22.8533 83.4606 22.12C83.9006 21.3733 84.6072 20.7066 85.5806 20.12C86.5672 19.5333 87.8472 19.0533 89.4206 18.68C91.0072 18.3066 92.9539 18.0933 95.2606 18.04V16.56C95.2606 15.0266 94.9339 13.88 94.2806 13.12C93.6272 12.36 92.6672 11.98 91.4006 11.98C90.5472 11.98 89.8272 12.0866 89.2406 12.3C88.6672 12.5133 88.1672 12.7533 87.7406 13.02C87.3272 13.2733 86.9606 13.5066 86.6406 13.72C86.3339 13.9333 86.0139 14.04 85.6806 14.04C85.4139 14.04 85.1806 13.9666 84.9806 13.82C84.7939 13.6733 84.6406 13.5 84.5206 13.3L83.8206 12.04Z" fill="var(--fill-0, #10258E)"/>
<path id="Vector_2" d="M65.8578 11.78C66.7111 10.9133 67.6511 10.2133 68.6778 9.68C69.7178 9.14667 70.9111 8.88 72.2578 8.88C73.3778 8.88 74.3578 9.06667 75.1978 9.44C76.0511 9.81333 76.7644 10.34 77.3378 11.02C77.9111 11.6867 78.3444 12.4933 78.6378 13.44C78.9311 14.3867 79.0778 15.4333 79.0778 16.58V29.52H75.1578V16.58C75.1578 15.1267 74.8244 14 74.1578 13.2C73.4911 12.3867 72.4711 11.98 71.0978 11.98C70.0978 11.98 69.1578 12.22 68.2778 12.7C67.4111 13.1667 66.6044 13.8067 65.8578 14.62V29.52H61.9578V0H65.8578V11.78Z" fill="var(--fill-0, #10258E)"/>
<path id="Vector_3" d="M43.3578 24.52C43.9978 25.36 44.6844 25.9466 45.4178 26.28C46.1644 26.6133 46.9978 26.78 47.9178 26.78C49.7044 26.78 51.0844 26.14 52.0578 24.86C53.0444 23.5666 53.5378 21.6866 53.5378 19.22C53.5378 17.9266 53.4244 16.8266 53.1978 15.92C52.9844 15 52.6644 14.2533 52.2378 13.68C51.8244 13.0933 51.3111 12.6666 50.6978 12.4C50.0844 12.12 49.3911 11.98 48.6178 11.98C47.4844 11.98 46.4978 12.2333 45.6578 12.74C44.8311 13.2466 44.0644 13.9666 43.3578 14.9V24.52ZM43.1578 12.24C43.5844 11.7333 44.0378 11.2733 44.5178 10.86C45.0111 10.4333 45.5378 10.0733 46.0978 9.77998C46.6578 9.47331 47.2511 9.23998 47.8778 9.07998C48.5178 8.90664 49.1978 8.81998 49.9178 8.81998C51.0778 8.81998 52.1244 9.04664 53.0578 9.49998C54.0044 9.95331 54.8111 10.62 55.4778 11.5C56.1444 12.38 56.6578 13.4666 57.0178 14.76C57.3911 16.0533 57.5778 17.54 57.5778 19.22C57.5778 20.7266 57.3711 22.1266 56.9578 23.42C56.5578 24.7 55.9778 25.8133 55.2178 26.76C54.4711 27.7066 53.5511 28.4533 52.4578 29C51.3778 29.5333 50.1578 29.8 48.7978 29.8C47.5844 29.8 46.5444 29.6 45.6778 29.2C44.8111 28.8 44.0378 28.24 43.3578 27.52V36.34H39.4578V9.19998H41.7978C42.3444 9.19998 42.6844 9.45998 42.8178 9.97998L43.1578 12.24Z" fill="var(--fill-0, #10258E)"/>
<path id="Vector_4" d="M33.8874 0V29.52H29.9674V0H33.8874Z" fill="var(--fill-0, #10258E)"/>
<path id="Vector_5" d="M18.76 18.82L14.5 7.67999C14.1933 6.91999 13.8867 5.95999 13.58 4.79999C13.4333 5.37332 13.28 5.90665 13.12 6.39999C12.9733 6.89332 12.8267 7.33332 12.68 7.71999L8.44 18.82H18.76ZM27.18 29.52H23.9C23.5267 29.52 23.22 29.4267 22.98 29.24C22.74 29.0533 22.5667 28.8133 22.46 28.52L19.92 21.86H7.26L4.72 28.52C4.62667 28.7733 4.45333 29.0067 4.2 29.22C3.94667 29.42 3.64 29.52 3.28 29.52H0L11.44 0.799988H15.74L27.18 29.52Z" fill="var(--fill-0, #10258E)"/>
</g>
</svg>
