<svg preserveAspectRatio="xMidYMid meet" width="629.61" height="91.2" overflow="visible" style="display: block;" viewBox="0 0 629.61 91.2" fill="none" xmlns="http://www.w3.org/2000/svg">
<g id="Vector">
<path d="M37.7371 0.976467C38.9605 -0.255759 40.9439 -0.255767 42.1672 0.976467L78.9918 38.0693C80.2152 39.3016 80.2207 41.3064 78.9335 42.4707C74.0222 46.9132 68.3916 50.4892 62.279 53.0397C59.3807 54.2489 56.3971 55.2176 53.3581 55.9404L42.2118 44.713C40.9884 43.4807 39.0051 43.4807 37.7817 44.713L26.6183 55.9574C23.5544 55.2329 20.5465 54.2584 17.6252 53.0397C11.5126 50.4892 5.88214 46.9132 0.970691 42.4707C-0.316456 41.3064 -0.31094 39.3016 0.912332 38.0693L37.7371 0.976467Z" fill="#888888"/>
<path d="M37.7371 13.2727C38.9605 12.0405 40.9439 12.0405 42.1672 13.2727L78.9918 50.3655C80.2152 51.5978 80.2207 53.6027 78.9335 54.767C74.6123 58.6757 69.734 61.9131 64.461 64.3718L42.2118 41.9607C40.9884 40.7284 39.0051 40.7284 37.7817 41.9607L15.5043 64.4C10.2078 61.9379 5.30865 58.6908 0.970692 54.767C-0.316455 53.6027 -0.310939 51.5978 0.912333 50.3655L37.7371 13.2727Z" fill="#515151"/>
<path d="M37.7371 27.0944C38.9605 25.8621 40.9439 25.8621 42.1672 27.0944L78.9918 64.1871C80.2152 65.4194 80.2207 67.4243 78.9335 68.5886C77.7636 69.6468 76.5525 70.6558 75.3039 71.6136C74.099 72.5379 72.4094 72.3781 71.3383 71.2995L64.7198 64.6325C63.6528 63.5578 61.9834 63.4138 60.687 64.1915C59.0145 65.1947 57.2689 66.0774 55.4624 66.8313C50.5451 68.883 45.2745 69.9386 39.952 69.9386C34.6296 69.9386 29.3593 68.883 24.4419 66.8313C22.6539 66.0852 20.9253 65.2129 19.2685 64.2223C17.9725 63.4478 16.3056 63.593 15.24 64.6663L8.61602 71.3383C7.54598 72.4163 5.85817 72.5769 4.65328 71.6546C3.386 70.6847 2.15733 69.6619 0.970687 68.5886C-0.316458 67.4243 -0.310937 65.4194 0.912331 64.1871L37.7371 27.0944Z" fill="#111111"/>
<path d="M28.6154 51.1937C27.392 52.4257 27.3802 54.4485 28.7855 55.4651C29.9819 56.3306 31.2759 57.057 32.6431 57.6279C34.9773 58.6027 37.479 59.1049 40.0051 59.1061C42.5313 59.1073 45.0325 58.607 47.366 57.6345C48.7318 57.0651 50.0243 56.3403 51.2195 55.4767C52.6253 54.4607 52.6133 52.4379 51.3899 51.2056L42.2118 41.9607C40.9884 40.7284 39.0051 40.7284 37.7817 41.9607L28.6154 51.1937Z" fill="white"/>
<path d="M139.745 71.25C135.628 71.25 131.892 70.11 128.535 67.83C125.178 65.55 122.487 62.4467 120.46 58.52C118.433 54.5933 117.42 50.1283 117.42 45.125C117.42 40.1217 118.433 35.6567 120.46 31.73C122.487 27.8033 125.242 24.7317 128.725 22.515C132.208 20.2983 136.135 19.19 140.505 19.19C143.038 19.19 145.35 19.57 147.44 20.33C149.53 21.0267 151.367 22.04 152.95 23.37C154.533 24.7 155.832 26.22 156.845 27.93C157.922 29.64 158.65 31.4767 159.03 33.44L156.465 32.775V20.235H168.245V70.3H156.37V58.33L159.125 57.855C158.682 59.565 157.858 61.2433 156.655 62.89C155.515 64.4733 154.058 65.8983 152.285 67.165C150.575 68.3683 148.643 69.35 146.49 70.11C144.4 70.87 142.152 71.25 139.745 71.25ZM142.975 60.895C145.698 60.895 148.105 60.23 150.195 58.9C152.285 57.57 153.9 55.7333 155.04 53.39C156.243 50.9833 156.845 48.2283 156.845 45.125C156.845 42.085 156.243 39.3933 155.04 37.05C153.9 34.7067 152.285 32.87 150.195 31.54C148.105 30.21 145.698 29.545 142.975 29.545C140.252 29.545 137.845 30.21 135.755 31.54C133.728 32.87 132.145 34.7067 131.005 37.05C129.865 39.3933 129.295 42.085 129.295 45.125C129.295 48.2283 129.865 50.9833 131.005 53.39C132.145 55.7333 133.728 57.57 135.755 58.9C137.845 60.23 140.252 60.895 142.975 60.895Z" fill="var(--fill-0, black)"/>
<path d="M181.792 91.2V20.235H193.287L193.477 31.635L191.482 30.78C191.862 28.8167 192.939 26.98 194.712 25.27C196.485 23.4967 198.639 22.0717 201.172 20.995C203.769 19.9183 206.46 19.38 209.247 19.38C213.68 19.38 217.607 20.4883 221.027 22.705C224.51 24.9217 227.234 27.9617 229.197 31.825C231.224 35.6883 232.237 40.1533 232.237 45.22C232.237 50.2233 231.224 54.6883 229.197 58.615C227.234 62.4783 224.51 65.55 221.027 67.83C217.607 70.0467 213.744 71.155 209.437 71.155C206.524 71.155 203.705 70.585 200.982 69.445C198.322 68.305 196.042 66.8167 194.142 64.98C192.305 63.1433 191.165 61.2117 190.722 59.185L193.572 57.855V91.2H181.792ZM207.062 60.8C209.722 60.8 212.097 60.135 214.187 58.805C216.277 57.475 217.892 55.6383 219.032 53.295C220.235 50.9517 220.837 48.26 220.837 45.22C220.837 42.18 220.267 39.52 219.127 37.24C217.987 34.8967 216.372 33.06 214.282 31.73C212.192 30.4 209.785 29.735 207.062 29.735C204.275 29.735 201.837 30.4 199.747 31.73C197.72 32.9967 196.105 34.8017 194.902 37.145C193.699 39.4883 193.097 42.18 193.097 45.22C193.097 48.26 193.699 50.9517 194.902 53.295C196.105 55.6383 197.72 57.475 199.747 58.805C201.837 60.135 204.275 60.8 207.062 60.8Z" fill="var(--fill-0, black)"/>
<path d="M242.652 91.2V20.235H254.147L254.337 31.635L252.342 30.78C252.722 28.8167 253.798 26.98 255.572 25.27C257.345 23.4967 259.498 22.0717 262.032 20.995C264.628 19.9183 267.32 19.38 270.107 19.38C274.54 19.38 278.467 20.4883 281.887 22.705C285.37 24.9217 288.093 27.9617 290.057 31.825C292.083 35.6883 293.097 40.1533 293.097 45.22C293.097 50.2233 292.083 54.6883 290.057 58.615C288.093 62.4783 285.37 65.55 281.887 67.83C278.467 70.0467 274.603 71.155 270.297 71.155C267.383 71.155 264.565 70.585 261.842 69.445C259.182 68.305 256.902 66.8167 255.002 64.98C253.165 63.1433 252.025 61.2117 251.582 59.185L254.432 57.855V91.2H242.652ZM267.922 60.8C270.582 60.8 272.957 60.135 275.047 58.805C277.137 57.475 278.752 55.6383 279.892 53.295C281.095 50.9517 281.697 48.26 281.697 45.22C281.697 42.18 281.127 39.52 279.987 37.24C278.847 34.8967 277.232 33.06 275.142 31.73C273.052 30.4 270.645 29.735 267.922 29.735C265.135 29.735 262.697 30.4 260.607 31.73C258.58 32.9967 256.965 34.8017 255.762 37.145C254.558 39.4883 253.957 42.18 253.957 45.22C253.957 48.26 254.558 50.9517 255.762 53.295C256.965 55.6383 258.58 57.475 260.607 58.805C262.697 60.135 265.135 60.8 267.922 60.8Z" fill="var(--fill-0, black)"/>
<path d="M333.816 71.25C329.003 71.25 324.601 70.4267 320.611 68.78C316.621 67.1333 313.169 64.79 310.256 61.75C307.343 58.6467 305.063 55.005 303.416 50.825C301.833 46.5817 301.041 41.9583 301.041 36.955C301.041 32.1417 301.896 27.6767 303.606 23.56C305.316 19.4433 307.691 15.8333 310.731 12.73C313.771 9.62667 317.318 7.22 321.371 5.51C325.424 3.8 329.826 2.945 334.576 2.945C337.806 2.945 340.941 3.42 343.981 4.37C347.021 5.32 349.808 6.65 352.341 8.36C354.874 10.0067 356.996 11.9383 358.706 14.155L350.821 22.8C349.174 21.09 347.464 19.665 345.691 18.525C343.981 17.3217 342.176 16.435 340.276 15.865C338.439 15.2317 336.539 14.915 334.576 14.915C331.663 14.915 328.908 15.4533 326.311 16.53C323.778 17.6067 321.561 19.1267 319.661 21.09C317.824 23.0533 316.368 25.3967 315.291 28.12C314.214 30.78 313.676 33.7567 313.676 37.05C313.676 40.4067 314.183 43.4467 315.196 46.17C316.273 48.8933 317.761 51.2367 319.661 53.2C321.624 55.1633 323.936 56.6833 326.596 57.76C329.319 58.7733 332.296 59.28 335.526 59.28C337.616 59.28 339.643 58.995 341.606 58.425C343.569 57.855 345.374 57.0633 347.021 56.05C348.731 54.9733 350.283 53.7383 351.676 52.345L357.756 62.13C356.236 63.84 354.209 65.3917 351.676 66.785C349.143 68.1783 346.293 69.2867 343.126 70.11C340.023 70.87 336.919 71.25 333.816 71.25Z" fill="var(--fill-0, black)"/>
<path d="M391.917 71.25C386.661 71.25 382.006 70.1417 377.952 67.925C373.962 65.7083 370.827 62.7 368.547 58.9C366.331 55.0367 365.222 50.635 365.222 45.695C365.222 41.7683 365.856 38.19 367.122 34.96C368.389 31.73 370.131 28.9433 372.347 26.6C374.627 24.1933 377.319 22.3567 380.422 21.09C383.589 19.76 387.041 19.095 390.777 19.095C394.071 19.095 397.142 19.7283 399.992 20.995C402.842 22.2617 405.312 24.0033 407.402 26.22C409.492 28.3733 411.076 30.97 412.152 34.01C413.292 36.9867 413.831 40.2483 413.767 43.795L413.672 47.88H373.107L370.922 39.9H403.887L402.367 41.515V39.425C402.177 37.4617 401.544 35.7517 400.467 34.295C399.391 32.775 397.997 31.6033 396.287 30.78C394.641 29.8933 392.804 29.45 390.777 29.45C387.674 29.45 385.046 30.0517 382.892 31.255C380.802 32.4583 379.219 34.2 378.142 36.48C377.066 38.6967 376.527 41.4833 376.527 44.84C376.527 48.07 377.192 50.8883 378.522 53.295C379.916 55.7017 381.847 57.57 384.317 58.9C386.851 60.1667 389.796 60.8 393.152 60.8C395.496 60.8 397.649 60.42 399.612 59.66C401.576 58.9 403.697 57.5383 405.977 55.575L411.772 63.65C410.062 65.2333 408.099 66.595 405.882 67.735C403.729 68.8117 401.449 69.6667 399.042 70.3C396.636 70.9333 394.261 71.25 391.917 71.25Z" fill="var(--fill-0, black)"/>
<path d="M424.116 70.3V20.235H435.516L435.706 30.495L433.521 31.635C434.155 29.355 435.39 27.2967 437.226 25.46C439.063 23.56 441.248 22.04 443.781 20.9C446.315 19.76 448.911 19.19 451.571 19.19C455.371 19.19 458.538 19.95 461.071 21.47C463.668 22.99 465.6 25.27 466.866 28.31C468.196 31.35 468.861 35.15 468.861 39.71V70.3H457.176V40.565C457.176 38.0317 456.828 35.9417 456.131 34.295C455.435 32.585 454.358 31.35 452.901 30.59C451.445 29.7667 449.671 29.3867 447.581 29.45C445.871 29.45 444.288 29.735 442.831 30.305C441.438 30.8117 440.203 31.5717 439.126 32.585C438.113 33.535 437.29 34.6433 436.656 35.91C436.086 37.1767 435.801 38.57 435.801 40.09V70.3H430.006C428.866 70.3 427.79 70.3 426.776 70.3C425.826 70.3 424.94 70.3 424.116 70.3Z" fill="var(--fill-0, black)"/>
<path d="M487.422 70.3V7.505H499.107V70.3H487.422ZM477.542 31.065V20.235H510.032V31.065H477.542Z" fill="var(--fill-0, black)"/>
<path d="M518.931 70.3V20.235H530.426L530.616 36.195L529.001 32.585C529.697 30.0517 530.901 27.7717 532.611 25.745C534.321 23.7183 536.284 22.135 538.501 20.995C540.781 19.7917 543.156 19.19 545.626 19.19C546.702 19.19 547.716 19.285 548.666 19.475C549.679 19.665 550.502 19.8867 551.136 20.14L548.001 32.965C547.304 32.585 546.449 32.2683 545.436 32.015C544.423 31.7617 543.409 31.635 542.396 31.635C540.812 31.635 539.292 31.9517 537.836 32.585C536.442 33.155 535.207 33.9783 534.131 35.055C533.054 36.1317 532.199 37.3983 531.566 38.855C530.996 40.2483 530.711 41.8317 530.711 43.605V70.3H518.931Z" fill="var(--fill-0, black)"/>
<path d="M575.687 71.25C571.571 71.25 567.834 70.11 564.477 67.83C561.121 65.55 558.429 62.4467 556.402 58.52C554.376 54.5933 553.362 50.1283 553.362 45.125C553.362 40.1217 554.376 35.6567 556.402 31.73C558.429 27.8033 561.184 24.7317 564.667 22.515C568.151 20.2983 572.077 19.19 576.447 19.19C578.981 19.19 581.292 19.57 583.382 20.33C585.472 21.0267 587.309 22.04 588.892 23.37C590.476 24.7 591.774 26.22 592.787 27.93C593.864 29.64 594.592 31.4767 594.972 33.44L592.407 32.775V20.235H604.187V70.3H592.312V58.33L595.067 57.855C594.624 59.565 593.801 61.2433 592.597 62.89C591.457 64.4733 590.001 65.8983 588.227 67.165C586.517 68.3683 584.586 69.35 582.432 70.11C580.342 70.87 578.094 71.25 575.687 71.25ZM578.917 60.895C581.641 60.895 584.047 60.23 586.137 58.9C588.227 57.57 589.842 55.7333 590.982 53.39C592.186 50.9833 592.787 48.2283 592.787 45.125C592.787 42.085 592.186 39.3933 590.982 37.05C589.842 34.7067 588.227 32.87 586.137 31.54C584.047 30.21 581.641 29.545 578.917 29.545C576.194 29.545 573.787 30.21 571.697 31.54C569.671 32.87 568.087 34.7067 566.947 37.05C565.807 39.3933 565.237 42.085 565.237 45.125C565.237 48.2283 565.807 50.9833 566.947 53.39C568.087 55.7333 569.671 57.57 571.697 58.9C573.787 60.23 576.194 60.895 578.917 60.895Z" fill="var(--fill-0, black)"/>
<path d="M617.83 70.3V0H629.61V70.3H617.83Z" fill="var(--fill-0, black)"/>
</g>
</svg>
