<svg preserveAspectRatio="xMidYMid meet" width="80" height="75" overflow="visible" style="display: block;" viewBox="0 0 80 75" fill="none" xmlns="http://www.w3.org/2000/svg">
<g id="aC logo svg" clip-path="url(#clip0_5525_21145)">
<path id="Vector" d="M37.7371 3.67647C38.9605 2.44424 40.9439 2.44423 42.1672 3.67647L78.9918 40.7693C80.2152 42.0016 80.2207 44.0064 78.9335 45.1707C74.0222 49.6132 68.3916 53.1892 62.279 55.7397C59.3807 56.9489 56.3971 57.9176 53.3581 58.6404L42.2118 47.413C40.9884 46.1807 39.0051 46.1807 37.7817 47.413L26.6183 58.6574C23.5544 57.9329 20.5465 56.9584 17.6252 55.7397C11.5126 53.1892 5.88214 49.6132 0.970691 45.1707C-0.316456 44.0064 -0.31094 42.0016 0.912332 40.7693L37.7371 3.67647Z" fill="var(--fill-0, #888888)"/>
<path id="Vector_2" d="M37.7371 15.9727C38.9605 14.7405 40.9439 14.7405 42.1672 15.9727L78.9918 53.0655C80.2152 54.2978 80.2207 56.3027 78.9335 57.467C74.6123 61.3757 69.734 64.6131 64.461 67.0718L42.2118 44.6607C40.9884 43.4284 39.0051 43.4284 37.7817 44.6607L15.5043 67.1C10.2078 64.6379 5.30865 61.3908 0.970692 57.467C-0.316455 56.3027 -0.31094 54.2978 0.912333 53.0655L37.7371 15.9727Z" fill="var(--fill-0, #515151)"/>
<path id="Vector_3" d="M37.7371 29.7944C38.9605 28.5621 40.9439 28.5621 42.1672 29.7944L78.9918 66.8871C80.2152 68.1194 80.2207 70.1243 78.9335 71.2886C77.7636 72.3468 76.5525 73.3558 75.3039 74.3136C74.099 75.2379 72.4094 75.0782 71.3383 73.9995L64.7198 67.3325C63.6528 66.2578 61.9834 66.1138 60.687 66.8915C59.0145 67.8947 57.2689 68.7774 55.4624 69.5313C50.5451 71.583 45.2745 72.6386 39.952 72.6386C34.6296 72.6386 29.3593 71.583 24.4419 69.5313C22.6539 68.7852 20.9254 67.9129 19.2685 66.9223C17.9725 66.1478 16.3056 66.293 15.24 67.3663L8.61602 74.0383C7.54598 75.1163 5.85817 75.2769 4.65328 74.3546C3.386 73.3847 2.15733 72.3619 0.970687 71.2886C-0.316458 70.1243 -0.310937 68.1194 0.91233 66.8871L37.7371 29.7944Z" fill="var(--fill-0, #111111)"/>
<path id="Vector_4" d="M28.6154 53.8937C27.392 55.1257 27.3802 57.1485 28.7855 58.165C29.9819 59.0306 31.2759 59.757 32.6431 60.3279C34.9773 61.3027 37.479 61.8049 40.0051 61.8061C42.5313 61.8073 45.0325 61.307 47.366 60.3345C48.7318 59.765 50.0243 59.0403 51.2195 58.1767C52.6253 57.1607 52.6133 55.1379 51.3899 53.9056L42.2118 44.6607C40.9884 43.4284 39.0051 43.4284 37.7817 44.6607L28.6154 53.8937Z" fill="var(--fill-0, white)"/>
</g>
<defs>
<clipPath id="clip0_5525_21145">
<rect width="80" height="75" fill="white"/>
</clipPath>
</defs>
</svg>
