<svg preserveAspectRatio="xMidYMid meet" width="462.988" height="79.4701" overflow="visible" style="display: block;" viewBox="0 0 462.988 79.4701" fill="none" xmlns="http://www.w3.org/2000/svg">
<g id="Vector">
<path d="M79.7242 72.8995C80.029 76.5181 77.056 79.4706 73.4246 79.4701L6.57949 79.4614C2.94654 79.461 0.00260334 76.514 0.00581313 72.8811L0.0645926 6.35262C0.0679049 2.6037 3.21318 -0.406739 6.93479 0.0449922C47.3506 4.95068 76.6067 35.8845 79.7242 72.8995Z" fill="#BCC5F9"/>
<path d="M0.0235416 17.358L0 72.8861C-7.96851e-10 76.7212 3.83514 79.4606 6.57453 79.4606H62.6587C62.6587 49.1813 36.813 17.358 0.0235416 17.358Z" fill="#6B7CD5"/>
<path d="M0.000244141 38.0476L0 72.8861C0 77.2691 3.83514 79.4606 6.57453 79.4606L41.0918 79.4606C41.0918 59.2744 24.5267 38.0476 0.000244141 38.0476Z" fill="var(--fill-0, #172FAF)"/>
<path d="M432.113 74.1458L411.023 24.0808H423.753L438.003 61.5108L435.533 62.1758L450.543 24.0808H462.988L440.853 74.1458H432.113Z" fill="var(--fill-0, #172FAF)"/>
<path d="M375.124 75.0958C371.007 75.0958 367.27 73.9558 363.914 71.6758C360.557 69.3958 357.865 66.2924 355.839 62.3658C353.812 58.4391 352.799 53.9741 352.799 48.9708C352.799 43.9674 353.812 39.5024 355.839 35.5758C357.865 31.6491 360.62 28.5774 364.104 26.3608C367.587 24.1441 371.514 23.0358 375.884 23.0358C378.417 23.0358 380.729 23.4158 382.819 24.1758C384.909 24.8724 386.745 25.8858 388.329 27.2158C389.912 28.5458 391.21 30.0658 392.224 31.7758C393.3 33.4858 394.029 35.3224 394.409 37.2858L391.844 36.6208V24.0808H403.624V74.1458H391.749V62.1758L394.504 61.7008C394.06 63.4108 393.237 65.0891 392.034 66.7358C390.894 68.3191 389.437 69.7441 387.664 71.0108C385.954 72.2141 384.022 73.1958 381.869 73.9558C379.779 74.7158 377.53 75.0958 375.124 75.0958ZM378.354 64.7408C381.077 64.7408 383.484 64.0758 385.574 62.7458C387.664 61.4158 389.279 59.5791 390.419 57.2358C391.622 54.8291 392.224 52.0741 392.224 48.9708C392.224 45.9308 391.622 43.2391 390.419 40.8958C389.279 38.5524 387.664 36.7158 385.574 35.3858C383.484 34.0558 381.077 33.3908 378.354 33.3908C375.63 33.3908 373.224 34.0558 371.134 35.3858C369.107 36.7158 367.524 38.5524 366.384 40.8958C365.244 43.2391 364.674 45.9308 364.674 48.9708C364.674 52.0741 365.244 54.8291 366.384 57.2358C367.524 59.5791 369.107 61.4158 371.134 62.7458C373.224 64.0758 375.63 64.7408 378.354 64.7408Z" fill="var(--fill-0, #172FAF)"/>
<path d="M282.513 74.1458V7.64577H293.628L332.198 59.6108L330.108 59.9908C329.855 58.2174 329.633 56.4124 329.443 54.5758C329.253 52.6758 329.063 50.7124 328.873 48.6858C328.746 46.6591 328.62 44.5374 328.493 42.3208C328.43 40.1041 328.366 37.7924 328.303 35.3858C328.24 32.9158 328.208 30.3191 328.208 27.5958V7.64577H340.463V74.1458H329.158L290.398 22.9408L292.868 22.2758C293.185 25.8224 293.438 28.8624 293.628 31.3958C293.881 33.8658 294.071 36.0191 294.198 37.8558C294.325 39.6291 294.42 41.1174 294.483 42.3208C294.61 43.5241 294.673 44.6324 294.673 45.6458C294.736 46.5958 294.768 47.5141 294.768 48.4008V74.1458H282.513Z" fill="var(--fill-0, #172FAF)"/>
<path d="M235.406 58.8508L233.126 47.9258L256.876 24.0808H272.456L235.406 58.8508ZM224.481 74.1458V3.84577H236.166V74.1458H224.481ZM258.301 74.1458L239.871 51.8208L248.136 44.7908L272.741 74.1458H258.301Z" fill="var(--fill-0, #172FAF)"/>
<path d="M195.092 75.0958C190.659 75.0958 186.669 74.3674 183.122 72.9108C179.639 71.3908 176.789 69.2374 174.572 66.4508L182.172 59.8958C184.072 62.0491 186.194 63.6008 188.537 64.5508C190.88 65.5008 193.35 65.9758 195.947 65.9758C197.024 65.9758 197.974 65.8491 198.797 65.5958C199.684 65.3424 200.444 64.9624 201.077 64.4558C201.71 63.9491 202.185 63.3791 202.502 62.7458C202.882 62.0491 203.072 61.2891 203.072 60.4658C203.072 58.9458 202.502 57.7424 201.362 56.8558C200.729 56.4124 199.715 55.9374 198.322 55.4308C196.992 54.9241 195.25 54.4174 193.097 53.9108C189.677 53.0241 186.827 52.0108 184.547 50.8708C182.267 49.6674 180.494 48.3374 179.227 46.8808C178.15 45.6774 177.327 44.3158 176.757 42.7958C176.25 41.2758 175.997 39.6291 175.997 37.8558C175.997 35.6391 176.472 33.6441 177.422 31.8708C178.435 30.0341 179.797 28.4508 181.507 27.1208C183.217 25.7908 185.212 24.7774 187.492 24.0808C189.772 23.3841 192.147 23.0358 194.617 23.0358C197.15 23.0358 199.589 23.3524 201.932 23.9858C204.339 24.6191 206.555 25.5374 208.582 26.7408C210.672 27.8808 212.445 29.2741 213.902 30.9208L207.442 38.0458C206.239 36.9058 204.909 35.8924 203.452 35.0058C202.059 34.1191 200.634 33.4224 199.177 32.9158C197.72 32.3458 196.359 32.0608 195.092 32.0608C193.889 32.0608 192.812 32.1874 191.862 32.4408C190.912 32.6308 190.12 32.9474 189.487 33.3908C188.854 33.8341 188.347 34.4041 187.967 35.1008C187.65 35.7341 187.492 36.4941 187.492 37.3808C187.555 38.1408 187.745 38.8691 188.062 39.5658C188.442 40.1991 188.949 40.7374 189.582 41.1808C190.279 41.6241 191.324 42.1308 192.717 42.7008C194.11 43.2708 195.915 43.8091 198.132 44.3158C201.235 45.1391 203.832 46.0574 205.922 47.0708C208.012 48.0841 209.659 49.2558 210.862 50.5858C212.065 51.7258 212.92 53.0558 213.427 54.5758C213.934 56.0958 214.187 57.7741 214.187 59.6108C214.187 62.5874 213.332 65.2474 211.622 67.5908C209.975 69.9341 207.695 71.7708 204.782 73.1008C201.932 74.4308 198.702 75.0958 195.092 75.0958Z" fill="var(--fill-0, #172FAF)"/>
<path d="M136.325 75.0958C132.208 75.0958 128.472 73.9558 125.115 71.6758C121.758 69.3958 119.067 66.2924 117.04 62.3658C115.013 58.4391 114 53.9741 114 48.9708C114 43.9674 115.013 39.5024 117.04 35.5758C119.067 31.6491 121.822 28.5774 125.305 26.3608C128.788 24.1441 132.715 23.0358 137.085 23.0358C139.618 23.0358 141.93 23.4158 144.02 24.1758C146.11 24.8724 147.947 25.8858 149.53 27.2158C151.113 28.5458 152.412 30.0658 153.425 31.7758C154.502 33.4858 155.23 35.3224 155.61 37.2858L153.045 36.6208V24.0808H164.825V74.1458H152.95V62.1758L155.705 61.7008C155.262 63.4108 154.438 65.0891 153.235 66.7358C152.095 68.3191 150.638 69.7441 148.865 71.0108C147.155 72.2141 145.223 73.1958 143.07 73.9558C140.98 74.7158 138.732 75.0958 136.325 75.0958ZM139.555 64.7408C142.278 64.7408 144.685 64.0758 146.775 62.7458C148.865 61.4158 150.48 59.5791 151.62 57.2358C152.823 54.8291 153.425 52.0741 153.425 48.9708C153.425 45.9308 152.823 43.2391 151.62 40.8958C150.48 38.5524 148.865 36.7158 146.775 35.3858C144.685 34.0558 142.278 33.3908 139.555 33.3908C136.832 33.3908 134.425 34.0558 132.335 35.3858C130.308 36.7158 128.725 38.5524 127.585 40.8958C126.445 43.2391 125.875 45.9308 125.875 48.9708C125.875 52.0741 126.445 54.8291 127.585 57.2358C128.725 59.5791 130.308 61.4158 132.335 62.7458C134.425 64.0758 136.832 64.7408 139.555 64.7408Z" fill="var(--fill-0, #172FAF)"/>
</g>
</svg>
