<svg preserveAspectRatio="xMidYMid meet" width="75.1119" height="29.04" overflow="visible" style="display: block;" viewBox="0 0 75.1119 29.04" fill="none" xmlns="http://www.w3.org/2000/svg">
<g id="Beta">
<path id="Vector" d="M71.2919 19.7C69.7052 19.7533 68.3585 19.88 67.2519 20.08C66.1452 20.2667 65.2452 20.52 64.5519 20.84C63.8585 21.16 63.3585 21.54 63.0519 21.98C62.7452 22.4067 62.5919 22.8867 62.5919 23.42C62.5919 23.9267 62.6719 24.3667 62.8319 24.74C63.0052 25.1 63.2319 25.4 63.5119 25.64C63.8052 25.8667 64.1452 26.0333 64.5319 26.14C64.9185 26.2467 65.3385 26.3 65.7919 26.3C66.3919 26.3 66.9385 26.24 67.4319 26.12C67.9385 26 68.4119 25.8333 68.8519 25.62C69.2919 25.3933 69.7119 25.12 70.1119 24.8C70.5119 24.48 70.9052 24.1133 71.2919 23.7V19.7ZM59.8519 11.24C60.9852 10.16 62.2119 9.35333 63.5319 8.82C64.8652 8.28667 66.3252 8.02 67.9119 8.02C69.0719 8.02 70.0985 8.21333 70.9919 8.6C71.8852 8.97333 72.6385 9.5 73.2519 10.18C73.8652 10.86 74.3252 11.6733 74.6319 12.62C74.9519 13.5667 75.1119 14.6133 75.1119 15.76V28.72H73.3719C72.9852 28.72 72.6919 28.66 72.4919 28.54C72.2919 28.4067 72.1319 28.1667 72.0119 27.82L71.5919 26.04C71.0719 26.52 70.5585 26.9467 70.0519 27.32C69.5452 27.68 69.0119 27.9933 68.4519 28.26C67.9052 28.5133 67.3185 28.7067 66.6919 28.84C66.0652 28.9733 65.3719 29.04 64.6119 29.04C63.8119 29.04 63.0585 28.9333 62.3519 28.72C61.6585 28.4933 61.0519 28.1533 60.5319 27.7C60.0119 27.2467 59.5985 26.68 59.2919 26C58.9985 25.32 58.8519 24.5267 58.8519 23.62C58.8519 22.82 59.0652 22.0533 59.4919 21.32C59.9319 20.5733 60.6385 19.9067 61.6119 19.32C62.5985 18.7333 63.8785 18.2533 65.4519 17.88C67.0385 17.5067 68.9852 17.2933 71.2919 17.24V15.76C71.2919 14.2267 70.9652 13.08 70.3119 12.32C69.6585 11.56 68.6985 11.18 67.4319 11.18C66.5785 11.18 65.8585 11.2867 65.2719 11.5C64.6985 11.7133 64.1985 11.9533 63.7719 12.22C63.3585 12.4733 62.9919 12.7067 62.6719 12.92C62.3652 13.1333 62.0452 13.24 61.7119 13.24C61.4452 13.24 61.2119 13.1667 61.0119 13.02C60.8252 12.8733 60.6719 12.7 60.5519 12.5L59.8519 11.24Z" fill="var(--fill-0, #10258E)"/>
<path id="Vector_2" d="M52.2397 29.04C50.5997 29.04 49.333 28.58 48.4397 27.66C47.5597 26.74 47.1197 25.4267 47.1197 23.72V11.56H44.7597C44.533 11.56 44.3397 11.4933 44.1797 11.36C44.033 11.2133 43.9597 11 43.9597 10.72V9.14L47.2597 8.68L48.1397 2.62C48.193 2.39333 48.293 2.22 48.4397 2.1C48.5997 1.96667 48.7997 1.9 49.0397 1.9H51.0197V8.72H56.7797V11.56H51.0197V23.46C51.0197 24.26 51.213 24.86 51.5997 25.26C51.9997 25.6467 52.5064 25.84 53.1197 25.84C53.4797 25.84 53.7864 25.7933 54.0397 25.7C54.3064 25.6067 54.533 25.5067 54.7197 25.4C54.9064 25.28 55.0664 25.1733 55.1997 25.08C55.333 24.9867 55.453 24.94 55.5597 24.94C55.693 24.94 55.793 24.9733 55.8597 25.04C55.9397 25.0933 56.0197 25.1867 56.0997 25.32L57.2597 27.2C56.6197 27.7867 55.8597 28.24 54.9797 28.56C54.0997 28.88 53.1864 29.04 52.2397 29.04Z" fill="var(--fill-0, #10258E)"/>
<path id="Vector_3" d="M38.3241 16.3C38.3241 15.5267 38.2107 14.8133 37.9841 14.16C37.7707 13.5067 37.4507 12.94 37.0241 12.46C36.5974 11.98 36.0774 11.6067 35.4641 11.34C34.8507 11.0733 34.1441 10.94 33.3441 10.94C31.7041 10.94 30.4107 11.4133 29.4641 12.36C28.5307 13.3067 27.9374 14.62 27.6841 16.3H38.3241ZM41.5441 25.82C41.0641 26.38 40.5107 26.8667 39.8841 27.28C39.2574 27.68 38.5907 28.0067 37.8841 28.26C37.1774 28.5133 36.4441 28.7 35.6841 28.82C34.9374 28.94 34.1974 29 33.4641 29C32.0641 29 30.7641 28.7667 29.5641 28.3C28.3774 27.82 27.3441 27.1267 26.4641 26.22C25.5974 25.3 24.9174 24.1667 24.4241 22.82C23.9441 21.46 23.7041 19.9 23.7041 18.14C23.7041 16.7267 23.9241 15.4133 24.3641 14.2C24.8041 12.9733 25.4307 11.9067 26.2441 11C27.0707 10.0933 28.0774 9.38 29.2641 8.86C30.4507 8.34 31.7841 8.08 33.2641 8.08C34.5041 8.08 35.6441 8.28667 36.6841 8.7C37.7374 9.1 38.6441 9.68667 39.4041 10.46C40.1641 11.2333 40.7574 12.1867 41.1841 13.32C41.6241 14.4533 41.8441 15.7467 41.8441 17.2C41.8441 17.8 41.7774 18.2067 41.6441 18.42C41.5107 18.62 41.2641 18.72 40.9041 18.72H27.5841C27.6241 19.9333 27.7974 20.9933 28.1041 21.9C28.4107 22.7933 28.8307 23.54 29.3641 24.14C29.9107 24.74 30.5574 25.1867 31.3041 25.48C32.0507 25.7733 32.8841 25.92 33.8041 25.92C34.6707 25.92 35.4174 25.82 36.0441 25.62C36.6841 25.42 37.2307 25.2067 37.6841 24.98C38.1507 24.74 38.5374 24.52 38.8441 24.32C39.1641 24.12 39.4441 24.02 39.6841 24.02C40.0041 24.02 40.2507 24.14 40.4241 24.38L41.5441 25.82Z" fill="var(--fill-0, #10258E)"/>
<path id="Vector_4" d="M10.26 25.34C11.34 25.34 12.26 25.2133 13.02 24.96C13.7933 24.7067 14.42 24.36 14.9 23.92C15.3933 23.48 15.7533 22.96 15.98 22.36C16.2067 21.7467 16.32 21.08 16.32 20.36C16.32 18.9333 15.8267 17.8133 14.84 17C13.8533 16.1733 12.3267 15.76 10.26 15.76H4.26V25.34H10.26ZM4.26 3.34V12.74H9.16C11.2533 12.74 12.8067 12.32 13.82 11.48C14.8467 10.6267 15.36 9.48 15.36 8.04C15.36 6.4 14.8733 5.20667 13.9 4.46C12.9267 3.71333 11.4133 3.34 9.36 3.34H4.26ZM9.36 0C11.16 0 12.7 0.173333 13.98 0.52C15.2733 0.866667 16.3333 1.36667 17.16 2.02C17.9867 2.67334 18.5933 3.46667 18.98 4.4C19.38 5.32 19.58 6.36667 19.58 7.54C19.58 8.23333 19.4733 8.9 19.26 9.54C19.0467 10.18 18.72 10.78 18.28 11.34C17.84 11.8867 17.2867 12.38 16.62 12.82C15.9533 13.26 15.1667 13.6267 14.26 13.92C18.4333 14.7467 20.52 16.9267 20.52 20.46C20.52 21.6867 20.2933 22.8067 19.84 23.82C19.3867 24.82 18.7267 25.6867 17.86 26.42C16.9933 27.1533 15.9267 27.72 14.66 28.12C13.3933 28.52 11.9533 28.72 10.34 28.72H0V0H9.36Z" fill="var(--fill-0, #10258E)"/>
</g>
</svg>
