<svg preserveAspectRatio="xMidYMid meet" width="80" height="70" overflow="visible" style="display: block;" viewBox="0 0 80 70" fill="none" xmlns="http://www.w3.org/2000/svg">
<g id="Group 625996">
<path id="Vector 38" d="M62.7264 -1.19609e-06L62.9684 65.2665C62.9768 67.5165 61.1906 69.7742 59.396 69.7809L3.37986 69.7809C1.0171 69.7809 0.24414 67.9087 0.244137 66.0716C1.79624 25.5855 29.6867 0.122419 62.7264 -1.19609e-06Z" fill="var(--fill-0, #D6ACFF)"/>
<path id="Vector 39" d="M80 27.6213L80 67.2467C80 68.6128 78.8138 69.9795 77.6277 69.9795L41.7148 69.9795C39.9745 69.9795 38.2343 68.0541 38.2343 66.0388C38.2343 44.9496 55.6367 27.6213 80 27.6213Z" fill="var(--fill-0, #8300EA)"/>
<path id="Vector 40" d="M63.0516 69.9795V31.252C59.4981 31.4614 36.4182 43.7059 36.4184 69.9627L63.0516 69.9795Z" fill="var(--fill-0, #CC61FF)"/>
</g>
</svg>
