<svg preserveAspectRatio="xMidYMid meet" width="650.062" height="71.25" overflow="visible" style="display: block;" viewBox="0 0 650.062 71.25" fill="none" xmlns="http://www.w3.org/2000/svg">
<g id="Vector">
<path d="M62.4823 0.624962L62.7243 65.8914C62.7326 68.1415 60.9464 70.3992 59.1519 70.4058H3.13573C0.772966 70.4058 5.76932e-06 68.5337 0 66.6965C1.5521 26.2105 29.4426 0.747382 62.4823 0.624962Z" fill="#D6ACFF"/>
<path d="M79.7559 28.2462V67.8716C79.7559 69.2377 78.5697 70.6044 77.3835 70.6044H41.4706C39.7304 70.6044 37.9902 68.6791 37.9902 66.6638C37.9902 45.5746 55.3925 28.2462 79.7559 28.2462Z" fill="var(--fill-0, #8300EA)"/>
<path d="M62.8075 70.6045V31.877C59.254 32.0863 36.174 44.3309 36.1743 70.5876L62.8075 70.6045Z" fill="#CC61FF"/>
<path d="M138.456 71.25C133.769 71.25 129.558 70.11 125.821 67.83C122.084 65.55 119.139 62.4467 116.986 58.52C114.833 54.5933 113.756 50.16 113.756 45.22C113.756 40.28 114.833 35.8467 116.986 31.92C119.139 27.9933 122.084 24.89 125.821 22.61C129.558 20.33 133.769 19.19 138.456 19.19C142.953 19.19 147.038 20.045 150.711 21.755C154.384 23.465 157.234 25.84 159.261 28.88L152.801 36.67C151.851 35.34 150.648 34.1367 149.191 33.06C147.734 31.9833 146.183 31.1283 144.536 30.495C142.889 29.8617 141.243 29.545 139.596 29.545C136.809 29.545 134.308 30.2417 132.091 31.635C129.938 32.965 128.228 34.8333 126.961 37.24C125.694 39.5833 125.061 42.2433 125.061 45.22C125.061 48.1967 125.694 50.8567 126.961 53.2C128.291 55.5433 130.064 57.4117 132.281 58.805C134.498 60.1983 136.968 60.895 139.691 60.895C141.338 60.895 142.921 60.6417 144.441 60.135C146.024 59.565 147.513 58.7733 148.906 57.76C150.299 56.7467 151.598 55.48 152.801 53.96L159.261 61.845C157.108 64.6317 154.131 66.9117 150.331 68.685C146.594 70.395 142.636 71.25 138.456 71.25Z" fill="var(--fill-0, #8300EA)"/>
<path d="M168.197 70.3V0H179.787V30.495L177.602 31.635C178.235 29.355 179.47 27.2967 181.307 25.46C183.143 23.56 185.328 22.04 187.862 20.9C190.395 19.76 192.992 19.19 195.652 19.19C199.452 19.19 202.618 19.95 205.152 21.47C207.748 22.99 209.68 25.27 210.947 28.31C212.277 31.35 212.942 35.15 212.942 39.71V70.3H201.257V40.565C201.257 38.0317 200.908 35.9417 200.212 34.295C199.515 32.585 198.438 31.35 196.982 30.59C195.525 29.7667 193.752 29.3867 191.662 29.45C189.952 29.45 188.368 29.735 186.912 30.305C185.518 30.8117 184.283 31.5717 183.207 32.585C182.193 33.535 181.37 34.6433 180.737 35.91C180.167 37.1767 179.882 38.57 179.882 40.09V70.3H174.087C172.947 70.3 171.87 70.3 170.857 70.3C169.907 70.3 169.02 70.3 168.197 70.3Z" fill="var(--fill-0, #8300EA)"/>
<path d="M244.992 71.25C240.876 71.25 237.139 70.11 233.782 67.83C230.426 65.55 227.734 62.4467 225.707 58.52C223.681 54.5933 222.667 50.1283 222.667 45.125C222.667 40.1217 223.681 35.6567 225.707 31.73C227.734 27.8033 230.489 24.7317 233.972 22.515C237.456 20.2983 241.382 19.19 245.752 19.19C248.286 19.19 250.597 19.57 252.687 20.33C254.777 21.0267 256.614 22.04 258.197 23.37C259.781 24.7 261.079 26.22 262.092 27.93C263.169 29.64 263.897 31.4767 264.277 33.44L261.712 32.775V20.235H273.492V70.3H261.617V58.33L264.372 57.855C263.929 59.565 263.106 61.2433 261.902 62.89C260.762 64.4733 259.306 65.8983 257.532 67.165C255.822 68.3683 253.891 69.35 251.737 70.11C249.647 70.87 247.399 71.25 244.992 71.25ZM248.222 60.895C250.946 60.895 253.352 60.23 255.442 58.9C257.532 57.57 259.147 55.7333 260.287 53.39C261.491 50.9833 262.092 48.2283 262.092 45.125C262.092 42.085 261.491 39.3933 260.287 37.05C259.147 34.7067 257.532 32.87 255.442 31.54C253.352 30.21 250.946 29.545 248.222 29.545C245.499 29.545 243.092 30.21 241.002 31.54C238.976 32.87 237.392 34.7067 236.252 37.05C235.112 39.3933 234.542 42.085 234.542 45.125C234.542 48.2283 235.112 50.9833 236.252 53.39C237.392 55.7333 238.976 57.57 241.002 58.9C243.092 60.23 245.499 60.895 248.222 60.895Z" fill="var(--fill-0, #8300EA)"/>
<path d="M292.455 70.3V7.505H304.14V70.3H292.455ZM282.575 31.065V20.235H315.065V31.065H282.575Z" fill="var(--fill-0, #8300EA)"/>
<path d="M354.268 71.25C349.455 71.25 345.053 70.4267 341.063 68.78C337.073 67.1333 333.622 64.79 330.708 61.75C327.795 58.6467 325.515 55.005 323.868 50.825C322.285 46.5817 321.493 41.9583 321.493 36.955C321.493 32.1417 322.348 27.6767 324.058 23.56C325.768 19.4433 328.143 15.8333 331.183 12.73C334.223 9.62667 337.77 7.22 341.823 5.51C345.877 3.8 350.278 2.945 355.028 2.945C358.258 2.945 361.393 3.42 364.433 4.37C367.473 5.32 370.26 6.65 372.793 8.36C375.327 10.0067 377.448 11.9383 379.158 14.155L371.273 22.8C369.627 21.09 367.917 19.665 366.143 18.525C364.433 17.3217 362.628 16.435 360.728 15.865C358.892 15.2317 356.992 14.915 355.028 14.915C352.115 14.915 349.36 15.4533 346.763 16.53C344.23 17.6067 342.013 19.1267 340.113 21.09C338.277 23.0533 336.82 25.3967 335.743 28.12C334.667 30.78 334.128 33.7567 334.128 37.05C334.128 40.4067 334.635 43.4467 335.648 46.17C336.725 48.8933 338.213 51.2367 340.113 53.2C342.077 55.1633 344.388 56.6833 347.048 57.76C349.772 58.7733 352.748 59.28 355.978 59.28C358.068 59.28 360.095 58.995 362.058 58.425C364.022 57.855 365.827 57.0633 367.473 56.05C369.183 54.9733 370.735 53.7383 372.128 52.345L378.208 62.13C376.688 63.84 374.662 65.3917 372.128 66.785C369.595 68.1783 366.745 69.2867 363.578 70.11C360.475 70.87 357.372 71.25 354.268 71.25Z" fill="var(--fill-0, #8300EA)"/>
<path d="M412.37 71.25C407.113 71.25 402.458 70.1417 398.405 67.925C394.415 65.7083 391.28 62.7 389 58.9C386.783 55.0367 385.675 50.635 385.675 45.695C385.675 41.7683 386.308 38.19 387.575 34.96C388.841 31.73 390.583 28.9433 392.8 26.6C395.08 24.1933 397.771 22.3567 400.875 21.09C404.041 19.76 407.493 19.095 411.23 19.095C414.523 19.095 417.595 19.7283 420.445 20.995C423.295 22.2617 425.765 24.0033 427.855 26.22C429.945 28.3733 431.528 30.97 432.605 34.01C433.745 36.9867 434.283 40.2483 434.22 43.795L434.125 47.88H393.56L391.375 39.9H424.34L422.82 41.515V39.425C422.63 37.4617 421.996 35.7517 420.92 34.295C419.843 32.775 418.45 31.6033 416.74 30.78C415.093 29.8933 413.256 29.45 411.23 29.45C408.126 29.45 405.498 30.0517 403.345 31.255C401.255 32.4583 399.671 34.2 398.595 36.48C397.518 38.6967 396.98 41.4833 396.98 44.84C396.98 48.07 397.645 50.8883 398.975 53.295C400.368 55.7017 402.3 57.57 404.77 58.9C407.303 60.1667 410.248 60.8 413.605 60.8C415.948 60.8 418.102 60.42 420.065 59.66C422.028 58.9 424.15 57.5383 426.43 55.575L432.225 63.65C430.515 65.2333 428.551 66.595 426.335 67.735C424.181 68.8117 421.901 69.6667 419.495 70.3C417.088 70.9333 414.713 71.25 412.37 71.25Z" fill="var(--fill-0, #8300EA)"/>
<path d="M444.569 70.3V20.235H455.969L456.159 30.495L453.974 31.635C454.607 29.355 455.842 27.2967 457.679 25.46C459.516 23.56 461.701 22.04 464.234 20.9C466.767 19.76 469.364 19.19 472.024 19.19C475.824 19.19 478.991 19.95 481.524 21.47C484.121 22.99 486.052 25.27 487.319 28.31C488.649 31.35 489.314 35.15 489.314 39.71V70.3H477.629V40.565C477.629 38.0317 477.281 35.9417 476.584 34.295C475.887 32.585 474.811 31.35 473.354 30.59C471.897 29.7667 470.124 29.3867 468.034 29.45C466.324 29.45 464.741 29.735 463.284 30.305C461.891 30.8117 460.656 31.5717 459.579 32.585C458.566 33.535 457.742 34.6433 457.109 35.91C456.539 37.1767 456.254 38.57 456.254 40.09V70.3H450.459C449.319 70.3 448.242 70.3 447.229 70.3C446.279 70.3 445.392 70.3 444.569 70.3Z" fill="var(--fill-0, #8300EA)"/>
<path d="M507.874 70.3V7.505H519.559V70.3H507.874ZM497.995 31.065V20.235H530.484V31.065H497.995Z" fill="var(--fill-0, #8300EA)"/>
<path d="M539.383 70.3V20.235H550.878L551.068 36.195L549.453 32.585C550.15 30.0517 551.353 27.7717 553.063 25.745C554.773 23.7183 556.737 22.135 558.953 20.995C561.233 19.7917 563.608 19.19 566.078 19.19C567.155 19.19 568.168 19.285 569.118 19.475C570.132 19.665 570.955 19.8867 571.588 20.14L568.453 32.965C567.757 32.585 566.902 32.2683 565.888 32.015C564.875 31.7617 563.862 31.635 562.848 31.635C561.265 31.635 559.745 31.9517 558.288 32.585C556.895 33.155 555.66 33.9783 554.583 35.055C553.507 36.1317 552.652 37.3983 552.018 38.855C551.448 40.2483 551.163 41.8317 551.163 43.605V70.3H539.383Z" fill="var(--fill-0, #8300EA)"/>
<path d="M596.14 71.25C592.023 71.25 588.287 70.11 584.93 67.83C581.573 65.55 578.882 62.4467 576.855 58.52C574.828 54.5933 573.815 50.1283 573.815 45.125C573.815 40.1217 574.828 35.6567 576.855 31.73C578.882 27.8033 581.637 24.7317 585.12 22.515C588.603 20.2983 592.53 19.19 596.9 19.19C599.433 19.19 601.745 19.57 603.835 20.33C605.925 21.0267 607.762 22.04 609.345 23.37C610.928 24.7 612.227 26.22 613.24 27.93C614.317 29.64 615.045 31.4767 615.425 33.44L612.86 32.775V20.235H624.64V70.3H612.765V58.33L615.52 57.855C615.077 59.565 614.253 61.2433 613.05 62.89C611.91 64.4733 610.453 65.8983 608.68 67.165C606.97 68.3683 605.038 69.35 602.885 70.11C600.795 70.87 598.547 71.25 596.14 71.25ZM599.37 60.895C602.093 60.895 604.5 60.23 606.59 58.9C608.68 57.57 610.295 55.7333 611.435 53.39C612.638 50.9833 613.24 48.2283 613.24 45.125C613.24 42.085 612.638 39.3933 611.435 37.05C610.295 34.7067 608.68 32.87 606.59 31.54C604.5 30.21 602.093 29.545 599.37 29.545C596.647 29.545 594.24 30.21 592.15 31.54C590.123 32.87 588.54 34.7067 587.4 37.05C586.26 39.3933 585.69 42.085 585.69 45.125C585.69 48.2283 586.26 50.9833 587.4 53.39C588.54 55.7333 590.123 57.57 592.15 58.9C594.24 60.23 596.647 60.895 599.37 60.895Z" fill="var(--fill-0, #8300EA)"/>
<path d="M638.282 70.3V0H650.062V70.3H638.282Z" fill="var(--fill-0, #8300EA)"/>
</g>
</svg>
