<svg preserveAspectRatio="xMidYMid meet" width="617" height="77" overflow="visible" style="display: block;" viewBox="0 0 617 77" fill="none" xmlns="http://www.w3.org/2000/svg">
<g id="Vector">
<path fill-rule="evenodd" clip-rule="evenodd" d="M65.5117 76.9993C65.5117 38.1163 37.9132 2.39211 3.64047 0.00825184C1.67698 -0.126525 0 1.40656 0 3.36924V73.6299C0 75.4915 1.50844 76.9993 3.37081 76.9993H65.5117Z" fill="#CBFF8D"/>
<path fill-rule="evenodd" clip-rule="evenodd" d="M56.1499 38.3945C62.091 49.9937 65.5117 63.2943 65.5117 76.9993L76.931 76.9996C78.7933 76.9996 80.3018 75.4917 80.3018 73.6301V32.2369C80.3018 30.2405 78.5742 28.6569 76.5854 28.8759C69.0096 29.7351 61.9983 33.1972 56.1415 38.4029L56.1499 38.3945Z" fill="#2F7004"/>
<path fill-rule="evenodd" clip-rule="evenodd" d="M65.5117 76.9993C65.5117 63.2943 62.0825 49.9937 56.1499 38.3945C45.9279 47.4667 39.2447 61.8461 39.2447 77H65.5201L65.5117 76.9993Z" fill="#63EC00"/>
<path d="M63.3712 7.76687L64.7364 8.51656C64.9134 8.60922 64.9134 8.86193 64.7364 8.95459L63.3628 9.70428C60.7251 11.1447 58.551 13.3096 57.1015 15.9461L56.3515 17.3107C56.2588 17.4876 56.006 17.4876 55.9133 17.3107L55.1633 15.9377C53.7223 13.3011 51.5565 11.1279 48.9189 9.67901L47.5537 8.92932C47.3767 8.83666 47.3767 8.58395 47.5537 8.49129L48.9273 7.7416C51.565 6.30117 53.7391 4.13633 55.1886 1.49976L55.9386 0.135148C56.0313 -0.041746 56.2841 -0.041746 56.3768 0.135148L57.1268 1.50818C58.5678 4.14475 60.7336 6.31802 63.3712 7.76687Z" fill="#63EC00"/>
<path d="M137.888 74.2799C133.438 74.2799 129.433 73.1667 125.873 70.9404C122.377 68.6505 119.579 65.5655 117.482 61.6854C115.447 57.7416 114.43 53.2254 114.43 48.1367C114.43 43.1116 115.447 38.6272 117.482 34.6835C119.516 30.7398 122.281 27.6547 125.778 25.4284C129.338 23.1385 133.343 21.9936 137.793 21.9936C140.209 21.9936 142.529 22.3752 144.754 23.1385C147.043 23.9018 149.077 24.9514 150.857 26.2871C152.637 27.5593 154.036 28.9905 155.053 30.5807C156.133 32.171 156.737 33.8248 156.865 35.5422L153.718 35.9239V2.72013H165.447V73.3258H154.099L153.813 61.4946L156.102 61.6854C156.038 63.2756 155.466 64.8022 154.385 66.2652C153.368 67.7282 152.033 69.064 150.38 70.2726C148.727 71.4811 146.788 72.467 144.563 73.2304C142.402 73.9301 140.177 74.2799 137.888 74.2799ZM140.177 64.3569C142.91 64.3569 145.326 63.6572 147.424 62.2579C149.522 60.8585 151.143 58.9502 152.287 56.5331C153.495 54.1159 154.099 51.3172 154.099 48.1367C154.099 45.0199 153.495 42.2529 152.287 39.8358C151.143 37.3551 149.522 35.4468 147.424 34.111C145.326 32.7116 142.91 32.0119 140.177 32.0119C137.443 32.0119 135.027 32.7116 132.93 34.111C130.832 35.4468 129.179 37.3551 127.971 39.8358C126.827 42.2529 126.254 45.0199 126.254 48.1367C126.254 51.3172 126.827 54.1159 127.971 56.5331C129.179 58.9502 130.832 60.8585 132.93 62.2579C135.027 63.6572 137.443 64.3569 140.177 64.3569Z" fill="var(--fill-0, #255608)"/>
<path d="M201.743 74.2799C196.72 74.2799 192.239 73.1667 188.297 70.9404C184.356 68.6505 181.241 65.5337 178.952 61.59C176.663 57.6462 175.519 53.1618 175.519 48.1367C175.519 43.1116 176.663 38.6272 178.952 34.6835C181.241 30.7398 184.356 27.6547 188.297 25.4284C192.239 23.1385 196.72 21.9936 201.743 21.9936C206.701 21.9936 211.151 23.1385 215.093 25.4284C219.034 27.6547 222.117 30.7398 224.343 34.6835C226.631 38.6272 227.775 43.1116 227.775 48.1367C227.775 53.1618 226.631 57.6462 224.343 61.59C222.117 65.5337 219.034 68.6505 215.093 70.9404C211.151 73.1667 206.701 74.2799 201.743 74.2799ZM201.743 63.8799C204.476 63.8799 206.892 63.1802 208.99 61.7808C211.151 60.3814 212.836 58.505 214.044 56.1514C215.315 53.7979 215.919 51.1263 215.856 48.1367C215.919 45.0835 215.315 42.3801 214.044 40.0266C212.836 37.6731 211.151 35.8285 208.99 34.4927C206.892 33.0933 204.476 32.3936 201.743 32.3936C199.009 32.3936 196.53 33.0933 194.305 34.4927C192.143 35.8285 190.458 37.7049 189.251 40.122C188.043 42.4756 187.439 45.1471 187.439 48.1367C187.439 51.1263 188.043 53.7979 189.251 56.1514C190.458 58.505 192.143 60.3814 194.305 61.7808C196.53 63.1802 199.009 63.8799 201.743 63.8799Z" fill="var(--fill-0, #255608)"/>
<path d="M259.818 74.2799C255.114 74.2799 250.886 73.1349 247.135 70.845C243.385 68.5551 240.429 65.4383 238.267 61.4946C236.106 57.5508 235.025 53.0982 235.025 48.1367C235.025 43.1753 236.106 38.7226 238.267 34.7789C240.429 30.8352 243.385 27.7183 247.135 25.4284C250.886 23.1385 255.114 21.9936 259.818 21.9936C264.332 21.9936 268.432 22.8523 272.119 24.5697C275.806 26.2871 278.667 28.6725 280.702 31.7257L274.217 39.5496C273.264 38.2138 272.056 37.0052 270.594 35.9239C269.131 34.8425 267.574 33.9838 265.921 33.3477C264.268 32.7116 262.615 32.3936 260.962 32.3936C258.165 32.3936 255.654 33.0933 253.429 34.4927C251.268 35.8285 249.551 37.7049 248.28 40.122C247.008 42.4756 246.373 45.1471 246.373 48.1367C246.373 51.1263 247.008 53.7979 248.28 56.1514C249.615 58.505 251.395 60.3814 253.62 61.7808C255.845 63.1802 258.324 63.8799 261.058 63.8799C262.711 63.8799 264.3 63.6254 265.826 63.1166C267.415 62.5441 268.909 61.749 270.307 60.7313C271.706 59.7135 273.009 58.4413 274.217 56.9147L280.702 64.834C278.54 67.6328 275.552 69.9227 271.738 71.7037C267.987 73.4212 264.014 74.2799 259.818 74.2799Z" fill="var(--fill-0, #255608)"/>
<path d="M320.091 74.2799C315.259 74.2799 310.841 73.453 306.836 71.7992C302.831 70.1453 299.366 67.7918 296.442 64.7386C293.517 61.6218 291.229 57.9643 289.576 53.7661C287.987 49.5043 287.192 44.8609 287.192 39.8358C287.192 35.0015 288.05 30.5171 289.767 26.3826C291.483 22.248 293.867 18.6223 296.918 15.5055C299.97 12.3886 303.53 9.97152 307.599 8.25408C311.667 6.53665 316.085 5.67793 320.853 5.67793C324.096 5.67793 327.242 6.155 330.294 7.10913C333.345 8.06326 336.142 9.39904 338.685 11.1165C341.228 12.7703 343.358 14.7104 345.074 16.9367L337.16 25.6193C335.507 23.9018 333.79 22.4706 332.01 21.3257C330.294 20.1171 328.482 19.2266 326.575 18.6541C324.731 18.018 322.824 17.7 320.853 17.7C317.929 17.7 315.164 18.2406 312.557 19.322C310.014 20.4033 307.789 21.93 305.882 23.9018C304.039 25.8737 302.576 28.2272 301.496 30.9624C300.415 33.6339 299.875 36.6236 299.875 39.9312C299.875 43.3025 300.383 46.3557 301.4 49.0909C302.481 51.826 303.975 54.1796 305.882 56.1514C307.853 58.1233 310.173 59.6499 312.843 60.7313C315.577 61.749 318.565 62.2579 321.807 62.2579C323.905 62.2579 325.939 61.9716 327.91 61.3991C329.881 60.8267 331.692 60.0316 333.345 59.0138C335.062 57.9325 336.619 56.6921 338.018 55.2927L344.121 65.1203C342.595 66.8377 340.561 68.3961 338.018 69.7955C335.475 71.1949 332.614 72.308 329.436 73.1349C326.321 73.8982 323.206 74.2799 320.091 74.2799Z" fill="var(--fill-0, #255608)"/>
<path d="M378.411 74.2799C373.135 74.2799 368.462 73.1667 364.393 70.9404C360.388 68.7141 357.242 65.6927 354.953 61.8762C352.728 57.9961 351.615 53.5753 351.615 48.6138C351.615 44.6701 352.251 41.0762 353.523 37.8321C354.794 34.5881 356.542 31.7893 358.767 29.4358C361.056 27.0186 363.758 25.174 366.873 23.9018C370.051 22.566 373.516 21.8981 377.267 21.8981C380.573 21.8981 383.656 22.5342 386.517 23.8064C389.377 25.0786 391.857 26.8278 393.955 29.0541C396.052 31.2168 397.642 33.8248 398.722 36.878C399.867 39.8676 400.407 43.1435 400.344 46.7055L400.248 50.8083H359.53L357.337 42.7936H390.426L388.9 44.4156V42.3165C388.71 40.3447 388.074 38.6272 386.993 37.1642C385.913 35.6376 384.514 34.4609 382.798 33.6339C381.145 32.7434 379.301 32.2982 377.267 32.2982C374.152 32.2982 371.513 32.9025 369.352 34.111C367.254 35.3196 365.665 37.0688 364.584 39.3587C363.503 41.585 362.963 44.3838 362.963 47.7551C362.963 50.9991 363.631 53.8297 364.966 56.2468C366.364 58.664 368.303 60.5404 370.782 61.8762C373.325 63.1484 376.281 63.7845 379.651 63.7845C382.003 63.7845 384.164 63.4028 386.135 62.6395C388.106 61.8762 390.236 60.5086 392.524 58.5368L398.341 66.6469C396.625 68.2371 394.654 69.6047 392.429 70.7496C390.267 71.831 387.979 72.6897 385.563 73.3258C383.147 73.9619 380.763 74.2799 378.411 74.2799Z" fill="var(--fill-0, #255608)"/>
<path d="M410.732 73.3258V23.0431H422.175L422.365 33.3477L420.172 34.4927C420.808 32.2028 422.047 30.1355 423.891 28.2908C425.735 26.3826 427.928 24.856 430.471 23.711C433.014 22.566 435.62 21.9936 438.29 21.9936C442.105 21.9936 445.283 22.7569 447.826 24.2835C450.433 25.8101 452.371 28.1 453.643 31.1532C454.978 34.2064 455.645 38.0229 455.645 42.6028V73.3258H443.916V43.4615C443.916 40.9171 443.567 38.8181 442.867 37.1642C442.168 35.4468 441.087 34.2064 439.625 33.4431C438.163 32.6162 436.383 32.2346 434.285 32.2982C432.569 32.2982 430.979 32.5844 429.517 33.1569C428.119 33.6658 426.879 34.4291 425.798 35.4468C424.781 36.4009 423.955 37.5141 423.319 38.7863C422.747 40.0584 422.461 41.4578 422.461 42.9844V73.3258H416.644C415.5 73.3258 414.419 73.3258 413.402 73.3258C412.448 73.3258 411.558 73.3258 410.732 73.3258Z" fill="var(--fill-0, #255608)"/>
<path d="M474.276 73.3258V10.2578H486.005V73.3258H474.276ZM464.359 33.9202V23.0431H496.971V33.9202H464.359Z" fill="var(--fill-0, #255608)"/>
<path d="M505.904 73.3258V23.0431H517.442L517.633 39.0725L516.012 35.4468C516.711 32.9024 517.919 30.6125 519.635 28.5771C521.352 26.5416 523.323 24.9514 525.548 23.8064C527.836 22.5978 530.22 21.9936 532.699 21.9936C533.78 21.9936 534.797 22.089 535.751 22.2798C536.768 22.4706 537.595 22.6933 538.23 22.9477L535.083 35.8285C534.384 35.4468 533.526 35.1288 532.509 34.8743C531.492 34.6199 530.474 34.4927 529.457 34.4927C527.868 34.4927 526.342 34.8107 524.88 35.4468C523.481 36.0193 522.242 36.8462 521.161 37.9275C520.08 39.0089 519.222 40.2811 518.586 41.7441C518.014 43.1435 517.728 44.7337 517.728 46.5147V73.3258H505.904Z" fill="var(--fill-0, #255608)"/>
<path d="M562.874 74.2799C558.742 74.2799 554.991 73.1349 551.622 70.845C548.253 68.5551 545.551 65.4383 543.517 61.4946C541.482 57.5508 540.465 53.0664 540.465 48.0413C540.465 43.0162 541.482 38.5318 543.517 34.5881C545.551 30.6443 548.316 27.5593 551.813 25.333C555.309 23.1067 559.251 21.9936 563.637 21.9936C566.18 21.9936 568.501 22.3752 570.598 23.1385C572.696 23.8382 574.54 24.8559 576.129 26.1917C577.719 27.5275 579.022 29.0541 580.039 30.7716C581.12 32.489 581.851 34.3336 582.232 36.3055L579.657 35.6376V23.0431H591.482V73.3258H579.562V61.3037L582.328 60.8267C581.883 62.5441 581.056 64.2297 579.848 65.8836C578.704 67.4738 577.242 68.905 575.462 70.1771C573.745 71.3857 571.806 72.3716 569.645 73.1349C567.547 73.8982 565.29 74.2799 562.874 74.2799ZM566.117 63.8799C568.85 63.8799 571.266 63.212 573.364 61.8762C575.462 60.5404 577.083 58.6958 578.227 56.3423C579.435 53.9251 580.039 51.1581 580.039 48.0413C580.039 44.9881 579.435 42.2847 578.227 39.9312C577.083 37.5777 575.462 35.733 573.364 34.3973C571.266 33.0615 568.85 32.3936 566.117 32.3936C563.383 32.3936 560.967 33.0615 558.869 34.3973C556.835 35.733 555.246 37.5777 554.101 39.9312C552.957 42.2847 552.385 44.9881 552.385 48.0413C552.385 51.1581 552.957 53.9251 554.101 56.3423C555.246 58.6958 556.835 60.5404 558.869 61.8762C560.967 63.212 563.383 63.8799 566.117 63.8799Z" fill="var(--fill-0, #255608)"/>
<path d="M605.176 73.3258V2.72013H617V73.3258H605.176Z" fill="var(--fill-0, #255608)"/>
</g>
</svg>
