<svg preserveAspectRatio="xMidYMid meet" width="80" height="76.6667" overflow="visible" style="display: block;" viewBox="0 0 80 76.6667" fill="none" xmlns="http://www.w3.org/2000/svg">
<g id="Group">
<g id="Group_2">
<path id="Vector" opacity="0.99" fill-rule="evenodd" clip-rule="evenodd" d="M65.2655 76.666C65.2655 37.9513 37.7707 2.38176 3.62679 0.00821612C1.67068 -0.125977 0 1.40047 0 3.35466V73.3112C0 75.1647 1.50277 76.666 3.35814 76.666H65.2655Z" fill="var(--fill-0, #CBFF8D)"/>
<path id="Vector_2" fill-rule="evenodd" clip-rule="evenodd" d="M55.9389 38.2283C61.8576 49.7773 65.2661 63.0205 65.2661 76.6662H76.6418C78.4972 76.6662 80 75.165 80 73.3114V32.0974C80 30.1096 78.2789 28.5328 76.2976 28.7509C68.7502 29.6064 61.7653 33.0535 55.9305 38.2367L55.9389 38.2283Z" fill="var(--fill-0, #2F7004)"/>
<path id="Vector_3" fill-rule="evenodd" clip-rule="evenodd" d="M65.2655 76.6667C65.2655 63.0209 61.8486 49.7777 55.9382 38.2287C45.7547 47.2616 39.0972 61.5783 39.0972 76.6667H65.2739H65.2655Z" fill="var(--fill-0, #63EC00)"/>
</g>
<path id="Vector_4" d="M63.1331 7.73325L64.4931 8.4797C64.6694 8.57195 64.6694 8.82357 64.4931 8.91582L63.1247 9.66227C60.4969 11.0965 58.3309 13.2519 56.8869 15.8771L56.1397 17.2358C56.0474 17.4119 55.7955 17.4119 55.7032 17.2358L54.956 15.8687C53.5204 13.2436 51.3628 11.0797 48.735 9.63711L47.375 8.89066C47.1987 8.79841 47.1987 8.54679 47.375 8.45454L48.7434 7.70809C51.3712 6.2739 53.5372 4.11842 54.9812 1.49327L55.7284 0.134563C55.8207 -0.0415653 56.0726 -0.0415653 56.1649 0.134563L56.9121 1.50166C58.3477 4.12681 60.5053 6.29067 63.1331 7.73325Z" fill="var(--fill-0, #63EC00)"/>
</g>
</svg>
