<svg preserveAspectRatio="xMidYMid meet" width="669.318" height="76.3069" overflow="visible" style="display: block;" viewBox="0 0 669.318 76.3069" fill="none" xmlns="http://www.w3.org/2000/svg">
<g id="Vector">
<path d="M36.1089 0.833988C36.3563 0.15443 37.161 -0.176523 37.9065 0.0947998L54.1032 5.98993C54.8487 6.26125 55.2524 7.03208 55.0051 7.71164L36.1955 59.3905L17.2993 52.5129L36.1089 0.833988Z" fill="var(--fill-0, #3F78C7)"/>
<path d="M36.1955 59.3905L17.2993 52.5129C16.9639 53.4345 17.1074 53.0513 16.8674 53.7107L9.47573 74.0192C9.22862 74.6981 9.63153 75.4745 10.3984 75.6736C19.4881 78.0308 31.5059 72.2751 36.1955 59.3905Z" fill="#A5CDEB"/>
<path d="M59.7708 42.8812L60.4082 43.5833C60.4918 43.6718 60.4409 43.8118 60.32 43.8258L59.3755 43.9523C57.5616 44.1954 55.8695 44.9371 54.5009 46.0924L53.7927 46.6904C53.7035 46.7689 53.5575 46.7158 53.5396 46.5983L53.3831 45.6803C53.0822 43.9173 52.2693 42.2585 51.0378 40.9018L50.4004 40.1996C50.3169 40.1111 50.3678 39.9712 50.4887 39.957L51.4332 39.8307C53.247 39.5875 54.9391 38.8458 56.3077 37.6905L57.016 37.0925C57.1051 37.014 57.2512 37.0672 57.269 37.1846L57.4255 38.1026C57.7265 39.8656 58.5393 41.5243 59.7708 42.8812Z" fill="#61F3F3"/>
<path d="M9.02798 49.1406L9.63256 49.8307C9.71187 49.9177 9.66092 50.0577 9.54429 50.0733L8.63285 50.2117C6.88249 50.478 5.2427 51.2387 3.90902 52.4067L3.21882 53.0113C3.13185 53.0906 2.99191 53.0397 2.97626 52.923L2.83785 52.0116C2.57161 50.2612 1.81084 48.6214 0.642829 47.2877L0.038263 46.5976C-0.0410117 46.5106 0.00991768 46.3707 0.126555 46.355L1.03798 46.2166C2.78832 45.9503 4.42812 45.1895 5.76183 44.0215L6.45202 43.417C6.53897 43.3377 6.67891 43.3887 6.69459 43.5052L6.83298 44.4167C7.09925 46.167 7.86001 47.8068 9.02798 49.1406Z" fill="#A5CDEB"/>
<path d="M129.2 76.3069C124.766 76.3069 120.776 75.1986 117.23 72.9819C113.746 70.7019 110.96 67.6303 108.87 63.7669C106.843 59.8403 105.83 55.3436 105.83 50.2769C105.83 45.2736 106.843 40.8086 108.87 36.8819C110.896 32.9553 113.651 29.8836 117.135 27.6669C120.681 25.3869 124.671 24.2469 129.105 24.2469C131.511 24.2469 133.823 24.6269 136.04 25.3869C138.32 26.1469 140.346 27.1919 142.12 28.5219C143.893 29.7886 145.286 31.2136 146.3 32.7969C147.376 34.3803 147.978 36.0269 148.105 37.7369L144.97 38.1169V5.05692H156.655V75.3569H145.35L145.065 63.5769L147.345 63.7669C147.281 65.3503 146.711 66.8703 145.635 68.3269C144.621 69.7836 143.291 71.1136 141.645 72.3169C139.998 73.5202 138.066 74.5019 135.85 75.2619C133.696 75.9586 131.48 76.3069 129.2 76.3069ZM131.48 66.4269C134.203 66.4269 136.61 65.7302 138.7 64.3369C140.79 62.9436 142.405 61.0436 143.545 58.6369C144.748 56.2303 145.35 53.4436 145.35 50.2769C145.35 47.1736 144.748 44.4186 143.545 42.0119C142.405 39.5419 140.79 37.6419 138.7 36.3119C136.61 34.9186 134.203 34.2219 131.48 34.2219C128.756 34.2219 126.35 34.9186 124.26 36.3119C122.17 37.6419 120.523 39.5419 119.32 42.0119C118.18 44.4186 117.61 47.1736 117.61 50.2769C117.61 53.4436 118.18 56.2303 119.32 58.6369C120.523 61.0436 122.17 62.9436 124.26 64.3369C126.35 65.7302 128.756 66.4269 131.48 66.4269Z" fill="var(--fill-0, #3F78C7)"/>
<path d="M169.919 75.3569V25.2919H181.414L181.604 41.2519L179.989 37.6419C180.686 35.1086 181.889 32.8286 183.599 30.8019C185.309 28.7752 187.272 27.1919 189.489 26.0519C191.769 24.8486 194.144 24.2469 196.614 24.2469C197.691 24.2469 198.704 24.3419 199.654 24.5319C200.667 24.7219 201.491 24.9436 202.124 25.1969L198.989 38.0219C198.292 37.6419 197.437 37.3253 196.424 37.0719C195.411 36.8186 194.397 36.6919 193.384 36.6919C191.801 36.6919 190.281 37.0086 188.824 37.6419C187.431 38.2119 186.196 39.0353 185.119 40.1119C184.042 41.1886 183.187 42.4553 182.554 43.9119C181.984 45.3053 181.699 46.8886 181.699 48.6619V75.3569H169.919Z" fill="var(--fill-0, #3F78C7)"/>
<path d="M226.676 76.3069C222.559 76.3069 218.822 75.1669 215.466 72.8869C212.109 70.6069 209.417 67.5036 207.391 63.5769C205.364 59.6503 204.351 55.1853 204.351 50.1819C204.351 45.1786 205.364 40.7136 207.391 36.7869C209.417 32.8603 212.172 29.7886 215.656 27.5719C219.139 25.3552 223.066 24.2469 227.436 24.2469C229.969 24.2469 232.281 24.6269 234.371 25.3869C236.461 26.0836 238.297 27.0969 239.881 28.4269C241.464 29.7569 242.762 31.2769 243.776 32.9869C244.852 34.6969 245.581 36.5336 245.961 38.4969L243.396 37.8319V25.2919H255.176V75.3569H243.301V63.3869L246.056 62.9119C245.612 64.6219 244.789 66.3002 243.586 67.9469C242.446 69.5303 240.989 70.9552 239.216 72.2219C237.506 73.4252 235.574 74.4069 233.421 75.1669C231.331 75.9269 229.082 76.3069 226.676 76.3069ZM229.906 65.9519C232.629 65.9519 235.036 65.2869 237.126 63.9569C239.216 62.6269 240.831 60.7903 241.971 58.4469C243.174 56.0403 243.776 53.2853 243.776 50.1819C243.776 47.1419 243.174 44.4503 241.971 42.1069C240.831 39.7636 239.216 37.9269 237.126 36.5969C235.036 35.2669 232.629 34.6019 229.906 34.6019C227.182 34.6019 224.776 35.2669 222.686 36.5969C220.659 37.9269 219.076 39.7636 217.936 42.1069C216.796 44.4503 216.226 47.1419 216.226 50.1819C216.226 53.2853 216.796 56.0403 217.936 58.4469C219.076 60.7903 220.659 62.6269 222.686 63.9569C224.776 65.2869 227.182 65.9519 229.906 65.9519Z" fill="var(--fill-0, #3F78C7)"/>
<path d="M273.283 75.3569V20.8269C273.283 17.7869 273.948 15.0952 275.278 12.7519C276.608 10.3453 278.444 8.47692 280.788 7.14691C283.131 5.75358 285.854 5.05692 288.958 5.05692C291.111 5.05692 293.106 5.43692 294.943 6.19692C296.779 6.89358 298.331 7.87525 299.598 9.14192L295.988 17.9769C295.164 17.2803 294.278 16.7419 293.328 16.3619C292.441 15.9819 291.586 15.7919 290.763 15.7919C289.496 15.7919 288.419 16.0136 287.533 16.4569C286.709 16.8369 286.076 17.4386 285.633 18.2619C285.253 19.0853 285.063 20.0669 285.063 21.2069V75.3569H279.173C278.033 75.3569 276.956 75.3569 275.943 75.3569C274.993 75.3569 274.106 75.3569 273.283 75.3569ZM265.493 36.5969V26.3369H296.368V36.5969H265.493Z" fill="var(--fill-0, #3F78C7)"/>
<path d="M311.711 75.3569V12.5619H323.396V75.3569H311.711ZM301.831 36.1219V25.2919H334.321V36.1219H301.831Z" fill="var(--fill-0, #3F78C7)"/>
<path d="M373.525 76.3069C368.711 76.3069 364.31 75.4836 360.32 73.8369C356.33 72.1902 352.878 69.8469 349.965 66.8069C347.051 63.7036 344.771 60.0619 343.125 55.8819C341.541 51.6386 340.75 47.0153 340.75 42.0119C340.75 37.1986 341.605 32.7336 343.315 28.6169C345.025 24.5002 347.4 20.8903 350.44 17.7869C353.48 14.6836 357.026 12.2769 361.08 10.5669C365.133 8.85691 369.535 8.00191 374.285 8.00191C377.515 8.00191 380.65 8.47692 383.69 9.42692C386.73 10.3769 389.516 11.7069 392.05 13.4169C394.583 15.0636 396.705 16.9952 398.415 19.2119L390.53 27.8569C388.883 26.1469 387.173 24.7219 385.4 23.5819C383.69 22.3786 381.885 21.4919 379.985 20.9219C378.148 20.2886 376.248 19.9719 374.285 19.9719C371.371 19.9719 368.616 20.5103 366.02 21.5869C363.486 22.6636 361.27 24.1836 359.37 26.1469C357.533 28.1103 356.076 30.4536 355 33.1769C353.923 35.8369 353.385 38.8136 353.385 42.1069C353.385 45.4636 353.891 48.5036 354.905 51.2269C355.981 53.9503 357.47 56.2936 359.37 58.2569C361.333 60.2203 363.645 61.7403 366.305 62.8169C369.028 63.8303 372.005 64.3369 375.235 64.3369C377.325 64.3369 379.351 64.0519 381.315 63.4819C383.278 62.9119 385.083 62.1203 386.73 61.1069C388.44 60.0303 389.991 58.7953 391.385 57.4019L397.465 67.1869C395.945 68.8969 393.918 70.4486 391.385 71.8419C388.851 73.2353 386.001 74.3436 382.835 75.1669C379.731 75.9269 376.628 76.3069 373.525 76.3069Z" fill="var(--fill-0, #3F78C7)"/>
<path d="M431.626 76.3069C426.37 76.3069 421.715 75.1986 417.661 72.9819C413.671 70.7653 410.536 67.7569 408.256 63.9569C406.04 60.0936 404.931 55.6919 404.931 50.7519C404.931 46.8253 405.565 43.2469 406.831 40.0169C408.098 36.7869 409.84 34.0003 412.056 31.6569C414.336 29.2503 417.028 27.4136 420.131 26.1469C423.298 24.8169 426.75 24.1519 430.486 24.1519C433.78 24.1519 436.851 24.7852 439.701 26.0519C442.551 27.3186 445.021 29.0603 447.111 31.2769C449.201 33.4303 450.785 36.0269 451.861 39.0669C453.001 42.0436 453.54 45.3053 453.476 48.8519L453.381 52.9369H412.816L410.631 44.9569H443.596L442.076 46.5719V44.4819C441.886 42.5186 441.253 40.8086 440.176 39.3519C439.1 37.8319 437.706 36.6602 435.996 35.8369C434.35 34.9503 432.513 34.5069 430.486 34.5069C427.383 34.5069 424.755 35.1086 422.601 36.3119C420.511 37.5152 418.928 39.2569 417.851 41.5369C416.775 43.7536 416.236 46.5403 416.236 49.8969C416.236 53.1269 416.901 55.9453 418.231 58.3519C419.625 60.7586 421.556 62.6269 424.026 63.9569C426.56 65.2236 429.505 65.8569 432.861 65.8569C435.204 65.8569 437.358 65.4769 439.321 64.7169C441.285 63.9569 443.406 62.5953 445.686 60.6319L451.481 68.7069C449.771 70.2903 447.808 71.6519 445.591 72.7919C443.438 73.8686 441.158 74.7236 438.751 75.3569C436.345 75.9902 433.97 76.3069 431.626 76.3069Z" fill="var(--fill-0, #3F78C7)"/>
<path d="M463.825 75.3569V25.2919H475.225L475.415 35.5519L473.23 36.6919C473.864 34.4119 475.099 32.3536 476.935 30.5169C478.772 28.6169 480.957 27.0969 483.49 25.9569C486.024 24.8169 488.62 24.2469 491.28 24.2469C495.08 24.2469 498.247 25.0069 500.78 26.5269C503.377 28.0469 505.309 30.3269 506.575 33.3669C507.905 36.4069 508.57 40.2069 508.57 44.7669V75.3569H496.885V45.6219C496.885 43.0886 496.537 40.9986 495.84 39.3519C495.144 37.6419 494.067 36.4069 492.61 35.6469C491.154 34.8236 489.38 34.4436 487.29 34.5069C485.58 34.5069 483.997 34.7919 482.54 35.3619C481.147 35.8686 479.912 36.6286 478.835 37.6419C477.822 38.5919 476.999 39.7003 476.365 40.9669C475.795 42.2336 475.51 43.6269 475.51 45.1469V75.3569H469.715C468.575 75.3569 467.499 75.3569 466.485 75.3569C465.535 75.3569 464.649 75.3569 463.825 75.3569Z" fill="var(--fill-0, #3F78C7)"/>
<path d="M527.131 75.3569V12.5619H538.816V75.3569H527.131ZM517.251 36.1219V25.2919H549.741V36.1219H517.251Z" fill="var(--fill-0, #3F78C7)"/>
<path d="M558.64 75.3569V25.2919H570.135L570.325 41.2519L568.71 37.6419C569.406 35.1086 570.61 32.8286 572.32 30.8019C574.03 28.7752 575.993 27.1919 578.21 26.0519C580.49 24.8486 582.865 24.2469 585.335 24.2469C586.411 24.2469 587.425 24.3419 588.375 24.5319C589.388 24.7219 590.211 24.9436 590.845 25.1969L587.71 38.0219C587.013 37.6419 586.158 37.3253 585.145 37.0719C584.131 36.8186 583.118 36.6919 582.105 36.6919C580.521 36.6919 579.001 37.0086 577.545 37.6419C576.151 38.2119 574.916 39.0353 573.84 40.1119C572.763 41.1886 571.908 42.4553 571.275 43.9119C570.705 45.3053 570.42 46.8886 570.42 48.6619V75.3569H558.64Z" fill="var(--fill-0, #3F78C7)"/>
<path d="M615.396 76.3069C611.28 76.3069 607.543 75.1669 604.186 72.8869C600.83 70.6069 598.138 67.5036 596.111 63.5769C594.085 59.6503 593.071 55.1853 593.071 50.1819C593.071 45.1786 594.085 40.7136 596.111 36.7869C598.138 32.8603 600.893 29.7886 604.376 27.5719C607.86 25.3552 611.786 24.2469 616.156 24.2469C618.69 24.2469 621.001 24.6269 623.091 25.3869C625.181 26.0836 627.018 27.0969 628.601 28.4269C630.185 29.7569 631.483 31.2769 632.496 32.9869C633.573 34.6969 634.301 36.5336 634.681 38.4969L632.116 37.8319V25.2919H643.896V75.3569H632.021V63.3869L634.776 62.9119C634.333 64.6219 633.51 66.3002 632.306 67.9469C631.166 69.5303 629.71 70.9552 627.936 72.2219C626.226 73.4252 624.295 74.4069 622.141 75.1669C620.051 75.9269 617.803 76.3069 615.396 76.3069ZM618.626 65.9519C621.35 65.9519 623.756 65.2869 625.846 63.9569C627.936 62.6269 629.551 60.7903 630.691 58.4469C631.895 56.0403 632.496 53.2853 632.496 50.1819C632.496 47.1419 631.895 44.4503 630.691 42.1069C629.551 39.7636 627.936 37.9269 625.846 36.5969C623.756 35.2669 621.35 34.6019 618.626 34.6019C615.903 34.6019 613.496 35.2669 611.406 36.5969C609.38 37.9269 607.796 39.7636 606.656 42.1069C605.516 44.4503 604.946 47.1419 604.946 50.1819C604.946 53.2853 605.516 56.0403 606.656 58.4469C607.796 60.7903 609.38 62.6269 611.406 63.9569C613.496 65.2869 615.903 65.9519 618.626 65.9519Z" fill="var(--fill-0, #3F78C7)"/>
<path d="M657.538 75.3569V5.05692H669.318V75.3569H657.538Z" fill="var(--fill-0, #3F78C7)"/>
</g>
</svg>
