<svg preserveAspectRatio="xMidYMid meet" width="55.8581" height="80.4356" overflow="visible" style="display: block;" viewBox="0 0 55.8581 80.4356" fill="none" xmlns="http://www.w3.org/2000/svg">
<g id="Group 1000004227">
<path id="Vector" d="M18.3214 1.30942C18.3214 0.58625 18.9645 3.99139e-06 19.7578 3.99139e-06H36.994C37.7873 3.99139e-06 38.4303 0.58625 38.4303 1.30942V56.3049H18.3214V1.30942Z" fill="var(--fill-0, #3F78C7)"/>
<path id="Vector_2" d="M38.4303 56.3049H18.3214C18.3214 57.2857 18.3252 56.8765 18.3252 57.5783V79.1901C18.3252 79.9126 18.9694 80.5043 19.7582 80.4292C29.1059 79.5353 38.4303 70.0164 38.4303 56.3049Z" fill="var(--fill-0, #A5CDEB)"/>
<path id="Vector_3" d="M54.9373 32.728L55.7765 33.1698C55.8853 33.2244 55.8853 33.3733 55.7765 33.4279L54.9322 33.8697C53.3109 34.7186 51.9745 35.9943 51.0836 37.548L50.6226 38.3522C50.5656 38.4564 50.4102 38.4564 50.3532 38.3522L49.8922 37.543C49.0065 35.9893 47.6753 34.7086 46.054 33.8548L45.2149 33.413C45.1061 33.3584 45.1061 33.2095 45.2149 33.1549L46.0592 32.7131C47.6805 31.8643 49.0168 30.5885 49.9078 29.0348L50.3688 28.2306C50.4257 28.1264 50.5812 28.1264 50.6381 28.2306L51.0991 29.0398C51.9849 30.5935 53.3161 31.8742 54.9373 32.728Z" fill="var(--fill-0, #61F3F3)"/>
<path id="Vector_4" d="M9.39551 55.965L10.1997 56.4068C10.3039 56.4613 10.3039 56.6103 10.1997 56.6648L9.39058 57.1067C7.83683 57.9555 6.55613 59.2312 5.70235 60.7849L5.26056 61.5891C5.20595 61.6934 5.05703 61.6934 5.00243 61.5891L4.56064 60.78C3.7118 59.2263 2.43606 57.9456 0.882346 57.0918L0.0781856 56.65C-0.0260572 56.5954 -0.0260572 56.4465 0.0781856 56.3919L0.88731 55.9501C2.44103 55.1012 3.72173 53.8255 4.57553 52.2718L5.01732 51.4676C5.07192 51.3634 5.22084 51.3634 5.27545 51.4676L5.71724 52.2768C6.5661 53.8304 7.84182 55.1112 9.39551 55.965Z" fill="var(--fill-0, #A5CDEB)"/>
</g>
</svg>
