<svg preserveAspectRatio="xMidYMid meet" width="655.334" height="80" overflow="visible" style="display: block;" viewBox="0 0 655.334 80" fill="none" xmlns="http://www.w3.org/2000/svg">
<g id="Vector">
<path fill-rule="evenodd" clip-rule="evenodd" d="M0.123848 49.7744C0.123848 49.9527 0.267952 50.0976 0.446278 50.0976C11.4104 50.0976 21.6439 47.3355 30.3031 42.5563C33.1137 47.5408 34.7175 53.2966 34.7175 59.4269C34.7175 59.5343 34.6301 59.6211 34.5227 59.6211H0.000156403L0.123718 25.2261L0.123848 25.2177V49.7744Z" fill="var(--fill-0, #009688)"/>
<path fill-rule="evenodd" clip-rule="evenodd" d="M5.91278e-05 49.7758C5.91278e-05 49.9541 0.144171 50.0989 0.322363 50.0989C11.2858 50.0989 21.5185 47.3372 30.1774 42.5586C24.2772 32.0991 13.0619 25.0365 0.196941 25.0365C0.0935001 25.0365 0.0088768 25.1159 5.91278e-05 25.2172V49.7758Z" fill="#37D2DC"/>
<path fill-rule="evenodd" clip-rule="evenodd" d="M0.111248 25.2059C0.12191 25.1072 0.205212 25.0301 0.306812 25.0301C13.1715 25.0301 24.3868 32.0925 30.2871 42.5517C46.2339 33.7512 56.842 18.1099 56.842 0.280843C56.842 0.125419 56.7157 0 56.5603 0H3.51335C1.63443 0 0.111248 1.52306 0.111248 3.4021V25.2059Z" fill="#BDEFF5"/>
<path d="M0 0.486109C0 0.217653 0.217626 2.59596e-05 0.486082 2.59596e-05H10.0402C10.3087 2.59596e-05 10.5263 0.217652 10.5263 0.486108V79.5139C10.5263 79.7824 10.3087 80 10.0402 80H0.486083C0.217627 80 0 79.7824 0 79.5139V0.486109Z" fill="#E4E4E4"/>
<path d="M643.554 74.675V4.375H655.334V74.675H643.554Z" fill="var(--fill-0, #009688)"/>
<path d="M601.411 75.625C597.295 75.625 593.558 74.485 590.201 72.205C586.845 69.925 584.153 66.8217 582.126 62.895C580.1 58.9683 579.086 54.5033 579.086 49.5C579.086 44.4967 580.1 40.0317 582.126 36.105C584.153 32.1783 586.908 29.1067 590.391 26.89C593.875 24.6733 597.802 23.565 602.172 23.565C604.705 23.565 607.017 23.945 609.107 24.705C611.197 25.4017 613.033 26.415 614.617 27.745C616.2 29.075 617.498 30.595 618.512 32.305C619.588 34.015 620.317 35.8517 620.697 37.815L618.132 37.15V24.61H629.911V74.675H618.036V62.705L620.792 62.23C620.348 63.94 619.525 65.6183 618.322 67.265C617.182 68.8483 615.725 70.2733 613.951 71.54C612.241 72.7433 610.31 73.725 608.156 74.485C606.066 75.245 603.818 75.625 601.411 75.625ZM604.641 65.27C607.365 65.27 609.772 64.605 611.862 63.275C613.952 61.945 615.566 60.1083 616.706 57.765C617.91 55.3583 618.512 52.6033 618.512 49.5C618.512 46.46 617.91 43.7683 616.706 41.425C615.566 39.0817 613.952 37.245 611.862 35.915C609.772 34.585 607.365 33.92 604.641 33.92C601.918 33.92 599.512 34.585 597.422 35.915C595.395 37.245 593.812 39.0817 592.672 41.425C591.532 43.7683 590.961 46.46 590.961 49.5C590.961 52.6033 591.532 55.3583 592.672 57.765C593.812 60.1083 595.395 61.945 597.422 63.275C599.512 64.605 601.918 65.27 604.641 65.27Z" fill="var(--fill-0, #009688)"/>
<path d="M544.655 74.675V24.61H556.15L556.34 40.57L554.725 36.96C555.422 34.4267 556.625 32.1467 558.335 30.12C560.045 28.0933 562.008 26.51 564.225 25.37C566.505 24.1667 568.88 23.565 571.35 23.565C572.427 23.565 573.44 23.66 574.39 23.85C575.403 24.04 576.227 24.2617 576.86 24.515L573.725 37.34C573.028 36.96 572.173 36.6433 571.16 36.39C570.147 36.1367 569.133 36.01 568.12 36.01C566.537 36.01 565.017 36.3267 563.56 36.96C562.167 37.53 560.932 38.3533 559.855 39.43C558.778 40.5067 557.923 41.7733 557.29 43.23C556.72 44.6233 556.435 46.2067 556.435 47.98V74.675H544.655Z" fill="var(--fill-0, #009688)"/>
<path d="M513.146 74.675V11.88H524.831V74.675H513.146ZM503.266 35.44V24.61H535.756V35.44H503.266Z" fill="var(--fill-0, #009688)"/>
<path d="M449.84 74.675V24.61H461.24L461.43 34.87L459.245 36.01C459.879 33.73 461.114 31.6717 462.95 29.835C464.787 27.935 466.972 26.415 469.505 25.275C472.039 24.135 474.635 23.565 477.295 23.565C481.095 23.565 484.262 24.325 486.795 25.845C489.392 27.365 491.324 29.645 492.59 32.685C493.92 35.725 494.585 39.525 494.585 44.085V74.675H482.9V44.94C482.9 42.4067 482.552 40.3167 481.855 38.67C481.159 36.96 480.082 35.725 478.625 34.965C477.169 34.1417 475.395 33.7617 473.305 33.825C471.595 33.825 470.012 34.11 468.555 34.68C467.162 35.1867 465.927 35.9467 464.85 36.96C463.837 37.91 463.014 39.0183 462.38 40.285C461.81 41.5517 461.525 42.945 461.525 44.465V74.675H455.73C454.59 74.675 453.514 74.675 452.5 74.675C451.55 74.675 450.664 74.675 449.84 74.675Z" fill="var(--fill-0, #009688)"/>
<path d="M417.641 75.625C412.385 75.625 407.73 74.5167 403.676 72.3C399.686 70.0833 396.551 67.075 394.271 63.275C392.055 59.4117 390.946 55.01 390.946 50.07C390.946 46.1433 391.58 42.565 392.846 39.335C394.113 36.105 395.855 33.3183 398.071 30.975C400.351 28.5683 403.043 26.7317 406.146 25.465C409.313 24.135 412.765 23.47 416.501 23.47C419.795 23.47 422.866 24.1033 425.716 25.37C428.566 26.6367 431.036 28.3783 433.126 30.595C435.216 32.7483 436.8 35.345 437.876 38.385C439.016 41.3617 439.555 44.6233 439.491 48.17L439.396 52.255H398.831L396.646 44.275H429.611L428.091 45.89V43.8C427.901 41.8367 427.268 40.1267 426.191 38.67C425.115 37.15 423.721 35.9783 422.011 35.155C420.365 34.2683 418.528 33.825 416.501 33.825C413.398 33.825 410.77 34.4267 408.616 35.63C406.526 36.8333 404.943 38.575 403.866 40.855C402.79 43.0717 402.251 45.8583 402.251 49.215C402.251 52.445 402.916 55.2633 404.246 57.67C405.64 60.0767 407.571 61.945 410.041 63.275C412.575 64.5417 415.52 65.175 418.876 65.175C421.22 65.175 423.373 64.795 425.336 64.035C427.3 63.275 429.421 61.9133 431.701 59.95L437.496 68.025C435.786 69.6083 433.823 70.97 431.606 72.11C429.453 73.1867 427.173 74.0417 424.766 74.675C422.36 75.3083 419.985 75.625 417.641 75.625Z" fill="var(--fill-0, #009688)"/>
<path d="M359.54 75.625C354.727 75.625 350.325 74.8017 346.335 73.155C342.345 71.5083 338.893 69.165 335.98 66.125C333.067 63.0217 330.787 59.38 329.14 55.2C327.557 50.9567 326.765 46.3333 326.765 41.33C326.765 36.5167 327.62 32.0517 329.33 27.935C331.04 23.8183 333.415 20.2083 336.455 17.105C339.495 14.0017 343.042 11.595 347.095 9.88499C351.148 8.17499 355.55 7.31999 360.3 7.31999C363.53 7.31999 366.665 7.795 369.705 8.745C372.745 9.695 375.532 11.025 378.065 12.735C380.598 14.3817 382.72 16.3133 384.43 18.53L376.545 27.175C374.898 25.465 373.188 24.04 371.415 22.9C369.705 21.6967 367.9 20.81 366 20.24C364.163 19.6067 362.263 19.29 360.3 19.29C357.387 19.29 354.632 19.8283 352.035 20.905C349.502 21.9817 347.285 23.5017 345.385 25.465C343.548 27.4283 342.092 29.7717 341.015 32.495C339.938 35.155 339.4 38.1317 339.4 41.425C339.4 44.7817 339.907 47.8217 340.92 50.545C341.997 53.2683 343.485 55.6117 345.385 57.575C347.348 59.5383 349.66 61.0583 352.32 62.135C355.043 63.1483 358.02 63.655 361.25 63.655C363.34 63.655 365.367 63.37 367.33 62.8C369.293 62.23 371.098 61.4383 372.745 60.425C374.455 59.3483 376.007 58.1133 377.4 56.72L383.48 66.505C381.96 68.215 379.933 69.7667 377.4 71.16C374.867 72.5533 372.017 73.6617 368.85 74.485C365.747 75.245 362.643 75.625 359.54 75.625Z" fill="var(--fill-0, #009688)"/>
<path d="M240.168 74.675V24.61H251.663L251.853 34.68L249.953 35.44C250.523 33.7933 251.378 32.2733 252.518 30.88C253.658 29.4233 255.02 28.1883 256.603 27.175C258.186 26.0983 259.865 25.275 261.638 24.705C263.411 24.0717 265.216 23.755 267.053 23.755C269.776 23.755 272.183 24.1983 274.273 25.085C276.426 25.9083 278.2 27.2383 279.593 29.075C281.05 30.9117 282.126 33.255 282.823 36.105L281.018 35.725L281.778 34.205C282.475 32.685 283.456 31.3233 284.723 30.12C285.99 28.8533 287.415 27.745 288.998 26.795C290.581 25.7817 292.228 25.0217 293.938 24.515C295.711 24.0083 297.453 23.755 299.163 23.755C302.963 23.755 306.13 24.515 308.663 26.035C311.196 27.555 313.096 29.8667 314.363 32.97C315.63 36.0733 316.263 39.905 316.263 44.465V74.675H304.483V45.225C304.483 42.6917 304.135 40.6017 303.438 38.955C302.805 37.3083 301.791 36.105 300.398 35.345C299.068 34.5217 297.39 34.11 295.363 34.11C293.78 34.11 292.26 34.395 290.803 34.965C289.41 35.4717 288.206 36.2317 287.193 37.245C286.18 38.195 285.388 39.3033 284.818 40.57C284.248 41.8367 283.963 43.23 283.963 44.75V74.675H272.183V45.13C272.183 42.7233 271.835 40.7283 271.138 39.145C270.441 37.4983 269.428 36.2633 268.098 35.44C266.768 34.5533 265.153 34.11 263.253 34.11C261.67 34.11 260.181 34.395 258.788 34.965C257.395 35.4717 256.191 36.2 255.178 37.15C254.165 38.1 253.373 39.2083 252.803 40.475C252.233 41.7417 251.948 43.135 251.948 44.655V74.675H240.168Z" fill="var(--fill-0, #009688)"/>
<path d="M200.373 74.675V24.61H211.868L212.058 40.57L210.443 36.96C211.139 34.4267 212.343 32.1467 214.053 30.12C215.763 28.0933 217.726 26.51 219.943 25.37C222.223 24.1667 224.598 23.565 227.068 23.565C228.144 23.565 229.158 23.66 230.108 23.85C231.121 24.04 231.944 24.2617 232.578 24.515L229.443 37.34C228.746 36.96 227.891 36.6433 226.878 36.39C225.864 36.1367 224.851 36.01 223.838 36.01C222.254 36.01 220.734 36.3267 219.278 36.96C217.884 37.53 216.649 38.3533 215.573 39.43C214.496 40.5067 213.641 41.7733 213.008 43.23C212.438 44.6233 212.153 46.2067 212.153 47.98V74.675H200.373Z" fill="var(--fill-0, #009688)"/>
<path d="M163.985 75.625C158.982 75.625 154.517 74.5167 150.59 72.3C146.664 70.02 143.56 66.9167 141.28 62.99C139 59.0633 137.86 54.5983 137.86 49.595C137.86 44.5917 139 40.1267 141.28 36.2C143.56 32.2733 146.664 29.2017 150.59 26.985C154.517 24.705 158.982 23.565 163.985 23.565C168.925 23.565 173.359 24.705 177.285 26.985C181.212 29.2017 184.284 32.2733 186.5 36.2C188.78 40.1267 189.92 44.5917 189.92 49.595C189.92 54.5983 188.78 59.0633 186.5 62.99C184.284 66.9167 181.212 70.02 177.285 72.3C173.359 74.5167 168.925 75.625 163.985 75.625ZM163.985 65.27C166.709 65.27 169.115 64.5733 171.205 63.18C173.359 61.7867 175.037 59.9183 176.24 57.575C177.507 55.2317 178.109 52.5717 178.045 49.595C178.109 46.555 177.507 43.8633 176.24 41.52C175.037 39.1767 173.359 37.34 171.205 36.01C169.115 34.6167 166.709 33.92 163.985 33.92C161.262 33.92 158.792 34.6167 156.575 36.01C154.422 37.34 152.744 39.2083 151.54 41.615C150.337 43.9583 149.735 46.6183 149.735 49.595C149.735 52.5717 150.337 55.2317 151.54 57.575C152.744 59.9183 154.422 61.7867 156.575 63.18C158.792 64.5733 161.262 65.27 163.985 65.27Z" fill="var(--fill-0, #009688)"/>
<path d="M110.211 74.675V20.145C110.211 17.105 110.876 14.4133 112.206 12.07C113.536 9.66333 115.373 7.795 117.716 6.46499C120.059 5.07166 122.783 4.375 125.886 4.375C128.039 4.375 130.034 4.755 131.871 5.515C133.708 6.21166 135.259 7.19333 136.526 8.46L132.916 17.295C132.093 16.5983 131.206 16.06 130.256 15.68C129.369 15.3 128.514 15.11 127.691 15.11C126.424 15.11 125.348 15.3317 124.461 15.775C123.638 16.155 123.004 16.7567 122.561 17.58C122.181 18.4033 121.991 19.385 121.991 20.525V74.675H116.101C114.961 74.675 113.884 74.675 112.871 74.675C111.921 74.675 111.034 74.675 110.211 74.675ZM102.421 35.915V25.655H133.296V35.915H102.421Z" fill="var(--fill-0, #009688)"/>
</g>
</svg>
