<svg preserveAspectRatio="xMidYMid meet" width="609.206" height="92.15" overflow="visible" style="display: block;" viewBox="0 0 609.206 92.15" fill="none" xmlns="http://www.w3.org/2000/svg">
<g id="Vector">
<path fill-rule="evenodd" clip-rule="evenodd" d="M0 46.0758C0 46.0758 0 46.0758 1.62089 46.1008C22.4564 46.9202 39.1703 63.7406 39.9897 84.5761C39.9897 86.075 39.9897 86.075 39.9897 86.075L1.59917 86.0553C0.71599 86.0553 3.35512e-05 85.3394 3.35512e-05 84.4562L0 46.0758Z" fill="#5E3BEB" fill-opacity="0.8"/>
<path fill-rule="evenodd" clip-rule="evenodd" d="M39.9897 6.07598C39.9897 6.07598 39.9897 5.984 39.9897 7.58488C39.1703 28.4203 22.4564 45.2369 1.62089 46.0563C0 46.0758 0 46.0758 0 46.0758V7.67511C0 6.79193 0.715957 6.07598 1.59913 6.07598H39.9897Z" fill="#5E3BEB" fill-opacity="0.7"/>
<path fill-rule="evenodd" clip-rule="evenodd" d="M79.9794 46.0481C79.9794 46.0481 79.9794 46.0555 78.3785 46.0227C57.5431 45.2033 40.8287 28.5123 40.0092 7.67686C39.9897 6.07598 39.9897 6.07598 39.9897 6.07598L78.3802 6.07594C79.2634 6.07594 79.9794 6.7919 79.9794 7.67508V46.0481Z" fill="#5E3BEB" fill-opacity="0.95"/>
<path fill-rule="evenodd" clip-rule="evenodd" d="M39.9897 86.075C39.9897 86.075 39.9897 86.1023 39.9897 84.5761C40.8091 63.7406 57.5431 46.8675 78.3785 46.0481C79.9794 46.0481 79.9794 46.0481 79.9794 46.0481V84.4657C79.9794 85.3489 79.2634 86.0648 78.3802 86.0648L39.9897 86.075Z" fill="#6745F0" fill-opacity="0.9"/>
<path d="M597.426 70.3V0H609.206V70.3H597.426Z" fill="var(--fill-0, #6745EC)"/>
<path d="M555.284 71.25C551.168 71.25 547.431 70.11 544.074 67.83C540.718 65.55 538.026 62.4467 535.999 58.52C533.973 54.5933 532.959 50.1283 532.959 45.125C532.959 40.1217 533.973 35.6567 535.999 31.73C538.026 27.8033 540.781 24.7317 544.264 22.515C547.748 20.2983 551.674 19.19 556.044 19.19C558.578 19.19 560.889 19.57 562.979 20.33C565.069 21.0267 566.906 22.04 568.489 23.37C570.073 24.7 571.371 26.22 572.384 27.93C573.461 29.64 574.189 31.4767 574.569 33.44L572.004 32.775V20.235H583.784V70.3H571.909V58.33L574.664 57.855C574.221 59.565 573.398 61.2433 572.194 62.89C571.054 64.4733 569.598 65.8983 567.824 67.165C566.114 68.3683 564.183 69.35 562.029 70.11C559.939 70.87 557.691 71.25 555.284 71.25ZM558.514 60.895C561.238 60.895 563.644 60.23 565.734 58.9C567.824 57.57 569.439 55.7333 570.579 53.39C571.783 50.9833 572.384 48.2283 572.384 45.125C572.384 42.085 571.783 39.3933 570.579 37.05C569.439 34.7067 567.824 32.87 565.734 31.54C563.644 30.21 561.238 29.545 558.514 29.545C555.791 29.545 553.384 30.21 551.294 31.54C549.268 32.87 547.684 34.7067 546.544 37.05C545.404 39.3933 544.834 42.085 544.834 45.125C544.834 48.2283 545.404 50.9833 546.544 53.39C547.684 55.7333 549.268 57.57 551.294 58.9C553.384 60.23 555.791 60.895 558.514 60.895Z" fill="var(--fill-0, #6745EC)"/>
<path d="M498.528 70.3V20.235H510.023L510.213 36.195L508.598 32.585C509.294 30.0517 510.498 27.7717 512.208 25.745C513.918 23.7183 515.881 22.135 518.098 20.995C520.378 19.7917 522.753 19.19 525.223 19.19C526.299 19.19 527.313 19.285 528.263 19.475C529.276 19.665 530.099 19.8867 530.733 20.14L527.598 32.965C526.901 32.585 526.046 32.2683 525.033 32.015C524.019 31.7617 523.006 31.635 521.993 31.635C520.409 31.635 518.889 31.9517 517.433 32.585C516.039 33.155 514.804 33.9783 513.728 35.055C512.651 36.1317 511.796 37.3983 511.163 38.855C510.593 40.2483 510.308 41.8317 510.308 43.605V70.3H498.528Z" fill="var(--fill-0, #6745EC)"/>
<path d="M467.019 70.3V7.505H478.704V70.3H467.019ZM457.139 31.065V20.235H489.629V31.065H457.139Z" fill="var(--fill-0, #6745EC)"/>
<path d="M403.713 70.3V20.235H415.113L415.303 30.495L413.118 31.635C413.752 29.355 414.987 27.2967 416.823 25.46C418.66 23.56 420.845 22.04 423.378 20.9C425.912 19.76 428.508 19.19 431.168 19.19C434.968 19.19 438.135 19.95 440.668 21.47C443.265 22.99 445.197 25.27 446.463 28.31C447.793 31.35 448.458 35.15 448.458 39.71V70.3H436.773V40.565C436.773 38.0317 436.425 35.9417 435.728 34.295C435.032 32.585 433.955 31.35 432.498 30.59C431.042 29.7667 429.268 29.3867 427.178 29.45C425.468 29.45 423.885 29.735 422.428 30.305C421.035 30.8117 419.8 31.5717 418.723 32.585C417.71 33.535 416.887 34.6433 416.253 35.91C415.683 37.1767 415.398 38.57 415.398 40.09V70.3H409.603C408.463 70.3 407.387 70.3 406.373 70.3C405.423 70.3 404.537 70.3 403.713 70.3Z" fill="var(--fill-0, #6745EC)"/>
<path d="M371.514 71.25C366.258 71.25 361.603 70.1417 357.549 67.925C353.559 65.7083 350.424 62.7 348.144 58.9C345.928 55.0367 344.819 50.635 344.819 45.695C344.819 41.7683 345.453 38.19 346.719 34.96C347.986 31.73 349.728 28.9433 351.944 26.6C354.224 24.1933 356.916 22.3567 360.019 21.09C363.186 19.76 366.638 19.095 370.374 19.095C373.668 19.095 376.739 19.7283 379.589 20.995C382.439 22.2617 384.909 24.0033 386.999 26.22C389.089 28.3733 390.673 30.97 391.749 34.01C392.889 36.9867 393.428 40.2483 393.364 43.795L393.269 47.88H352.704L350.519 39.9H383.484L381.964 41.515V39.425C381.774 37.4617 381.141 35.7517 380.064 34.295C378.988 32.775 377.594 31.6033 375.884 30.78C374.238 29.8933 372.401 29.45 370.374 29.45C367.271 29.45 364.643 30.0517 362.489 31.255C360.399 32.4583 358.816 34.2 357.739 36.48C356.663 38.6967 356.124 41.4833 356.124 44.84C356.124 48.07 356.789 50.8883 358.119 53.295C359.513 55.7017 361.444 57.57 363.914 58.9C366.448 60.1667 369.393 60.8 372.749 60.8C375.093 60.8 377.246 60.42 379.209 59.66C381.173 58.9 383.294 57.5383 385.574 55.575L391.369 63.65C389.659 65.2333 387.696 66.595 385.479 67.735C383.326 68.8117 381.046 69.6667 378.639 70.3C376.233 70.9333 373.858 71.25 371.514 71.25Z" fill="var(--fill-0, #6745EC)"/>
<path d="M313.413 71.25C308.599 71.25 304.198 70.4267 300.208 68.78C296.218 67.1333 292.766 64.79 289.853 61.75C286.939 58.6467 284.659 55.005 283.013 50.825C281.429 46.5817 280.638 41.9583 280.638 36.955C280.638 32.1417 281.493 27.6767 283.203 23.56C284.913 19.4433 287.288 15.8333 290.328 12.73C293.368 9.62667 296.914 7.22 300.968 5.51C305.021 3.8 309.423 2.945 314.173 2.945C317.403 2.945 320.538 3.42 323.578 4.37C326.618 5.32 329.404 6.65 331.938 8.36C334.471 10.0067 336.593 11.9383 338.303 14.155L330.418 22.8C328.771 21.09 327.061 19.665 325.288 18.525C323.578 17.3217 321.773 16.435 319.873 15.865C318.036 15.2317 316.136 14.915 314.173 14.915C311.259 14.915 308.504 15.4533 305.908 16.53C303.374 17.6067 301.158 19.1267 299.258 21.09C297.421 23.0533 295.964 25.3967 294.888 28.12C293.811 30.78 293.273 33.7567 293.273 37.05C293.273 40.4067 293.779 43.4467 294.793 46.17C295.869 48.8933 297.358 51.2367 299.258 53.2C301.221 55.1633 303.533 56.6833 306.193 57.76C308.916 58.7733 311.893 59.28 315.123 59.28C317.213 59.28 319.239 58.995 321.203 58.425C323.166 57.855 324.971 57.0633 326.618 56.05C328.328 54.9733 329.879 53.7383 331.273 52.345L337.353 62.13C335.833 63.84 333.806 65.3917 331.273 66.785C328.739 68.1783 325.889 69.2867 322.723 70.11C319.619 70.87 316.516 71.25 313.413 71.25Z" fill="var(--fill-0, #6745EC)"/>
<path d="M225.217 70.3V20.235H236.617L236.807 30.495L234.622 31.635C235.255 29.355 236.491 27.2967 238.327 25.46C240.164 23.56 242.349 22.04 244.882 20.9C247.415 19.76 250.012 19.19 252.672 19.19C256.472 19.19 259.639 19.95 262.172 21.47C264.769 22.99 266.701 25.27 267.967 28.31C269.297 31.35 269.962 35.15 269.962 39.71V70.3H258.277V40.565C258.277 38.0317 257.929 35.9417 257.232 34.295C256.536 32.585 255.459 31.35 254.002 30.59C252.546 29.7667 250.772 29.3867 248.682 29.45C246.972 29.45 245.389 29.735 243.932 30.305C242.539 30.8117 241.304 31.5717 240.227 32.585C239.214 33.535 238.391 34.6433 237.757 35.91C237.187 37.1767 236.902 38.57 236.902 40.09V70.3H231.107C229.967 70.3 228.891 70.3 227.877 70.3C226.927 70.3 226.041 70.3 225.217 70.3Z" fill="var(--fill-0, #6745EC)"/>
<path d="M193.018 71.25C187.761 71.25 183.106 70.1417 179.053 67.925C175.063 65.7083 171.928 62.7 169.648 58.9C167.431 55.0367 166.323 50.635 166.323 45.695C166.323 41.7683 166.956 38.19 168.223 34.96C169.49 31.73 171.231 28.9433 173.448 26.6C175.728 24.1933 178.42 22.3567 181.523 21.09C184.69 19.76 188.141 19.095 191.878 19.095C195.171 19.095 198.243 19.7283 201.093 20.995C203.943 22.2617 206.413 24.0033 208.503 26.22C210.593 28.3733 212.176 30.97 213.253 34.01C214.393 36.9867 214.931 40.2483 214.868 43.795L214.773 47.88H174.208L172.023 39.9H204.988L203.468 41.515V39.425C203.278 37.4617 202.645 35.7517 201.568 34.295C200.491 32.775 199.098 31.6033 197.388 30.78C195.741 29.8933 193.905 29.45 191.878 29.45C188.775 29.45 186.146 30.0517 183.993 31.255C181.903 32.4583 180.32 34.2 179.243 36.48C178.166 38.6967 177.628 41.4833 177.628 44.84C177.628 48.07 178.293 50.8883 179.623 53.295C181.016 55.7017 182.948 57.57 185.418 58.9C187.951 60.1667 190.896 60.8 194.253 60.8C196.596 60.8 198.75 60.42 200.713 59.66C202.676 58.9 204.798 57.5383 207.078 55.575L212.873 63.65C211.163 65.2333 209.2 66.595 206.983 67.735C204.83 68.8117 202.55 69.6667 200.143 70.3C197.736 70.9333 195.361 71.25 193.018 71.25Z" fill="var(--fill-0, #6745EC)"/>
<path d="M129.724 92.15C125.988 92.15 122.251 91.58 118.514 90.44C114.841 89.3 111.864 87.8117 109.584 85.975L113.764 77.33C115.094 78.28 116.583 79.1033 118.229 79.8C119.876 80.4967 121.618 81.035 123.454 81.415C125.354 81.795 127.223 81.985 129.059 81.985C132.416 81.985 135.203 81.4467 137.419 80.37C139.699 79.3567 141.409 77.7733 142.549 75.62C143.689 73.53 144.259 70.9017 144.259 67.735V58.52L145.969 59.185C145.589 61.1483 144.544 63.0167 142.834 64.79C141.124 66.5633 138.971 68.02 136.374 69.16C133.778 70.2367 131.118 70.775 128.394 70.775C123.644 70.775 119.433 69.6667 115.759 67.45C112.149 65.2333 109.268 62.225 107.114 58.425C105.024 54.5617 103.979 50.1283 103.979 45.125C103.979 40.1217 105.024 35.6883 107.114 31.825C109.204 27.8983 112.054 24.8267 115.664 22.61C119.338 20.33 123.454 19.19 128.014 19.19C129.914 19.19 131.751 19.4117 133.524 19.855C135.298 20.2983 136.913 20.9317 138.369 21.755C139.889 22.5783 141.251 23.4967 142.454 24.51C143.658 25.5233 144.639 26.6 145.399 27.74C146.159 28.88 146.634 29.9883 146.824 31.065L144.354 31.825L144.544 20.235H156.039V66.88C156.039 70.9333 155.438 74.5117 154.234 77.615C153.031 80.7183 151.289 83.3467 149.009 85.5C146.729 87.7167 143.974 89.3633 140.744 90.44C137.514 91.58 133.841 92.15 129.724 92.15ZM130.199 60.8C133.049 60.8 135.551 60.135 137.704 58.805C139.921 57.475 141.631 55.6383 142.834 53.295C144.038 50.9517 144.639 48.26 144.639 45.22C144.639 42.1167 144.006 39.3933 142.739 37.05C141.536 34.6433 139.858 32.775 137.704 31.445C135.551 30.115 133.049 29.45 130.199 29.45C127.349 29.45 124.848 30.1467 122.694 31.54C120.541 32.87 118.831 34.7383 117.564 37.145C116.361 39.4883 115.759 42.18 115.759 45.22C115.759 48.1967 116.361 50.8883 117.564 53.295C118.831 55.6383 120.541 57.475 122.694 58.805C124.848 60.135 127.349 60.8 130.199 60.8Z" fill="var(--fill-0, #6745EC)"/>
</g>
</svg>
