<svg preserveAspectRatio="xMidYMid meet" width="79.9794" height="80" overflow="visible" style="display: block;" viewBox="0 0 79.9794 80" fill="none" xmlns="http://www.w3.org/2000/svg">
<g id="Vector">
<path fill-rule="evenodd" clip-rule="evenodd" d="M0 40.0008C0 40.0008 0 40.0008 1.62089 40.0258C22.4564 40.8452 39.1703 57.6656 39.9897 78.5011C39.9897 80 39.9897 80 39.9897 80L1.59917 79.9803C0.71599 79.9803 3.35512e-05 79.2644 3.35512e-05 78.3812L0 40.0008Z" fill="#5E3BEB" fill-opacity="0.8"/>
<path fill-rule="evenodd" clip-rule="evenodd" d="M39.9897 0.000977074C39.9897 0.000977074 39.9897 -0.0910019 39.9897 1.50988C39.1703 22.3453 22.4564 39.1619 1.62089 39.9813C0 40.0008 0 40.0008 0 40.0008L0 1.60011C0 0.716934 0.715957 0.000977074 1.59913 0.000977074H39.9897Z" fill="#5E3BEB" fill-opacity="0.7"/>
<path fill-rule="evenodd" clip-rule="evenodd" d="M79.9794 39.9731C79.9794 39.9731 79.9794 39.9805 78.3785 39.9477C57.5431 39.1282 40.8287 22.4373 40.0092 1.60186C39.9897 0.000977156 39.9897 0.000977074 39.9897 0.000977074L78.3802 0.000943523C79.2634 0.000943523 79.9794 0.7169 79.9794 1.60008V39.9731Z" fill="#5E3BEB" fill-opacity="0.95"/>
<path fill-rule="evenodd" clip-rule="evenodd" d="M39.9897 80C39.9897 80 39.9897 80.0273 39.9897 78.5011C40.8091 57.6656 57.5431 40.7925 78.3785 39.9731C79.9794 39.9731 79.9794 39.9731 79.9794 39.9731V78.3907C79.9794 79.2739 79.2634 79.9898 78.3802 79.9898L39.9897 80Z" fill="var(--fill-0, #6745F0)" fill-opacity="0.9"/>
</g>
</svg>
