<svg preserveAspectRatio="xMidYMid meet" width="99.9794" height="100" overflow="visible" style="display: block;" viewBox="0 0 99.9794 100" fill="none" xmlns="http://www.w3.org/2000/svg">
<g id="Frame 1000004230">
<g id="Vector">
<path fill-rule="evenodd" clip-rule="evenodd" d="M10 50.0008C10 50.0008 10 50.0008 11.6209 50.0258C32.4564 50.8452 49.1703 67.6656 49.9897 88.5011C49.9897 90 49.9897 90 49.9897 90L11.5992 89.9803C10.716 89.9803 10 89.2644 10 88.3812L10 50.0008Z" fill="#5E3BEB" fill-opacity="0.8"/>
<path fill-rule="evenodd" clip-rule="evenodd" d="M49.9897 10.001C49.9897 10.001 49.9897 9.909 49.9897 11.5099C49.1703 32.3453 32.4564 49.1619 11.6209 49.9813C10 50.0008 10 50.0008 10 50.0008V11.6001C10 10.7169 10.716 10.001 11.5991 10.001H49.9897Z" fill="#5E3BEB" fill-opacity="0.7"/>
<path fill-rule="evenodd" clip-rule="evenodd" d="M89.9794 49.9731C89.9794 49.9731 89.9794 49.9805 88.3785 49.9477C67.5431 49.1282 50.8287 32.4373 50.0092 11.6019C49.9897 10.001 49.9897 10.001 49.9897 10.001L88.3802 10.0009C89.2634 10.0009 89.9794 10.7169 89.9794 11.6001V49.9731Z" fill="#5E3BEB" fill-opacity="0.95"/>
<path fill-rule="evenodd" clip-rule="evenodd" d="M49.9897 90C49.9897 90 49.9897 90.0273 49.9897 88.5011C50.8091 67.6656 67.5431 50.7925 88.3785 49.9731C89.9794 49.9731 89.9794 49.9731 89.9794 49.9731V88.3907C89.9794 89.2739 89.2634 89.9898 88.3802 89.9898L49.9897 90Z" fill="var(--fill-0, #6745F0)" fill-opacity="0.9"/>
</g>
</g>
</svg>
