<svg preserveAspectRatio="xMidYMid meet" width="420" height="66" overflow="visible" style="display: block;" viewBox="0 0 420 66" fill="none" xmlns="http://www.w3.org/2000/svg">
<g id="Vector">
<path d="M54.5961 60.5431C54.8048 63.5483 52.7689 66.0004 50.2821 66L4.50571 65.9928C2.01783 65.9924 0.0017828 63.545 0.00398091 60.5278L0.0442338 5.27586C0.0465021 2.16238 2.20043 -0.337796 4.74903 0.0373656C32.4262 4.11155 52.4612 29.8021 54.5961 60.5431Z" fill="#BCC5F9"/>
<path d="M0.0161216 14.4159L0 60.5319C-5.45693e-10 63.717 2.62635 65.9921 4.50232 65.9921H42.9094C42.9094 40.8451 25.21 14.4159 0.0161216 14.4159Z" fill="#6B7CD5"/>
<path d="M0.000167191 31.5986L0 60.5319C0 64.172 2.62635 65.9921 4.50232 65.9921L28.1402 65.9921C28.1402 49.2275 16.7962 31.5986 0.000167191 31.5986Z" fill="var(--fill-0, #172FAF)"/>
<path d="M78.0686 61.5781V19.9991H85.8755L86.0056 28.52L84.5093 29.4668C84.943 27.5733 85.7888 25.8638 87.0465 24.3385C88.3043 22.7605 89.8006 21.4981 91.5355 20.5514C93.2703 19.6046 95.0486 19.1312 96.8702 19.1312C99.4725 19.1312 101.641 19.7624 103.376 21.0248C105.154 22.2871 106.477 24.1807 107.344 26.7054C108.255 29.2301 108.711 32.386 108.711 36.1731V61.5781H100.709V36.8832C100.709 34.7792 100.47 33.0435 99.9929 31.6759C99.5158 30.2558 98.7785 29.2301 97.781 28.5989C96.7834 27.9151 95.569 27.5996 94.1378 27.6522C92.9667 27.6522 91.8824 27.8889 90.8849 28.3622C89.9307 28.783 89.085 29.4142 88.3477 30.2558C87.6537 31.0448 87.0899 31.9652 86.6562 33.0172C86.2658 34.0692 86.0707 35.2263 86.0707 36.4887V61.5781H82.1022C81.3215 61.5781 80.5842 61.5781 79.8902 61.5781C79.2397 61.5781 78.6325 61.5781 78.0686 61.5781Z" fill="var(--fill-0, #172FAF)"/>
<path d="M130.659 62.3671C127.84 62.3671 125.281 61.4203 122.982 59.5268C120.684 57.6332 118.841 55.0559 117.453 51.7948C116.065 48.5337 115.371 44.8255 115.371 40.6703C115.371 36.515 116.065 32.8068 117.453 29.5457C118.841 26.2846 120.727 23.7336 123.113 21.8926C125.498 20.0517 128.187 19.1312 131.18 19.1312C132.915 19.1312 134.498 19.4468 135.929 20.078C137.36 20.6566 138.618 21.4981 139.702 22.6027C140.786 23.7073 141.676 24.9696 142.37 26.3898C143.107 27.81 143.606 29.3353 143.866 30.9659L142.109 30.4136V19.9991H150.176V61.5781H142.044V51.637L143.931 51.2425C143.627 52.6627 143.063 54.0566 142.239 55.4241C141.459 56.7391 140.461 57.9225 139.247 58.9745C138.076 59.9739 136.753 60.7891 135.278 61.4203C133.847 62.0515 132.307 62.3671 130.659 62.3671ZM132.871 53.7673C134.736 53.7673 136.384 53.215 137.816 52.1104C139.247 51.0058 140.353 49.4805 141.133 47.5344C141.957 45.5356 142.37 43.2476 142.37 40.6703C142.37 38.1455 141.957 35.9101 141.133 33.964C140.353 32.0178 139.247 30.4925 137.816 29.3879C136.384 28.2833 134.736 27.7311 132.871 27.7311C131.006 27.7311 129.358 28.2833 127.927 29.3879C126.539 30.4925 125.455 32.0178 124.674 33.964C123.893 35.9101 123.503 38.1455 123.503 40.6703C123.503 43.2476 123.893 45.5356 124.674 47.5344C125.455 49.4805 126.539 51.0058 127.927 52.1104C129.358 53.215 131.006 53.7673 132.871 53.7673Z" fill="var(--fill-0, #172FAF)"/>
<path d="M169.686 61.5781L155.243 19.9991H163.961L173.719 51.0847L172.028 51.637L182.307 19.9991H190.83L175.671 61.5781H169.686Z" fill="var(--fill-0, #172FAF)"/>
<path d="M217.437 62.3671C214.141 62.3671 211.126 61.6833 208.394 60.3158C205.662 58.9482 203.298 57.0021 201.303 54.4773C199.308 51.9 197.746 48.8756 196.619 45.4041C195.534 41.88 194.992 38.0403 194.992 33.8851C194.992 29.8876 195.578 26.1794 196.749 22.7605C197.92 19.3416 199.546 16.3435 201.628 13.7662C203.71 11.1889 206.139 9.19012 208.914 7.76996C211.69 6.34981 214.704 5.63973 217.957 5.63973C220.169 5.63973 222.316 6.03422 224.398 6.8232C226.48 7.61217 228.388 8.71674 230.123 10.1369C231.858 11.5044 233.311 13.1087 234.482 14.9496L229.082 22.1293C227.954 20.7092 226.783 19.5257 225.569 18.5789C224.398 17.5796 223.162 16.8432 221.861 16.3698C220.603 15.8438 219.302 15.5808 217.957 15.5808C215.962 15.5808 214.076 16.0279 212.297 16.9221C210.562 17.8163 209.044 19.0786 207.743 20.7092C206.486 22.3397 205.488 24.2859 204.751 26.5476C204.013 28.7567 203.645 31.2288 203.645 33.964C203.645 36.7517 203.992 39.2764 204.686 41.5381C205.423 43.7999 206.442 45.746 207.743 47.3766C209.088 49.0071 210.671 50.2695 212.493 51.1636C214.357 52.0052 216.396 52.426 218.608 52.426C220.039 52.426 221.427 52.1893 222.772 51.7159C224.116 51.2425 225.352 50.5851 226.48 49.7435C227.651 48.8493 228.713 47.8236 229.668 46.6665L233.831 54.7929C232.79 56.2131 231.402 57.5017 229.668 58.6589C227.933 59.8161 225.981 60.7365 223.812 61.4203C221.687 62.0515 219.562 62.3671 217.437 62.3671Z" fill="var(--fill-0, #172FAF)"/>
<path d="M257.225 62.3671C253.626 62.3671 250.438 61.4466 247.662 59.6057C244.93 57.7647 242.783 55.2663 241.221 52.1104C239.703 48.9019 238.944 45.2463 238.944 41.1436C238.944 37.8825 239.378 34.9107 240.246 32.2282C241.113 29.5457 242.306 27.2314 243.824 25.2852C245.385 23.2865 247.228 21.7611 249.353 20.7092C251.522 19.6046 253.886 19.0523 256.445 19.0523C258.7 19.0523 260.804 19.5783 262.755 20.6303C264.707 21.6822 266.398 23.1287 267.83 24.9696C269.261 26.758 270.345 28.9145 271.083 31.4392C271.863 33.9114 272.232 36.6202 272.189 39.5657L272.124 42.9583H244.344L242.848 36.3309H265.423L264.382 37.6722V35.9364C264.252 34.3059 263.818 32.8857 263.081 31.6759C262.343 30.4136 261.389 29.4405 260.218 28.7567C259.09 28.0203 257.833 27.6522 256.445 27.6522C254.32 27.6522 252.52 28.1518 251.045 29.1512C249.614 30.1506 248.529 31.597 247.792 33.4906C247.055 35.3315 246.686 37.6459 246.686 40.4336C246.686 43.1161 247.142 45.4567 248.052 47.4555C249.007 49.4542 250.329 51.0058 252.021 52.1104C253.756 53.1624 255.772 53.6884 258.071 53.6884C259.676 53.6884 261.151 53.3728 262.495 52.7416C263.84 52.1104 265.293 50.9795 266.854 49.349L270.822 56.0553C269.651 57.3703 268.307 58.5011 266.789 59.4479C265.314 60.3421 263.753 61.0521 262.105 61.5781C260.457 62.1041 258.83 62.3671 257.225 62.3671Z" fill="var(--fill-0, #172FAF)"/>
<path d="M279.276 61.5781V19.9991H287.083L287.213 28.52L285.716 29.4668C286.15 27.5733 286.996 25.8638 288.254 24.3385C289.511 22.7605 291.008 21.4981 292.743 20.5514C294.477 19.6046 296.256 19.1312 298.077 19.1312C300.68 19.1312 302.848 19.7624 304.583 21.0248C306.361 22.2871 307.684 24.1807 308.551 26.7054C309.462 29.2301 309.918 32.386 309.918 36.1731V61.5781H301.916V36.8832C301.916 34.7792 301.677 33.0435 301.2 31.6759C300.723 30.2558 299.986 29.2301 298.988 28.5989C297.991 27.9151 296.776 27.5996 295.345 27.6522C294.174 27.6522 293.09 27.8889 292.092 28.3622C291.138 28.783 290.292 29.4142 289.555 30.2558C288.861 31.0448 288.297 31.9652 287.863 33.0172C287.473 34.0692 287.278 35.2263 287.278 36.4887V61.5781H283.309C282.529 61.5781 281.791 61.5781 281.097 61.5781C280.447 61.5781 279.84 61.5781 279.276 61.5781Z" fill="var(--fill-0, #172FAF)"/>
<path d="M322.628 61.5781V9.42682H330.63V61.5781H322.628ZM315.862 28.9934V19.9991H338.112V28.9934H315.862Z" fill="var(--fill-0, #172FAF)"/>
<path d="M344.206 61.5781V19.9991H352.078L352.208 33.2539L351.102 30.2558C351.579 28.1518 352.403 26.2583 353.574 24.5752C354.745 22.892 356.09 21.577 357.608 20.6303C359.169 19.6309 360.795 19.1312 362.487 19.1312C363.224 19.1312 363.918 19.2101 364.569 19.3679C365.263 19.5257 365.827 19.7098 366.26 19.9202L364.113 30.5714C363.636 30.2558 363.051 29.9928 362.357 29.7824C361.663 29.572 360.969 29.4668 360.275 29.4668C359.191 29.4668 358.15 29.7298 357.152 30.2558C356.198 30.7292 355.352 31.4129 354.615 32.3071C353.878 33.2013 353.292 34.2533 352.858 35.463C352.468 36.6202 352.273 37.9351 352.273 39.4079V61.5781H344.206Z" fill="var(--fill-0, #172FAF)"/>
<path d="M383.073 62.3671C380.254 62.3671 377.695 61.4203 375.397 59.5268C373.098 57.6332 371.255 55.0559 369.867 51.7948C368.479 48.5337 367.785 44.8255 367.785 40.6703C367.785 36.515 368.479 32.8068 369.867 29.5457C371.255 26.2846 373.141 23.7336 375.527 21.8926C377.912 20.0517 380.601 19.1312 383.594 19.1312C385.329 19.1312 386.912 19.4468 388.343 20.078C389.774 20.6566 391.032 21.4981 392.116 22.6027C393.201 23.7073 394.09 24.9696 394.784 26.3898C395.521 27.81 396.02 29.3353 396.28 30.9659L394.524 30.4136V19.9991H402.591V61.5781H394.458V51.637L396.345 51.2425C396.042 52.6627 395.478 54.0566 394.654 55.4241C393.873 56.7391 392.875 57.9225 391.661 58.9745C390.49 59.9739 389.167 60.7891 387.692 61.4203C386.261 62.0515 384.722 62.3671 383.073 62.3671ZM385.285 53.7673C387.15 53.7673 388.798 53.215 390.23 52.1104C391.661 51.0058 392.767 49.4805 393.548 47.5344C394.372 45.5356 394.784 43.2476 394.784 40.6703C394.784 38.1455 394.372 35.9101 393.548 33.964C392.767 32.0178 391.661 30.4925 390.23 29.3879C388.798 28.2833 387.15 27.7311 385.285 27.7311C383.42 27.7311 381.772 28.2833 380.341 29.3879C378.953 30.4925 377.869 32.0178 377.088 33.964C376.307 35.9101 375.917 38.1455 375.917 40.6703C375.917 43.2476 376.307 45.5356 377.088 47.5344C377.869 49.4805 378.953 51.0058 380.341 52.1104C381.772 53.215 383.42 53.7673 385.285 53.7673Z" fill="var(--fill-0, #172FAF)"/>
<path d="M411.933 61.5781V3.19391H420V61.5781H411.933Z" fill="var(--fill-0, #172FAF)"/>
</g>
</svg>
