<svg preserveAspectRatio="xMidYMid meet" width="80" height="80.0004" overflow="visible" style="display: block;" viewBox="0 0 80 80.0004" fill="none" xmlns="http://www.w3.org/2000/svg">
<g id="Group 625997">
<path id="Vector 41" d="M79.7242 73.429C80.029 77.0475 77.056 80.0001 73.4246 79.9996L6.57949 79.9909C2.94654 79.9905 0.00260334 77.0435 0.00581313 73.4106L0.0645926 6.88211C0.0679049 3.13319 3.21318 0.122749 6.93479 0.574481C47.3506 5.48017 76.6067 36.414 79.7242 73.429Z" fill="var(--fill-0, #BCC5F9)"/>
<path id="Vector 39" d="M0.0235416 17.8875L0 73.4155C-7.96848e-10 77.2507 3.83514 79.9901 6.57453 79.9901L62.6587 79.9901C62.6587 49.7108 36.813 17.8875 0.0235416 17.8875Z" fill="var(--fill-0, #6B7CD5)"/>
<path id="Vector 40" d="M0.000244141 38.5771L0.000244141 73.4156C0.000244141 77.7986 3.83538 79.9901 6.57477 79.9901L41.0918 79.9901C41.0918 59.8039 24.5267 38.5771 0.000244141 38.5771Z" fill="var(--fill-0, #172FAF)"/>
</g>
</svg>
