<svg preserveAspectRatio="xMidYMid meet" width="613.307" height="79.4701" overflow="visible" style="display: block;" viewBox="0 0 613.307 79.4701" fill="none" xmlns="http://www.w3.org/2000/svg">
<g id="Vector">
<path d="M79.7242 72.8995C80.029 76.5181 77.056 79.4706 73.4246 79.4701L6.57949 79.4614C2.94654 79.461 0.00260334 76.514 0.00581313 72.8811L0.0645926 6.35262C0.0679049 2.6037 3.21318 -0.406737 6.93479 0.0449917C47.3506 4.95068 76.6067 35.8845 79.7242 72.8995Z" fill="#BCC5F9"/>
<path d="M0.0235416 17.358L0 72.8861C-7.96851e-10 76.7212 3.83514 79.4606 6.57453 79.4606H62.6587C62.6587 49.1813 36.813 17.358 0.0235416 17.358Z" fill="#6B7CD5"/>
<path d="M0.000244141 38.0476L0 72.8861C0 77.2691 3.83514 79.4606 6.57453 79.4606L41.0918 79.4606C41.0918 59.2744 24.5267 38.0476 0.000244141 38.0476Z" fill="var(--fill-0, #172FAF)"/>
<path d="M114 74.1458V24.0808H125.4L125.59 34.3408L123.405 35.4808C124.038 33.2008 125.273 31.1424 127.11 29.3058C128.947 27.4058 131.132 25.8858 133.665 24.7458C136.198 23.6058 138.795 23.0358 141.455 23.0358C145.255 23.0358 148.422 23.7958 150.955 25.3158C153.552 26.8358 155.483 29.1158 156.75 32.1558C158.08 35.1958 158.745 38.9958 158.745 43.5558V74.1458H147.06V44.4108C147.06 41.8774 146.712 39.7874 146.015 38.1408C145.318 36.4308 144.242 35.1958 142.785 34.4358C141.328 33.6124 139.555 33.2324 137.465 33.2958C135.755 33.2958 134.172 33.5808 132.715 34.1508C131.322 34.6574 130.087 35.4174 129.01 36.4308C127.997 37.3808 127.173 38.4891 126.54 39.7558C125.97 41.0224 125.685 42.4158 125.685 43.9358V74.1458H119.89C118.75 74.1458 117.673 74.1458 116.66 74.1458C115.71 74.1458 114.823 74.1458 114 74.1458Z" fill="var(--fill-0, #172FAF)"/>
<path d="M190.796 75.0958C186.679 75.0958 182.942 73.9558 179.586 71.6758C176.229 69.3958 173.537 66.2924 171.511 62.3658C169.484 58.4391 168.471 53.9741 168.471 48.9708C168.471 43.9674 169.484 39.5024 171.511 35.5758C173.537 31.6491 176.292 28.5774 179.776 26.3608C183.259 24.1441 187.186 23.0358 191.556 23.0358C194.089 23.0358 196.401 23.4158 198.491 24.1758C200.581 24.8724 202.417 25.8858 204.001 27.2158C205.584 28.5458 206.882 30.0658 207.896 31.7758C208.972 33.4858 209.701 35.3224 210.081 37.2858L207.516 36.6208V24.0808H219.296V74.1458H207.421V62.1758L210.176 61.7008C209.732 63.4108 208.909 65.0891 207.706 66.7358C206.566 68.3191 205.109 69.7441 203.336 71.0108C201.626 72.2141 199.694 73.1958 197.541 73.9558C195.451 74.7158 193.202 75.0958 190.796 75.0958ZM194.026 64.7408C196.749 64.7408 199.156 64.0758 201.246 62.7458C203.336 61.4158 204.951 59.5791 206.091 57.2358C207.294 54.8291 207.896 52.0741 207.896 48.9708C207.896 45.9308 207.294 43.2391 206.091 40.8958C204.951 38.5524 203.336 36.7158 201.246 35.3858C199.156 34.0558 196.749 33.3908 194.026 33.3908C191.302 33.3908 188.896 34.0558 186.806 35.3858C184.779 36.7158 183.196 38.5524 182.056 40.8958C180.916 43.2391 180.346 45.9308 180.346 48.9708C180.346 52.0741 180.916 54.8291 182.056 57.2358C183.196 59.5791 184.779 61.4158 186.806 62.7458C188.896 64.0758 191.302 64.7408 194.026 64.7408Z" fill="var(--fill-0, #172FAF)"/>
<path d="M247.785 74.1458L226.695 24.0808H239.425L253.675 61.5108L251.205 62.1758L266.215 24.0808H278.66L256.525 74.1458H247.785Z" fill="var(--fill-0, #172FAF)"/>
<path d="M317.513 75.0958C312.7 75.0958 308.298 74.2724 304.308 72.6258C300.318 70.9791 296.866 68.6358 293.953 65.5958C291.04 62.4924 288.76 58.8508 287.113 54.6708C285.53 50.4274 284.738 45.8041 284.738 40.8008C284.738 35.9874 285.593 31.5224 287.303 27.4058C289.013 23.2891 291.388 19.6791 294.428 16.5758C297.468 13.4724 301.015 11.0658 305.068 9.35575C309.121 7.64575 313.523 6.79075 318.273 6.79075C321.503 6.79075 324.638 7.26576 327.678 8.21576C330.718 9.16576 333.505 10.4958 336.038 12.2058C338.571 13.8524 340.693 15.7841 342.403 18.0008L334.518 26.6458C332.871 24.9358 331.161 23.5108 329.388 22.3708C327.678 21.1674 325.873 20.2808 323.973 19.7108C322.136 19.0774 320.236 18.7608 318.273 18.7608C315.36 18.7608 312.605 19.2991 310.008 20.3758C307.475 21.4524 305.258 22.9724 303.358 24.9358C301.521 26.8991 300.065 29.2424 298.988 31.9658C297.911 34.6258 297.373 37.6024 297.373 40.8958C297.373 44.2524 297.88 47.2924 298.893 50.0158C299.97 52.7391 301.458 55.0824 303.358 57.0458C305.321 59.0091 307.633 60.5291 310.293 61.6058C313.016 62.6191 315.993 63.1258 319.223 63.1258C321.313 63.1258 323.34 62.8408 325.303 62.2708C327.266 61.7008 329.071 60.9091 330.718 59.8958C332.428 58.8191 333.98 57.5841 335.373 56.1908L341.453 65.9758C339.933 67.6858 337.906 69.2374 335.373 70.6308C332.84 72.0241 329.99 73.1324 326.823 73.9558C323.72 74.7158 320.616 75.0958 317.513 75.0958Z" fill="var(--fill-0, #172FAF)"/>
<path d="M375.614 75.0958C370.358 75.0958 365.703 73.9874 361.649 71.7708C357.659 69.5541 354.524 66.5458 352.244 62.7458C350.028 58.8824 348.919 54.4808 348.919 49.5408C348.919 45.6141 349.553 42.0358 350.819 38.8058C352.086 35.5758 353.828 32.7891 356.044 30.4458C358.324 28.0391 361.016 26.2024 364.119 24.9358C367.286 23.6058 370.738 22.9408 374.474 22.9408C377.768 22.9408 380.839 23.5741 383.689 24.8408C386.539 26.1074 389.009 27.8491 391.099 30.0658C393.189 32.2191 394.773 34.8158 395.849 37.8558C396.989 40.8324 397.528 44.0941 397.464 47.6408L397.369 51.7258H356.804L354.619 43.7458H387.584L386.064 45.3608V43.2708C385.874 41.3074 385.241 39.5974 384.164 38.1408C383.088 36.6208 381.694 35.4491 379.984 34.6258C378.338 33.7391 376.501 33.2958 374.474 33.2958C371.371 33.2958 368.743 33.8974 366.589 35.1008C364.499 36.3041 362.916 38.0458 361.839 40.3258C360.763 42.5424 360.224 45.3291 360.224 48.6858C360.224 51.9158 360.889 54.7341 362.219 57.1408C363.613 59.5474 365.544 61.4158 368.014 62.7458C370.548 64.0124 373.493 64.6458 376.849 64.6458C379.193 64.6458 381.346 64.2658 383.309 63.5058C385.273 62.7458 387.394 61.3841 389.674 59.4208L395.469 67.4958C393.759 69.0791 391.796 70.4408 389.579 71.5808C387.426 72.6574 385.146 73.5124 382.739 74.1458C380.333 74.7791 377.958 75.0958 375.614 75.0958Z" fill="var(--fill-0, #172FAF)"/>
<path d="M407.814 74.1458V24.0808H419.214L419.404 34.3408L417.219 35.4808C417.852 33.2008 419.087 31.1424 420.923 29.3058C422.76 27.4058 424.945 25.8858 427.479 24.7458C430.012 23.6058 432.609 23.0358 435.269 23.0358C439.069 23.0358 442.235 23.7958 444.769 25.3158C447.365 26.8358 449.297 29.1158 450.564 32.1558C451.893 35.1958 452.559 38.9958 452.559 43.5558V74.1458H440.874V44.4108C440.874 41.8774 440.525 39.7874 439.829 38.1408C439.132 36.4308 438.055 35.1958 436.599 34.4358C435.142 33.6124 433.368 33.2324 431.279 33.2958C429.569 33.2958 427.985 33.5808 426.529 34.1508C425.135 34.6574 423.9 35.4174 422.824 36.4308C421.81 37.3808 420.987 38.4891 420.354 39.7558C419.784 41.0224 419.499 42.4158 419.499 43.9358V74.1458H413.704C412.564 74.1458 411.487 74.1458 410.474 74.1458C409.523 74.1458 408.637 74.1458 407.814 74.1458Z" fill="var(--fill-0, #172FAF)"/>
<path d="M471.119 74.1458V11.3508H482.804V74.1458H471.119ZM461.239 34.9108V24.0808H493.729V34.9108H461.239Z" fill="var(--fill-0, #172FAF)"/>
<path d="M502.628 74.1458V24.0808H514.123L514.313 40.0408L512.698 36.4308C513.395 33.8974 514.598 31.6174 516.308 29.5908C518.018 27.5641 519.981 25.9808 522.198 24.8408C524.478 23.6374 526.853 23.0358 529.323 23.0358C530.4 23.0358 531.413 23.1308 532.363 23.3208C533.376 23.5108 534.2 23.7324 534.833 23.9858L531.698 36.8108C531.001 36.4308 530.146 36.1141 529.133 35.8608C528.12 35.6074 527.106 35.4808 526.093 35.4808C524.51 35.4808 522.99 35.7974 521.533 36.4308C520.14 37.0008 518.905 37.8241 517.828 38.9008C516.751 39.9774 515.896 41.2441 515.263 42.7008C514.693 44.0941 514.408 45.6774 514.408 47.4508V74.1458H502.628Z" fill="var(--fill-0, #172FAF)"/>
<path d="M559.385 75.0958C555.268 75.0958 551.531 73.9558 548.175 71.6758C544.818 69.3958 542.126 66.2924 540.1 62.3658C538.073 58.4391 537.06 53.9741 537.06 48.9708C537.06 43.9674 538.073 39.5024 540.1 35.5758C542.126 31.6491 544.881 28.5774 548.365 26.3608C551.848 24.1441 555.775 23.0358 560.145 23.0358C562.678 23.0358 564.99 23.4158 567.08 24.1758C569.17 24.8724 571.006 25.8858 572.59 27.2158C574.173 28.5458 575.471 30.0658 576.485 31.7758C577.561 33.4858 578.29 35.3224 578.67 37.2858L576.105 36.6208V24.0808H587.885V74.1458H576.01V62.1758L578.765 61.7008C578.321 63.4108 577.498 65.0891 576.295 66.7358C575.155 68.3191 573.698 69.7441 571.925 71.0108C570.215 72.2141 568.283 73.1958 566.13 73.9558C564.04 74.7158 561.791 75.0958 559.385 75.0958ZM562.615 64.7408C565.338 64.7408 567.745 64.0758 569.835 62.7458C571.925 61.4158 573.54 59.5791 574.68 57.2358C575.883 54.8291 576.485 52.0741 576.485 48.9708C576.485 45.9308 575.883 43.2391 574.68 40.8958C573.54 38.5524 571.925 36.7158 569.835 35.3858C567.745 34.0558 565.338 33.3908 562.615 33.3908C559.891 33.3908 557.485 34.0558 555.395 35.3858C553.368 36.7158 551.785 38.5524 550.645 40.8958C549.505 43.2391 548.935 45.9308 548.935 48.9708C548.935 52.0741 549.505 54.8291 550.645 57.2358C551.785 59.5791 553.368 61.4158 555.395 62.7458C557.485 64.0758 559.891 64.7408 562.615 64.7408Z" fill="var(--fill-0, #172FAF)"/>
<path d="M601.527 74.1458V3.84576H613.307V74.1458H601.527Z" fill="var(--fill-0, #172FAF)"/>
</g>
</svg>
