<svg preserveAspectRatio="xMidYMid meet" width="100" height="100" overflow="visible" style="display: block;" viewBox="0 0 100 100" fill="none" xmlns="http://www.w3.org/2000/svg">
<g id="Frame 1000004233">
<path id="Union" fill-rule="evenodd" clip-rule="evenodd" d="M44.9417 24.5C44.9417 22.2909 43.1509 20.5 40.9417 20.5H14C11.7909 20.5 10 22.2909 10 24.5V44.4228C10 46.632 11.7909 48.4228 14 48.4228H26.965C29.1742 48.4228 31.013 50.2396 30.489 52.3856C28.7207 59.6274 22.2063 65.2985 13.9824 66.7026C11.8048 67.0744 10 68.8289 10 71.038V75.5C10 77.7091 11.7973 79.5215 13.9953 79.2997C31.4332 77.5402 44.9834 64.4027 45 48.4521C45 48.436 44.987 48.4228 44.9709 48.4228C44.9548 48.4228 44.9417 48.4098 44.9417 48.3937V24.5Z" fill="var(--fill-0, #EE85FF)"/>
<path id="Union_2" fill-rule="evenodd" clip-rule="evenodd" d="M89.9417 24.5C89.9417 22.2909 88.1509 20.5 85.9417 20.5H59C56.7909 20.5 55 22.2909 55 24.5V44.4228C55 46.632 56.7909 48.4228 59 48.4228H71.965C74.1742 48.4228 76.013 50.2396 75.489 52.3856C73.7207 59.6274 67.2063 65.2985 58.9824 66.7026C56.8048 67.0744 55 68.8289 55 71.038V75.5C55 77.7091 56.7973 79.5215 58.9953 79.2997C76.4332 77.5402 89.9834 64.4027 90 48.4521C90 48.436 89.987 48.4228 89.9709 48.4228C89.9548 48.4228 89.9417 48.4098 89.9417 48.3937V24.5Z" fill="var(--fill-0, #D845F0)"/>
</g>
</svg>
