<svg preserveAspectRatio="xMidYMid meet" width="784.752" height="91.2" overflow="visible" style="display: block;" viewBox="0 0 784.752 91.2" fill="none" xmlns="http://www.w3.org/2000/svg">
<g id="Vector">
<path fill-rule="evenodd" clip-rule="evenodd" d="M34.9417 20.1C34.9417 17.8909 33.1509 16.1 30.9417 16.1H4C1.79086 16.1 0 17.8909 0 20.1V40.0228C0 42.232 1.79086 44.0228 4 44.0228H16.965C19.1742 44.0228 21.013 45.8396 20.489 47.9856C18.7207 55.2274 12.2063 60.8985 3.98239 62.3026C1.80476 62.6744 0 64.4289 0 66.638V71.1C0 73.3091 1.79732 75.1215 3.9953 74.8997C21.4332 73.1402 34.9834 60.0027 35 44.0521C35 44.036 34.987 44.0228 34.9709 44.0228C34.9548 44.0228 34.9417 44.0098 34.9417 43.9937V20.1Z" fill="#EE85FF"/>
<path fill-rule="evenodd" clip-rule="evenodd" d="M79.9417 20.1C79.9417 17.8909 78.1509 16.1 75.9417 16.1H49C46.7909 16.1 45 17.8909 45 20.1V40.0228C45 42.232 46.7909 44.0228 49 44.0228H61.965C64.1742 44.0228 66.013 45.8396 65.489 47.9856C63.7207 55.2274 57.2063 60.8985 48.9824 62.3026C46.8048 62.6745 45 64.4289 45 66.6381V71.1C45 73.3091 46.7973 75.1215 48.9953 74.8997C66.4332 73.1402 79.9834 60.0027 80 44.0521C80 44.036 79.987 44.0228 79.9709 44.0228C79.9548 44.0228 79.9417 44.0098 79.9417 43.9937V20.1Z" fill="var(--fill-0, #D845F0)"/>
<path d="M772.972 70.3V0H784.752V70.3H772.972Z" fill="var(--fill-0, #D845F0)"/>
<path d="M730.83 71.25C726.713 71.25 722.976 70.11 719.62 67.83C716.263 65.55 713.571 62.4467 711.545 58.52C709.518 54.5933 708.505 50.1283 708.505 45.125C708.505 40.1217 709.518 35.6567 711.545 31.73C713.571 27.8033 716.326 24.7317 719.81 22.515C723.293 20.2983 727.22 19.19 731.59 19.19C734.123 19.19 736.435 19.57 738.525 20.33C740.615 21.0267 742.451 22.04 744.035 23.37C745.618 24.7 746.916 26.22 747.93 27.93C749.006 29.64 749.735 31.4767 750.115 33.44L747.55 32.775V20.235H759.33V70.3H747.455V58.33L750.21 57.855C749.766 59.565 748.943 61.2433 747.74 62.89C746.6 64.4733 745.143 65.8983 743.37 67.165C741.66 68.3683 739.728 69.35 737.575 70.11C735.485 70.87 733.236 71.25 730.83 71.25ZM734.06 60.895C736.783 60.895 739.19 60.23 741.28 58.9C743.37 57.57 744.985 55.7333 746.125 53.39C747.328 50.9833 747.93 48.2283 747.93 45.125C747.93 42.085 747.328 39.3933 746.125 37.05C744.985 34.7067 743.37 32.87 741.28 31.54C739.19 30.21 736.783 29.545 734.06 29.545C731.336 29.545 728.93 30.21 726.84 31.54C724.813 32.87 723.23 34.7067 722.09 37.05C720.95 39.3933 720.38 42.085 720.38 45.125C720.38 48.2283 720.95 50.9833 722.09 53.39C723.23 55.7333 724.813 57.57 726.84 58.9C728.93 60.23 731.336 60.895 734.06 60.895Z" fill="var(--fill-0, #D845F0)"/>
<path d="M674.073 70.3V20.235H685.568L685.758 36.195L684.143 32.585C684.84 30.0517 686.043 27.7717 687.753 25.745C689.463 23.7183 691.427 22.135 693.643 20.995C695.923 19.7917 698.298 19.19 700.768 19.19C701.845 19.19 702.858 19.285 703.808 19.475C704.822 19.665 705.645 19.8867 706.278 20.14L703.143 32.965C702.447 32.585 701.592 32.2683 700.578 32.015C699.565 31.7617 698.552 31.635 697.538 31.635C695.955 31.635 694.435 31.9517 692.978 32.585C691.585 33.155 690.35 33.9783 689.273 35.055C688.197 36.1317 687.342 37.3983 686.708 38.855C686.138 40.2483 685.853 41.8317 685.853 43.605V70.3H674.073Z" fill="var(--fill-0, #D845F0)"/>
<path d="M642.564 70.3V7.505H654.249V70.3H642.564ZM632.684 31.065V20.235H665.174V31.065H632.684Z" fill="var(--fill-0, #D845F0)"/>
<path d="M579.259 70.3V20.235H590.659L590.849 30.495L588.664 31.635C589.297 29.355 590.532 27.2967 592.369 25.46C594.205 23.56 596.39 22.04 598.924 20.9C601.457 19.76 604.054 19.19 606.714 19.19C610.514 19.19 613.68 19.95 616.214 21.47C618.81 22.99 620.742 25.27 622.009 28.31C623.339 31.35 624.004 35.15 624.004 39.71V70.3H612.319V40.565C612.319 38.0317 611.97 35.9417 611.274 34.295C610.577 32.585 609.5 31.35 608.044 30.59C606.587 29.7667 604.814 29.3867 602.724 29.45C601.014 29.45 599.43 29.735 597.974 30.305C596.58 30.8117 595.345 31.5717 594.269 32.585C593.255 33.535 592.432 34.6433 591.799 35.91C591.229 37.1767 590.944 38.57 590.944 40.09V70.3H585.149C584.009 70.3 582.932 70.3 581.919 70.3C580.969 70.3 580.082 70.3 579.259 70.3Z" fill="var(--fill-0, #D845F0)"/>
<path d="M547.06 71.25C541.803 71.25 537.148 70.1417 533.095 67.925C529.105 65.7083 525.97 62.7 523.69 58.9C521.473 55.0367 520.365 50.635 520.365 45.695C520.365 41.7683 520.998 38.19 522.265 34.96C523.531 31.73 525.273 28.9433 527.49 26.6C529.77 24.1933 532.461 22.3567 535.565 21.09C538.731 19.76 542.183 19.095 545.92 19.095C549.213 19.095 552.285 19.7283 555.135 20.995C557.985 22.2617 560.455 24.0033 562.545 26.22C564.635 28.3733 566.218 30.97 567.295 34.01C568.435 36.9867 568.973 40.2483 568.91 43.795L568.815 47.88H528.25L526.065 39.9H559.03L557.51 41.515V39.425C557.32 37.4617 556.686 35.7517 555.61 34.295C554.533 32.775 553.14 31.6033 551.43 30.78C549.783 29.8933 547.946 29.45 545.92 29.45C542.816 29.45 540.188 30.0517 538.035 31.255C535.945 32.4583 534.361 34.2 533.285 36.48C532.208 38.6967 531.67 41.4833 531.67 44.84C531.67 48.07 532.335 50.8883 533.665 53.295C535.058 55.7017 536.99 57.57 539.46 58.9C541.993 60.1667 544.938 60.8 548.295 60.8C550.638 60.8 552.791 60.42 554.755 59.66C556.718 58.9 558.84 57.5383 561.12 55.575L566.915 63.65C565.205 65.2333 563.241 66.595 561.025 67.735C558.871 68.8117 556.591 69.6667 554.185 70.3C551.778 70.9333 549.403 71.25 547.06 71.25Z" fill="var(--fill-0, #D845F0)"/>
<path d="M488.958 71.25C484.145 71.25 479.743 70.4267 475.753 68.78C471.763 67.1333 468.312 64.79 465.398 61.75C462.485 58.6467 460.205 55.005 458.558 50.825C456.975 46.5817 456.183 41.9583 456.183 36.955C456.183 32.1417 457.038 27.6767 458.748 23.56C460.458 19.4433 462.833 15.8333 465.873 12.73C468.913 9.62667 472.46 7.22 476.513 5.51C480.567 3.8 484.968 2.945 489.718 2.945C492.948 2.945 496.083 3.42 499.123 4.37C502.163 5.32 504.95 6.65 507.483 8.36C510.017 10.0067 512.138 11.9383 513.848 14.155L505.963 22.8C504.317 21.09 502.607 19.665 500.833 18.525C499.123 17.3217 497.318 16.435 495.418 15.865C493.582 15.2317 491.682 14.915 489.718 14.915C486.805 14.915 484.05 15.4533 481.453 16.53C478.92 17.6067 476.703 19.1267 474.803 21.09C472.967 23.0533 471.51 25.3967 470.433 28.12C469.357 30.78 468.818 33.7567 468.818 37.05C468.818 40.4067 469.325 43.4467 470.338 46.17C471.415 48.8933 472.903 51.2367 474.803 53.2C476.767 55.1633 479.078 56.6833 481.738 57.76C484.462 58.7733 487.438 59.28 490.668 59.28C492.758 59.28 494.785 58.995 496.748 58.425C498.712 57.855 500.517 57.0633 502.163 56.05C503.873 54.9733 505.425 53.7383 506.818 52.345L512.898 62.13C511.378 63.84 509.352 65.3917 506.818 66.785C504.285 68.1783 501.435 69.2867 498.268 70.11C495.165 70.87 492.062 71.25 488.958 71.25Z" fill="var(--fill-0, #D845F0)"/>
<path d="M427.145 70.3V7.505H438.829V70.3H427.145ZM417.264 31.065V20.235H449.754V31.065H417.264Z" fill="var(--fill-0, #D845F0)"/>
<path d="M360.87 91.2V20.235H372.365L372.555 31.635L370.56 30.78C370.94 28.8167 372.017 26.98 373.79 25.27C375.563 23.4967 377.717 22.0717 380.25 20.995C382.847 19.9183 385.538 19.38 388.325 19.38C392.758 19.38 396.685 20.4883 400.105 22.705C403.588 24.9217 406.312 27.9617 408.275 31.825C410.302 35.6883 411.315 40.1533 411.315 45.22C411.315 50.2233 410.302 54.6883 408.275 58.615C406.312 62.4783 403.588 65.55 400.105 67.83C396.685 70.0467 392.822 71.155 388.515 71.155C385.602 71.155 382.783 70.585 380.06 69.445C377.4 68.305 375.12 66.8167 373.22 64.98C371.383 63.1433 370.243 61.2117 369.8 59.185L372.65 57.855V91.2H360.87ZM386.14 60.8C388.8 60.8 391.175 60.135 393.265 58.805C395.355 57.475 396.97 55.6383 398.11 53.295C399.313 50.9517 399.915 48.26 399.915 45.22C399.915 42.18 399.345 39.52 398.205 37.24C397.065 34.8967 395.45 33.06 393.36 31.73C391.27 30.4 388.863 29.735 386.14 29.735C383.353 29.735 380.915 30.4 378.825 31.73C376.798 32.9967 375.183 34.8017 373.98 37.145C372.777 39.4883 372.175 42.18 372.175 45.22C372.175 48.26 372.777 50.9517 373.98 53.295C375.183 55.6383 376.798 57.475 378.825 58.805C380.915 60.135 383.353 60.8 386.14 60.8Z" fill="var(--fill-0, #D845F0)"/>
<path d="M271.803 70.3V20.235H283.298L283.488 30.305L281.588 31.065C282.158 29.4183 283.013 27.8983 284.153 26.505C285.293 25.0483 286.655 23.8133 288.238 22.8C289.821 21.7233 291.5 20.9 293.273 20.33C295.046 19.6967 296.852 19.38 298.688 19.38C301.412 19.38 303.818 19.8233 305.908 20.71C308.062 21.5333 309.835 22.8633 311.228 24.7C312.685 26.5367 313.762 28.88 314.458 31.73L312.653 31.35L313.413 29.83C314.11 28.31 315.091 26.9483 316.358 25.745C317.625 24.4783 319.05 23.37 320.633 22.42C322.217 21.4067 323.863 20.6467 325.573 20.14C327.347 19.6333 329.088 19.38 330.798 19.38C334.598 19.38 337.765 20.14 340.298 21.66C342.831 23.18 344.732 25.4917 345.998 28.595C347.265 31.6983 347.898 35.53 347.898 40.09V70.3H336.118V40.85C336.118 38.3167 335.77 36.2267 335.073 34.58C334.44 32.9333 333.427 31.73 332.033 30.97C330.703 30.1467 329.025 29.735 326.998 29.735C325.415 29.735 323.895 30.02 322.438 30.59C321.045 31.0967 319.842 31.8567 318.828 32.87C317.815 33.82 317.023 34.9283 316.453 36.195C315.883 37.4617 315.598 38.855 315.598 40.375V70.3H303.818V40.755C303.818 38.3483 303.47 36.3533 302.773 34.77C302.076 33.1233 301.063 31.8883 299.733 31.065C298.403 30.1783 296.788 29.735 294.888 29.735C293.305 29.735 291.816 30.02 290.423 30.59C289.03 31.0967 287.827 31.825 286.813 32.775C285.8 33.725 285.008 34.8333 284.438 36.1C283.868 37.3667 283.583 38.76 283.583 40.28V70.3H271.803Z" fill="var(--fill-0, #D845F0)"/>
<path d="M235.606 71.25C230.603 71.25 226.138 70.1417 222.211 67.925C218.284 65.645 215.181 62.5417 212.901 58.615C210.621 54.6883 209.481 50.2233 209.481 45.22C209.481 40.2167 210.621 35.7517 212.901 31.825C215.181 27.8983 218.284 24.8267 222.211 22.61C226.138 20.33 230.603 19.19 235.606 19.19C240.546 19.19 244.979 20.33 248.906 22.61C252.833 24.8267 255.904 27.8983 258.121 31.825C260.401 35.7517 261.541 40.2167 261.541 45.22C261.541 50.2233 260.401 54.6883 258.121 58.615C255.904 62.5417 252.833 65.645 248.906 67.925C244.979 70.1417 240.546 71.25 235.606 71.25ZM235.606 60.895C238.329 60.895 240.736 60.1983 242.826 58.805C244.979 57.4117 246.658 55.5433 247.861 53.2C249.128 50.8567 249.729 48.1967 249.666 45.22C249.729 42.18 249.128 39.4883 247.861 37.145C246.658 34.8017 244.979 32.965 242.826 31.635C240.736 30.2417 238.329 29.545 235.606 29.545C232.883 29.545 230.413 30.2417 228.196 31.635C226.043 32.965 224.364 34.8333 223.161 37.24C221.958 39.5833 221.356 42.2433 221.356 45.22C221.356 48.1967 221.958 50.8567 223.161 53.2C224.364 55.5433 226.043 57.4117 228.196 58.805C230.413 60.1983 232.883 60.895 235.606 60.895Z" fill="var(--fill-0, #D845F0)"/>
<path d="M174.859 70.3V20.235H186.354L186.544 36.195L184.929 32.585C185.626 30.0517 186.829 27.7717 188.539 25.745C190.249 23.7183 192.213 22.135 194.429 20.995C196.709 19.7917 199.084 19.19 201.554 19.19C202.631 19.19 203.644 19.285 204.594 19.475C205.608 19.665 206.431 19.8867 207.064 20.14L203.929 32.965C203.233 32.585 202.378 32.2683 201.364 32.015C200.351 31.7617 199.338 31.635 198.324 31.635C196.741 31.635 195.221 31.9517 193.764 32.585C192.371 33.155 191.136 33.9783 190.059 35.055C188.983 36.1317 188.128 37.3983 187.494 38.855C186.924 40.2483 186.639 41.8317 186.639 43.605V70.3H174.859Z" fill="var(--fill-0, #D845F0)"/>
<path d="M114 91.2V20.235H125.495L125.685 31.635L123.69 30.78C124.07 28.8167 125.147 26.98 126.92 25.27C128.693 23.4967 130.847 22.0717 133.38 20.995C135.977 19.9183 138.668 19.38 141.455 19.38C145.888 19.38 149.815 20.4883 153.235 22.705C156.718 24.9217 159.442 27.9617 161.405 31.825C163.432 35.6883 164.445 40.1533 164.445 45.22C164.445 50.2233 163.432 54.6883 161.405 58.615C159.442 62.4783 156.718 65.55 153.235 67.83C149.815 70.0467 145.952 71.155 141.645 71.155C138.732 71.155 135.913 70.585 133.19 69.445C130.53 68.305 128.25 66.8167 126.35 64.98C124.513 63.1433 123.373 61.2117 122.93 59.185L125.78 57.855V91.2H114ZM139.27 60.8C141.93 60.8 144.305 60.135 146.395 58.805C148.485 57.475 150.1 55.6383 151.24 53.295C152.443 50.9517 153.045 48.26 153.045 45.22C153.045 42.18 152.475 39.52 151.335 37.24C150.195 34.8967 148.58 33.06 146.49 31.73C144.4 30.4 141.993 29.735 139.27 29.735C136.483 29.735 134.045 30.4 131.955 31.73C129.928 32.9967 128.313 34.8017 127.11 37.145C125.907 39.4883 125.305 42.18 125.305 45.22C125.305 48.26 125.907 50.9517 127.11 53.295C128.313 55.6383 129.928 57.475 131.955 58.805C134.045 60.135 136.483 60.8 139.27 60.8Z" fill="var(--fill-0, #D845F0)"/>
</g>
</svg>
