<svg preserveAspectRatio="xMidYMid meet" width="76.3055" height="78.3433" overflow="visible" style="display: block;" viewBox="0 0 76.3055 78.3433" fill="none" xmlns="http://www.w3.org/2000/svg">
<g id="Vector">
<path d="M21.1314 48.5132C22.6935 46.9511 25.2262 46.9511 26.7882 48.5132L29.8301 51.555C31.3922 53.1171 31.3922 55.6498 29.8301 57.2119L9.87024 77.1717C8.30815 78.7338 5.77549 78.7338 4.21339 77.1717L1.17157 74.1299C-0.390526 72.5678 -0.390523 70.0351 1.17157 68.473L21.1314 48.5132Z" fill="var(--fill-0, #045037)"/>
<path fill-rule="evenodd" clip-rule="evenodd" d="M44.9106 0C27.5716 0 13.5157 14.056 13.5157 31.3949C13.5157 48.7339 27.5716 62.7899 44.9106 62.7899C62.2495 62.7899 76.3055 48.7339 76.3055 31.3949C76.3055 14.056 62.2495 0 44.9106 0ZM45.0599 50.5205C55.2763 50.5205 63.5584 41.8875 63.5584 31.2382C63.5584 20.5888 55.2763 11.9558 45.0599 11.9558C34.8434 11.9558 26.5613 20.5888 26.5613 31.2382C26.5613 41.8875 34.8434 50.5205 45.0599 50.5205Z" fill="#13AB78"/>
<path fill-rule="evenodd" clip-rule="evenodd" d="M71.0145 48.8371C74.4642 43.6743 76.3055 37.6043 76.3055 31.3949L63.5578 31.395C63.477 41.9722 55.2261 50.5205 45.0599 50.5205C34.8434 50.5205 26.5613 41.8875 26.5613 31.2382C26.5613 20.6407 34.7629 12.0401 44.9106 11.9565L44.9106 0C38.7013 0 32.6314 1.84139 27.4685 5.29111C22.3056 8.74082 18.2817 13.644 15.9055 19.3807C13.5292 25.1174 12.9075 31.4299 14.1189 37.5199C15.3303 43.6099 18.3204 49.204 22.711 53.5946C27.1017 57.9853 32.6957 60.9754 38.7857 62.1867C44.8758 63.3981 51.1882 62.7764 56.9249 60.4002C62.6616 58.024 67.5648 54 71.0145 48.8371Z" fill="var(--fill-0, #045037)"/>
</g>
</svg>
