<svg preserveAspectRatio="xMidYMid meet" width="100" height="100" overflow="visible" style="display: block;" viewBox="0 0 100 100" fill="none" xmlns="http://www.w3.org/2000/svg">
<g id="Frame 1000004261">
<rect id="Rectangle 5732" x="36.6167" y="55.6848" width="12.3018" height="36.2275" rx="4" transform="rotate(45 36.6167 55.6848)" fill="var(--fill-0, #045037)"/>
<path id="Subtract" fill-rule="evenodd" clip-rule="evenodd" d="M57.5674 10C40.2285 10 26.1725 24.056 26.1725 41.3949C26.1725 58.7339 40.2285 72.7899 57.5674 72.7899C74.9064 72.7899 88.9624 58.7339 88.9624 41.3949C88.9624 24.056 74.9064 10 57.5674 10ZM57.7167 60.5205C67.9332 60.5205 76.2152 51.8875 76.2152 41.2382C76.2152 30.5888 67.9332 21.9558 57.7167 21.9558C47.5003 21.9558 39.2182 30.5888 39.2182 41.2382C39.2182 51.8875 47.5003 60.5205 57.7167 60.5205Z" fill="var(--fill-0, #13AB78)"/>
<path id="Subtract_2" d="M69.5815 70.4006C63.845 72.7766 57.5327 73.398 51.4428 72.1867C45.3528 70.9753 39.7583 67.9855 35.3677 63.5949C30.977 59.2042 27.9872 53.6097 26.7759 47.5197C25.5646 41.4299 26.1859 35.1175 28.562 29.381C30.9382 23.6443 34.9626 18.7409 40.1255 15.2912C45.2883 11.8415 51.3586 10.0002 57.5678 10.0002V21.9582C47.4199 22.0415 39.2183 30.6409 39.2182 41.2384C39.2182 51.8877 47.5 60.5204 57.7163 60.5207C67.8824 60.5207 76.1323 51.9727 76.2134 41.3957H88.9624C88.9623 47.6048 87.1209 53.6744 83.6714 58.8371C80.2216 63.9999 75.3182 68.0243 69.5815 70.4006Z" fill="var(--fill-0, #045037)"/>
</g>
</svg>
