<svg preserveAspectRatio="xMidYMid meet" width="739.882" height="78.3433" overflow="visible" style="display: block;" viewBox="0 0 739.882 78.3433" fill="none" xmlns="http://www.w3.org/2000/svg">
<g id="Vector">
<path d="M21.1314 48.5132C22.6935 46.9511 25.2262 46.9511 26.7882 48.5132L29.8301 51.555C31.3922 53.1171 31.3922 55.6498 29.8301 57.2119L9.87024 77.1717C8.30815 78.7338 5.77549 78.7338 4.21339 77.1717L1.17157 74.1299C-0.390526 72.5678 -0.390523 70.0351 1.17157 68.473L21.1314 48.5132Z" fill="var(--fill-0, #045037)"/>
<path fill-rule="evenodd" clip-rule="evenodd" d="M44.9106 0C27.5716 0 13.5157 14.056 13.5157 31.3949C13.5157 48.7339 27.5716 62.7899 44.9106 62.7899C62.2495 62.7899 76.3055 48.7339 76.3055 31.3949C76.3055 14.056 62.2495 0 44.9106 0ZM45.0599 50.5205C55.2763 50.5205 63.5584 41.8875 63.5584 31.2382C63.5584 20.5888 55.2763 11.9558 45.0599 11.9558C34.8434 11.9558 26.5613 20.5888 26.5613 31.2382C26.5613 41.8875 34.8434 50.5205 45.0599 50.5205Z" fill="#13AB78"/>
<path fill-rule="evenodd" clip-rule="evenodd" d="M71.0145 48.8371C74.4642 43.6743 76.3055 37.6043 76.3055 31.3949L63.5578 31.395C63.477 41.9722 55.2261 50.5205 45.0599 50.5205C34.8434 50.5205 26.5613 41.8875 26.5613 31.2382C26.5613 20.6407 34.7629 12.0401 44.9106 11.9565L44.9106 0C38.7013 0 32.6314 1.84139 27.4685 5.29111C22.3056 8.74082 18.2817 13.644 15.9055 19.3807C13.5292 25.1174 12.9075 31.4299 14.1189 37.5199C15.3303 43.6099 18.3204 49.204 22.711 53.5946C27.1017 57.9853 32.6957 60.9754 38.7857 62.1867C44.8758 63.3981 51.1882 62.7764 56.9249 60.4002C62.6616 58.024 67.5648 54 71.0145 48.8371Z" fill="var(--fill-0, #045037)"/>
<path d="M728.102 73.8466V3.54663H739.882V73.8466H728.102Z" fill="var(--fill-0, #045037)"/>
<path d="M685.96 74.7966C681.843 74.7966 678.106 73.6566 674.75 71.3766C671.393 69.0966 668.701 65.9933 666.675 62.0666C664.648 58.14 663.635 53.675 663.635 48.6716C663.635 43.6683 664.648 39.2033 666.675 35.2766C668.701 31.35 671.456 28.2783 674.94 26.0616C678.423 23.845 682.35 22.7366 686.72 22.7366C689.253 22.7366 691.565 23.1166 693.655 23.8766C695.745 24.5733 697.581 25.5866 699.165 26.9166C700.748 28.2466 702.046 29.7666 703.06 31.4766C704.136 33.1866 704.865 35.0233 705.245 36.9866L702.68 36.3216V23.7816H714.46V73.8466H702.585V61.8766L705.34 61.4016C704.896 63.1116 704.073 64.79 702.87 66.4366C701.73 68.02 700.273 69.445 698.5 70.7116C696.79 71.915 694.858 72.8966 692.705 73.6566C690.615 74.4166 688.366 74.7966 685.96 74.7966ZM689.19 64.4416C691.913 64.4416 694.32 63.7766 696.41 62.4466C698.5 61.1166 700.115 59.28 701.255 56.9366C702.458 54.53 703.06 51.775 703.06 48.6716C703.06 45.6316 702.458 42.94 701.255 40.5966C700.115 38.2533 698.5 36.4166 696.41 35.0866C694.32 33.7566 691.913 33.0916 689.19 33.0916C686.466 33.0916 684.06 33.7566 681.97 35.0866C679.943 36.4166 678.36 38.2533 677.22 40.5966C676.08 42.94 675.51 45.6316 675.51 48.6716C675.51 51.775 676.08 54.53 677.22 56.9366C678.36 59.28 679.943 61.1166 681.97 62.4466C684.06 63.7766 686.466 64.4416 689.19 64.4416Z" fill="var(--fill-0, #045037)"/>
<path d="M629.203 73.8466V23.7816H640.698L640.888 39.7416L639.273 36.1316C639.97 33.5983 641.173 31.3183 642.883 29.2916C644.593 27.265 646.557 25.6816 648.773 24.5416C651.053 23.3383 653.428 22.7366 655.898 22.7366C656.975 22.7366 657.988 22.8316 658.938 23.0216C659.952 23.2116 660.775 23.4333 661.408 23.6866L658.273 36.5116C657.577 36.1316 656.722 35.815 655.708 35.5616C654.695 35.3083 653.682 35.1816 652.668 35.1816C651.085 35.1816 649.565 35.4983 648.108 36.1316C646.715 36.7016 645.48 37.525 644.403 38.6016C643.327 39.6783 642.472 40.945 641.838 42.4016C641.268 43.795 640.983 45.3783 640.983 47.1516V73.8466H629.203Z" fill="var(--fill-0, #045037)"/>
<path d="M597.694 73.8466V11.0516H609.379V73.8466H597.694ZM587.814 34.6116V23.7816H620.304V34.6116H587.814Z" fill="var(--fill-0, #045037)"/>
<path d="M534.389 73.8466V23.7816H545.789L545.979 34.0416L543.794 35.1816C544.427 32.9016 545.662 30.8433 547.499 29.0066C549.335 27.1066 551.52 25.5866 554.054 24.4466C556.587 23.3066 559.184 22.7366 561.844 22.7366C565.644 22.7366 568.81 23.4966 571.344 25.0166C573.94 26.5366 575.872 28.8166 577.139 31.8566C578.469 34.8966 579.134 38.6966 579.134 43.2566V73.8466H567.449V44.1116C567.449 41.5783 567.1 39.4883 566.404 37.8416C565.707 36.1316 564.63 34.8966 563.174 34.1366C561.717 33.3133 559.944 32.9333 557.854 32.9966C556.144 32.9966 554.56 33.2816 553.104 33.8516C551.71 34.3583 550.475 35.1183 549.399 36.1316C548.385 37.0816 547.562 38.19 546.929 39.4566C546.359 40.7233 546.074 42.1166 546.074 43.6366V73.8466H540.279C539.139 73.8466 538.062 73.8466 537.049 73.8466C536.099 73.8466 535.212 73.8466 534.389 73.8466Z" fill="var(--fill-0, #045037)"/>
<path d="M502.19 74.7966C496.933 74.7966 492.278 73.6883 488.225 71.4716C484.235 69.255 481.1 66.2466 478.82 62.4466C476.603 58.5833 475.495 54.1816 475.495 49.2416C475.495 45.315 476.128 41.7366 477.395 38.5066C478.661 35.2766 480.403 32.49 482.62 30.1466C484.9 27.74 487.591 25.9033 490.695 24.6366C493.861 23.3066 497.313 22.6416 501.05 22.6416C504.343 22.6416 507.415 23.275 510.265 24.5416C513.115 25.8083 515.585 27.55 517.675 29.7666C519.765 31.92 521.348 34.5166 522.425 37.5566C523.565 40.5333 524.103 43.795 524.04 47.3416L523.945 51.4266H483.38L481.195 43.4466H514.16L512.64 45.0616V42.9716C512.45 41.0083 511.816 39.2983 510.74 37.8416C509.663 36.3216 508.27 35.15 506.56 34.3266C504.913 33.44 503.076 32.9966 501.05 32.9966C497.946 32.9966 495.318 33.5983 493.165 34.8016C491.075 36.005 489.491 37.7466 488.415 40.0266C487.338 42.2433 486.8 45.03 486.8 48.3866C486.8 51.6166 487.465 54.435 488.795 56.8416C490.188 59.2483 492.12 61.1166 494.59 62.4466C497.123 63.7133 500.068 64.3466 503.425 64.3466C505.768 64.3466 507.921 63.9666 509.885 63.2066C511.848 62.4466 513.97 61.085 516.25 59.1216L522.045 67.1966C520.335 68.78 518.371 70.1416 516.155 71.2816C514.001 72.3583 511.721 73.2133 509.315 73.8466C506.908 74.48 504.533 74.7966 502.19 74.7966Z" fill="var(--fill-0, #045037)"/>
<path d="M444.088 74.7966C439.275 74.7966 434.873 73.9733 430.883 72.3266C426.893 70.68 423.442 68.3366 420.528 65.2966C417.615 62.1933 415.335 58.5516 413.688 54.3716C412.105 50.1283 411.313 45.505 411.313 40.5016C411.313 35.6883 412.168 31.2233 413.878 27.1066C415.588 22.99 417.963 19.38 421.003 16.2766C424.043 13.1733 427.59 10.7666 431.643 9.05662C435.697 7.34662 440.098 6.49162 444.848 6.49162C448.078 6.49162 451.213 6.96663 454.253 7.91663C457.293 8.86663 460.08 10.1966 462.613 11.9066C465.147 13.5533 467.268 15.485 468.978 17.7016L461.093 26.3466C459.447 24.6366 457.737 23.2116 455.963 22.0716C454.253 20.8683 452.448 19.9816 450.548 19.4116C448.712 18.7783 446.812 18.4616 444.848 18.4616C441.935 18.4616 439.18 19 436.583 20.0766C434.05 21.1533 431.833 22.6733 429.933 24.6366C428.097 26.6 426.64 28.9433 425.563 31.6666C424.487 34.3266 423.948 37.3033 423.948 40.5966C423.948 43.9533 424.455 46.9933 425.468 49.7166C426.545 52.44 428.033 54.7833 429.933 56.7466C431.897 58.71 434.208 60.23 436.868 61.3066C439.592 62.32 442.568 62.8266 445.798 62.8266C447.888 62.8266 449.915 62.5416 451.878 61.9716C453.842 61.4016 455.647 60.61 457.293 59.5966C459.003 58.52 460.555 57.285 461.948 55.8916L468.028 65.6766C466.508 67.3866 464.482 68.9383 461.948 70.3316C459.415 71.725 456.565 72.8333 453.398 73.6566C450.295 74.4166 447.192 74.7966 444.088 74.7966Z" fill="var(--fill-0, #045037)"/>
<path d="M355.893 73.8466V3.54663H367.483V34.0416L365.298 35.1816C365.931 32.9016 367.166 30.8433 369.003 29.0066C370.839 27.1066 373.024 25.5866 375.558 24.4466C378.091 23.3066 380.688 22.7366 383.348 22.7366C387.148 22.7366 390.314 23.4966 392.848 25.0166C395.444 26.5366 397.376 28.8166 398.643 31.8566C399.973 34.8966 400.638 38.6966 400.638 43.2566V73.8466H388.953V44.1116C388.953 41.5783 388.604 39.4883 387.908 37.8416C387.211 36.1316 386.134 34.8966 384.678 34.1366C383.221 33.3133 381.448 32.9333 379.358 32.9966C377.648 32.9966 376.064 33.2816 374.608 33.8516C373.214 34.3583 371.979 35.1183 370.903 36.1316C369.889 37.0816 369.066 38.19 368.433 39.4566C367.863 40.7233 367.578 42.1166 367.578 43.6366V73.8466H361.783C360.643 73.8466 359.566 73.8466 358.553 73.8466C357.603 73.8466 356.716 73.8466 355.893 73.8466Z" fill="var(--fill-0, #045037)"/>
<path d="M326.152 74.7966C321.465 74.7966 317.253 73.6566 313.517 71.3766C309.78 69.0966 306.835 65.9933 304.682 62.0666C302.528 58.14 301.452 53.7066 301.452 48.7666C301.452 43.8266 302.528 39.3933 304.682 35.4666C306.835 31.54 309.78 28.4366 313.517 26.1566C317.253 23.8766 321.465 22.7366 326.152 22.7366C330.648 22.7366 334.733 23.5916 338.407 25.3016C342.08 27.0116 344.93 29.3866 346.957 32.4266L340.497 40.2166C339.547 38.8866 338.343 37.6833 336.887 36.6066C335.43 35.53 333.878 34.675 332.232 34.0416C330.585 33.4083 328.938 33.0916 327.292 33.0916C324.505 33.0916 322.003 33.7883 319.787 35.1816C317.633 36.5116 315.923 38.38 314.657 40.7866C313.39 43.13 312.757 45.79 312.757 48.7666C312.757 51.7433 313.39 54.4033 314.657 56.7466C315.987 59.09 317.76 60.9583 319.977 62.3516C322.193 63.745 324.663 64.4416 327.387 64.4416C329.033 64.4416 330.617 64.1883 332.137 63.6816C333.72 63.1116 335.208 62.32 336.602 61.3066C337.995 60.2933 339.293 59.0266 340.497 57.5066L346.957 65.3916C344.803 68.1783 341.827 70.4583 338.027 72.2316C334.29 73.9416 330.332 74.7966 326.152 74.7966Z" fill="var(--fill-0, #045037)"/>
<path d="M266.83 73.8466V23.7816H278.325L278.515 39.7416L276.9 36.1316C277.597 33.5983 278.8 31.3183 280.51 29.2916C282.22 27.265 284.183 25.6816 286.4 24.5416C288.68 23.3383 291.055 22.7366 293.525 22.7366C294.602 22.7366 295.615 22.8316 296.565 23.0216C297.578 23.2116 298.402 23.4333 299.035 23.6866L295.9 36.5116C295.203 36.1316 294.348 35.815 293.335 35.5616C292.322 35.3083 291.308 35.1816 290.295 35.1816C288.712 35.1816 287.192 35.4983 285.735 36.1316C284.342 36.7016 283.107 37.525 282.03 38.6016C280.953 39.6783 280.098 40.945 279.465 42.4016C278.895 43.795 278.61 45.3783 278.61 47.1516V73.8466H266.83Z" fill="var(--fill-0, #045037)"/>
<path d="M224.783 74.7966C220.666 74.7966 216.93 73.6566 213.573 71.3766C210.216 69.0966 207.525 65.9933 205.498 62.0666C203.471 58.14 202.458 53.675 202.458 48.6716C202.458 43.6683 203.471 39.2033 205.498 35.2766C207.525 31.35 210.28 28.2783 213.763 26.0616C217.246 23.845 221.173 22.7366 225.543 22.7366C228.076 22.7366 230.388 23.1166 232.478 23.8766C234.568 24.5733 236.405 25.5866 237.988 26.9166C239.571 28.2466 240.87 29.7666 241.883 31.4766C242.96 33.1866 243.688 35.0233 244.068 36.9866L241.503 36.3216V23.7816H253.283V73.8466H241.408V61.8766L244.163 61.4016C243.72 63.1116 242.896 64.79 241.693 66.4366C240.553 68.02 239.096 69.445 237.323 70.7116C235.613 71.915 233.681 72.8966 231.528 73.6566C229.438 74.4166 227.19 74.7966 224.783 74.7966ZM228.013 64.4416C230.736 64.4416 233.143 63.7766 235.233 62.4466C237.323 61.1166 238.938 59.28 240.078 56.9366C241.281 54.53 241.883 51.775 241.883 48.6716C241.883 45.6316 241.281 42.94 240.078 40.5966C238.938 38.2533 237.323 36.4166 235.233 35.0866C233.143 33.7566 230.736 33.0916 228.013 33.0916C225.29 33.0916 222.883 33.7566 220.793 35.0866C218.766 36.4166 217.183 38.2533 216.043 40.5966C214.903 42.94 214.333 45.6316 214.333 48.6716C214.333 51.775 214.903 54.53 216.043 56.9366C217.183 59.28 218.766 61.1166 220.793 62.4466C222.883 63.7766 225.29 64.4416 228.013 64.4416Z" fill="var(--fill-0, #045037)"/>
<path d="M173.679 74.7966C168.422 74.7966 163.767 73.6883 159.714 71.4716C155.724 69.255 152.589 66.2466 150.309 62.4466C148.092 58.5833 146.984 54.1816 146.984 49.2416C146.984 45.315 147.617 41.7366 148.884 38.5066C150.151 35.2766 151.892 32.49 154.109 30.1466C156.389 27.74 159.081 25.9033 162.184 24.6366C165.351 23.3066 168.802 22.6416 172.539 22.6416C175.832 22.6416 178.904 23.275 181.754 24.5416C184.604 25.8083 187.074 27.55 189.164 29.7666C191.254 31.92 192.837 34.5166 193.914 37.5566C195.054 40.5333 195.592 43.795 195.529 47.3416L195.434 51.4266H154.869L152.684 43.4466H185.649L184.129 45.0616V42.9716C183.939 41.0083 183.306 39.2983 182.229 37.8416C181.152 36.3216 179.759 35.15 178.049 34.3266C176.402 33.44 174.566 32.9966 172.539 32.9966C169.436 32.9966 166.807 33.5983 164.654 34.8016C162.564 36.005 160.981 37.7466 159.904 40.0266C158.827 42.2433 158.289 45.03 158.289 48.3866C158.289 51.6166 158.954 54.435 160.284 56.8416C161.677 59.2483 163.609 61.1166 166.079 62.4466C168.612 63.7133 171.557 64.3466 174.914 64.3466C177.257 64.3466 179.411 63.9666 181.374 63.2066C183.337 62.4466 185.459 61.085 187.739 59.1216L193.534 67.1966C191.824 68.78 189.861 70.1416 187.644 71.2816C185.491 72.3583 183.211 73.2133 180.804 73.8466C178.397 74.48 176.022 74.7966 173.679 74.7966Z" fill="var(--fill-0, #045037)"/>
<path d="M120.826 74.7966C116.392 74.7966 112.402 74.0683 108.856 72.6116C105.372 71.0916 102.522 68.9383 100.306 66.1516L107.906 59.5966C109.806 61.75 111.927 63.3016 114.271 64.2516C116.614 65.2016 119.084 65.6766 121.681 65.6766C122.757 65.6766 123.707 65.55 124.531 65.2966C125.417 65.0433 126.177 64.6633 126.811 64.1566C127.444 63.65 127.919 63.08 128.236 62.4466C128.616 61.75 128.806 60.99 128.806 60.1666C128.806 58.6466 128.236 57.4433 127.096 56.5566C126.462 56.1133 125.449 55.6383 124.056 55.1316C122.726 54.625 120.984 54.1183 118.831 53.6116C115.411 52.725 112.561 51.7116 110.281 50.5716C108.001 49.3683 106.227 48.0383 104.961 46.5816C103.884 45.3783 103.061 44.0166 102.491 42.4966C101.984 40.9766 101.731 39.33 101.731 37.5566C101.731 35.34 102.206 33.345 103.156 31.5716C104.169 29.735 105.531 28.1516 107.241 26.8216C108.951 25.4916 110.946 24.4783 113.226 23.7816C115.506 23.085 117.881 22.7366 120.351 22.7366C122.884 22.7366 125.322 23.0533 127.666 23.6866C130.072 24.32 132.289 25.2383 134.316 26.4416C136.406 27.5816 138.179 28.975 139.636 30.6216L133.176 37.7466C131.972 36.6066 130.642 35.5933 129.186 34.7066C127.792 33.82 126.367 33.1233 124.911 32.6166C123.454 32.0466 122.092 31.7616 120.826 31.7616C119.622 31.7616 118.546 31.8883 117.596 32.1416C116.646 32.3316 115.854 32.6483 115.221 33.0916C114.587 33.535 114.081 34.105 113.701 34.8016C113.384 35.435 113.226 36.195 113.226 37.0816C113.289 37.8416 113.479 38.57 113.796 39.2666C114.176 39.9 114.682 40.4383 115.316 40.8816C116.012 41.325 117.057 41.8316 118.451 42.4016C119.844 42.9716 121.649 43.51 123.866 44.0166C126.969 44.84 129.566 45.7583 131.656 46.7716C133.746 47.785 135.392 48.9566 136.596 50.2866C137.799 51.4266 138.654 52.7566 139.161 54.2766C139.667 55.7966 139.921 57.475 139.921 59.3116C139.921 62.2883 139.066 64.9483 137.356 67.2916C135.709 69.635 133.429 71.4716 130.516 72.8016C127.666 74.1316 124.436 74.7966 120.826 74.7966Z" fill="var(--fill-0, #045037)"/>
</g>
</svg>
