<svg preserveAspectRatio="xMidYMid meet" width="705.334" height="80" overflow="visible" style="display: block;" viewBox="0 0 705.334 80" fill="none" xmlns="http://www.w3.org/2000/svg">
<g id="Vector">
<path fill-rule="evenodd" clip-rule="evenodd" d="M42.4299 1.47356C42.4299 0.644061 43.1047 -0.0314656 43.9335 0.00113231C63.5027 0.770759 79.2291 16.4972 79.9987 36.0663C80.0313 36.8952 79.3558 37.5699 78.5263 37.5699H43.9319C43.1024 37.5699 42.4299 36.8975 42.4299 36.068V1.47356Z" fill="var(--fill-0, #2F91C6)"/>
<path fill-rule="evenodd" clip-rule="evenodd" d="M37.5735 6.35486C37.5735 5.52536 36.8988 4.84983 36.07 4.88245C16.0157 5.67168 0 22.1787 0 42.4265C0 63.1777 16.8222 80 37.5735 80C57.8213 80 74.3283 63.9843 75.1176 43.93C75.1502 43.1012 74.4746 42.4265 73.6451 42.4265L39.0755 42.4265C38.246 42.4265 37.5735 41.754 37.5735 40.9245V6.35486Z" fill="#2F91C6"/>
<path d="M693.554 74.675V4.375H705.334V74.675H693.554Z" fill="var(--fill-0, #2F91C6)"/>
<path d="M651.412 75.625C647.295 75.625 643.559 74.485 640.202 72.205C636.845 69.925 634.154 66.8217 632.127 62.895C630.1 58.9683 629.087 54.5033 629.087 49.5C629.087 44.4967 630.1 40.0317 632.127 36.105C634.154 32.1783 636.909 29.1067 640.392 26.89C643.875 24.6733 647.802 23.565 652.172 23.565C654.705 23.565 657.017 23.945 659.107 24.705C661.197 25.4017 663.034 26.415 664.617 27.745C666.2 29.075 667.499 30.595 668.512 32.305C669.589 34.015 670.317 35.8517 670.697 37.815L668.132 37.15V24.61H679.912V74.675H668.037V62.705L670.792 62.23C670.349 63.94 669.525 65.6183 668.322 67.265C667.182 68.8483 665.725 70.2733 663.952 71.54C662.242 72.7433 660.31 73.725 658.157 74.485C656.067 75.245 653.819 75.625 651.412 75.625ZM654.642 65.27C657.365 65.27 659.772 64.605 661.862 63.275C663.952 61.945 665.567 60.1083 666.707 57.765C667.91 55.3583 668.512 52.6033 668.512 49.5C668.512 46.46 667.91 43.7683 666.707 41.425C665.567 39.0817 663.952 37.245 661.862 35.915C659.772 34.585 657.365 33.92 654.642 33.92C651.919 33.92 649.512 34.585 647.422 35.915C645.395 37.245 643.812 39.0817 642.672 41.425C641.532 43.7683 640.962 46.46 640.962 49.5C640.962 52.6033 641.532 55.3583 642.672 57.765C643.812 60.1083 645.395 61.945 647.422 63.275C649.512 64.605 651.919 65.27 654.642 65.27Z" fill="var(--fill-0, #2F91C6)"/>
<path d="M594.655 74.675V24.61H606.15L606.34 40.57L604.725 36.96C605.422 34.4267 606.625 32.1467 608.335 30.12C610.045 28.0933 612.009 26.51 614.225 25.37C616.505 24.1667 618.88 23.565 621.35 23.565C622.427 23.565 623.44 23.66 624.39 23.85C625.404 24.04 626.227 24.2617 626.86 24.515L623.725 37.34C623.029 36.96 622.174 36.6433 621.16 36.39C620.147 36.1367 619.134 36.01 618.12 36.01C616.537 36.01 615.017 36.3267 613.56 36.96C612.167 37.53 610.932 38.3533 609.855 39.43C608.779 40.5067 607.924 41.7733 607.29 43.23C606.72 44.6233 606.435 46.2067 606.435 47.98V74.675H594.655Z" fill="var(--fill-0, #2F91C6)"/>
<path d="M563.146 74.675V11.88H574.831V74.675H563.146ZM553.266 35.44V24.61H585.756V35.44H553.266Z" fill="var(--fill-0, #2F91C6)"/>
<path d="M499.841 74.675V24.61H511.241L511.431 34.87L509.246 36.01C509.879 33.73 511.114 31.6717 512.951 29.835C514.788 27.935 516.973 26.415 519.506 25.275C522.039 24.135 524.636 23.565 527.296 23.565C531.096 23.565 534.263 24.325 536.796 25.845C539.393 27.365 541.324 29.645 542.591 32.685C543.921 35.725 544.586 39.525 544.586 44.085V74.675H532.901V44.94C532.901 42.4067 532.552 40.3167 531.856 38.67C531.159 36.96 530.083 35.725 528.626 34.965C527.169 34.1417 525.396 33.7617 523.306 33.825C521.596 33.825 520.013 34.11 518.556 34.68C517.163 35.1867 515.927 35.9467 514.851 36.96C513.837 37.91 513.014 39.0183 512.381 40.285C511.811 41.5517 511.526 42.945 511.526 44.465V74.675H505.731C504.591 74.675 503.514 74.675 502.501 74.675C501.551 74.675 500.664 74.675 499.841 74.675Z" fill="var(--fill-0, #2F91C6)"/>
<path d="M467.642 75.625C462.385 75.625 457.73 74.5167 453.677 72.3C449.687 70.0833 446.552 67.075 444.272 63.275C442.055 59.4117 440.947 55.01 440.947 50.07C440.947 46.1433 441.58 42.565 442.847 39.335C444.113 36.105 445.855 33.3183 448.072 30.975C450.352 28.5683 453.043 26.7317 456.147 25.465C459.313 24.135 462.765 23.47 466.502 23.47C469.795 23.47 472.867 24.1033 475.717 25.37C478.567 26.6367 481.037 28.3783 483.127 30.595C485.217 32.7483 486.8 35.345 487.877 38.385C489.017 41.3617 489.555 44.6233 489.492 48.17L489.397 52.255H448.832L446.647 44.275H479.612L478.092 45.89V43.8C477.902 41.8367 477.268 40.1267 476.192 38.67C475.115 37.15 473.722 35.9783 472.012 35.155C470.365 34.2683 468.528 33.825 466.502 33.825C463.398 33.825 460.77 34.4267 458.617 35.63C456.527 36.8333 454.943 38.575 453.867 40.855C452.79 43.0717 452.252 45.8583 452.252 49.215C452.252 52.445 452.917 55.2633 454.247 57.67C455.64 60.0767 457.572 61.945 460.042 63.275C462.575 64.5417 465.52 65.175 468.877 65.175C471.22 65.175 473.373 64.795 475.337 64.035C477.3 63.275 479.422 61.9133 481.702 59.95L487.497 68.025C485.787 69.6083 483.823 70.97 481.607 72.11C479.453 73.1867 477.173 74.0417 474.767 74.675C472.36 75.3083 469.985 75.625 467.642 75.625Z" fill="var(--fill-0, #2F91C6)"/>
<path d="M409.54 75.625C404.727 75.625 400.325 74.8017 396.335 73.155C392.345 71.5083 388.894 69.165 385.98 66.125C383.067 63.0217 380.787 59.38 379.14 55.2C377.557 50.9567 376.765 46.3333 376.765 41.33C376.765 36.5167 377.62 32.0517 379.33 27.935C381.04 23.8183 383.415 20.2083 386.455 17.105C389.495 14.0017 393.042 11.595 397.095 9.885C401.149 8.175 405.55 7.32 410.3 7.32C413.53 7.32 416.665 7.795 419.705 8.745C422.745 9.695 425.532 11.025 428.065 12.735C430.599 14.3817 432.72 16.3133 434.43 18.53L426.545 27.175C424.899 25.465 423.189 24.04 421.415 22.9C419.705 21.6967 417.9 20.81 416 20.24C414.164 19.6067 412.264 19.29 410.3 19.29C407.387 19.29 404.632 19.8283 402.035 20.905C399.502 21.9817 397.285 23.5017 395.385 25.465C393.549 27.4283 392.092 29.7717 391.015 32.495C389.939 35.155 389.4 38.1317 389.4 41.425C389.4 44.7817 389.907 47.8217 390.92 50.545C391.997 53.2683 393.485 55.6117 395.385 57.575C397.349 59.5383 399.66 61.0583 402.32 62.135C405.044 63.1483 408.02 63.655 411.25 63.655C413.34 63.655 415.367 63.37 417.33 62.8C419.294 62.23 421.099 61.4383 422.745 60.425C424.455 59.3483 426.007 58.1133 427.4 56.72L433.48 66.505C431.96 68.215 429.934 69.7667 427.4 71.16C424.867 72.5533 422.017 73.6617 418.85 74.485C415.747 75.245 412.644 75.625 409.54 75.625Z" fill="var(--fill-0, #2F91C6)"/>
<path d="M347.036 75.625C341.78 75.625 337.125 74.5167 333.071 72.3C329.081 70.0833 325.946 67.075 323.666 63.275C321.45 59.4117 320.341 55.01 320.341 50.07C320.341 46.1433 320.975 42.565 322.241 39.335C323.508 36.105 325.25 33.3183 327.466 30.975C329.746 28.5683 332.438 26.7317 335.541 25.465C338.708 24.135 342.16 23.47 345.896 23.47C349.19 23.47 352.261 24.1033 355.111 25.37C357.961 26.6367 360.431 28.3783 362.521 30.595C364.611 32.7483 366.195 35.345 367.271 38.385C368.411 41.3617 368.95 44.6233 368.886 48.17L368.791 52.255H328.226L326.041 44.275H359.006L357.486 45.89V43.8C357.296 41.8367 356.663 40.1267 355.586 38.67C354.51 37.15 353.116 35.9783 351.406 35.155C349.76 34.2683 347.923 33.825 345.896 33.825C342.793 33.825 340.165 34.4267 338.011 35.63C335.921 36.8333 334.338 38.575 333.261 40.855C332.185 43.0717 331.646 45.8583 331.646 49.215C331.646 52.445 332.311 55.2633 333.641 57.67C335.035 60.0767 336.966 61.945 339.436 63.275C341.97 64.5417 344.915 65.175 348.271 65.175C350.615 65.175 352.768 64.795 354.731 64.035C356.695 63.275 358.816 61.9133 361.096 59.95L366.891 68.025C365.181 69.6083 363.218 70.97 361.001 72.11C358.848 73.1867 356.568 74.0417 354.161 74.675C351.755 75.3083 349.38 75.625 347.036 75.625Z" fill="var(--fill-0, #2F91C6)"/>
<path d="M294.183 75.625C289.75 75.625 285.76 74.8967 282.213 73.44C278.73 71.92 275.88 69.7667 273.663 66.98L281.263 60.425C283.163 62.5783 285.285 64.13 287.628 65.08C289.971 66.03 292.441 66.505 295.038 66.505C296.115 66.505 297.065 66.3783 297.888 66.125C298.775 65.8717 299.535 65.4917 300.168 64.985C300.801 64.4783 301.276 63.9083 301.593 63.275C301.973 62.5783 302.163 61.8183 302.163 60.995C302.163 59.475 301.593 58.2717 300.453 57.385C299.82 56.9417 298.806 56.4667 297.413 55.96C296.083 55.4533 294.341 54.9467 292.188 54.44C288.768 53.5533 285.918 52.54 283.638 51.4C281.358 50.1967 279.585 48.8667 278.318 47.41C277.241 46.2067 276.418 44.845 275.848 43.325C275.341 41.805 275.088 40.1583 275.088 38.385C275.088 36.1683 275.563 34.1733 276.513 32.4C277.526 30.5633 278.888 28.98 280.598 27.65C282.308 26.32 284.303 25.3067 286.583 24.61C288.863 23.9133 291.238 23.565 293.708 23.565C296.241 23.565 298.68 23.8817 301.023 24.515C303.43 25.1483 305.646 26.0667 307.673 27.27C309.763 28.41 311.536 29.8033 312.993 31.45L306.533 38.575C305.33 37.435 304 36.4217 302.543 35.535C301.15 34.6483 299.725 33.9517 298.268 33.445C296.811 32.875 295.45 32.59 294.183 32.59C292.98 32.59 291.903 32.7167 290.953 32.97C290.003 33.16 289.211 33.4767 288.578 33.92C287.945 34.3633 287.438 34.9333 287.058 35.63C286.741 36.2633 286.583 37.0233 286.583 37.91C286.646 38.67 286.836 39.3983 287.153 40.095C287.533 40.7283 288.04 41.2667 288.673 41.71C289.37 42.1533 290.415 42.66 291.808 43.23C293.201 43.8 295.006 44.3383 297.223 44.845C300.326 45.6683 302.923 46.5867 305.013 47.6C307.103 48.6133 308.75 49.785 309.953 51.115C311.156 52.255 312.011 53.585 312.518 55.105C313.025 56.625 313.278 58.3033 313.278 60.14C313.278 63.1167 312.423 65.7767 310.713 68.12C309.066 70.4633 306.786 72.3 303.873 73.63C301.023 74.96 297.793 75.625 294.183 75.625Z" fill="var(--fill-0, #2F91C6)"/>
<path d="M219.572 74.675V24.61H230.972L231.162 34.87L228.977 36.01C229.611 33.73 230.846 31.6717 232.682 29.835C234.519 27.935 236.704 26.415 239.237 25.275C241.771 24.135 244.367 23.565 247.027 23.565C250.827 23.565 253.994 24.325 256.527 25.845C259.124 27.365 261.056 29.645 262.322 32.685C263.652 35.725 264.317 39.525 264.317 44.085V74.675H252.632V44.94C252.632 42.4067 252.284 40.3167 251.587 38.67C250.891 36.96 249.814 35.725 248.357 34.965C246.901 34.1417 245.127 33.7617 243.037 33.825C241.327 33.825 239.744 34.11 238.287 34.68C236.894 35.1867 235.659 35.9467 234.582 36.96C233.569 37.91 232.746 39.0183 232.112 40.285C231.542 41.5517 231.257 42.945 231.257 44.465V74.675H225.462C224.322 74.675 223.246 74.675 222.232 74.675C221.282 74.675 220.396 74.675 219.572 74.675Z" fill="var(--fill-0, #2F91C6)"/>
<path d="M187.373 75.625C182.117 75.625 177.462 74.5167 173.408 72.3C169.418 70.0833 166.283 67.075 164.003 63.275C161.787 59.4117 160.678 55.01 160.678 50.07C160.678 46.1433 161.312 42.565 162.578 39.335C163.845 36.105 165.587 33.3183 167.803 30.975C170.083 28.5683 172.775 26.7317 175.878 25.465C179.045 24.135 182.497 23.47 186.233 23.47C189.527 23.47 192.598 24.1033 195.448 25.37C198.298 26.6367 200.768 28.3783 202.858 30.595C204.948 32.7483 206.532 35.345 207.608 38.385C208.748 41.3617 209.287 44.6233 209.223 48.17L209.128 52.255H168.563L166.378 44.275H199.343L197.823 45.89V43.8C197.633 41.8367 197 40.1267 195.923 38.67C194.847 37.15 193.453 35.9783 191.743 35.155C190.097 34.2683 188.26 33.825 186.233 33.825C183.13 33.825 180.502 34.4267 178.348 35.63C176.258 36.8333 174.675 38.575 173.598 40.855C172.522 43.0717 171.983 45.8583 171.983 49.215C171.983 52.445 172.648 55.2633 173.978 57.67C175.372 60.0767 177.303 61.945 179.773 63.275C182.307 64.5417 185.252 65.175 188.608 65.175C190.952 65.175 193.105 64.795 195.068 64.035C197.032 63.275 199.153 61.9133 201.433 59.95L207.228 68.025C205.518 69.6083 203.555 70.97 201.338 72.11C199.185 73.1867 196.905 74.0417 194.498 74.675C192.092 75.3083 189.717 75.625 187.373 75.625Z" fill="var(--fill-0, #2F91C6)"/>
<path d="M134.52 75.625C130.086 75.625 126.096 74.8967 122.55 73.44C119.066 71.92 116.216 69.7667 114 66.98L121.6 60.425C123.5 62.5783 125.621 64.13 127.965 65.08C130.308 66.03 132.778 66.505 135.375 66.505C136.451 66.505 137.401 66.3783 138.225 66.125C139.111 65.8717 139.871 65.4917 140.505 64.985C141.138 64.4783 141.613 63.9083 141.93 63.275C142.31 62.5783 142.5 61.8183 142.5 60.995C142.5 59.475 141.93 58.2717 140.79 57.385C140.156 56.9417 139.143 56.4667 137.75 55.96C136.42 55.4533 134.678 54.9467 132.525 54.44C129.105 53.5533 126.255 52.54 123.975 51.4C121.695 50.1967 119.921 48.8667 118.655 47.41C117.578 46.2067 116.755 44.845 116.185 43.325C115.678 41.805 115.425 40.1583 115.425 38.385C115.425 36.1683 115.9 34.1733 116.85 32.4C117.863 30.5633 119.225 28.98 120.935 27.65C122.645 26.32 124.64 25.3067 126.92 24.61C129.2 23.9133 131.575 23.565 134.045 23.565C136.578 23.565 139.016 23.8817 141.36 24.515C143.766 25.1483 145.983 26.0667 148.01 27.27C150.1 28.41 151.873 29.8033 153.33 31.45L146.87 38.575C145.666 37.435 144.336 36.4217 142.88 35.535C141.486 34.6483 140.061 33.9517 138.605 33.445C137.148 32.875 135.786 32.59 134.52 32.59C133.316 32.59 132.24 32.7167 131.29 32.97C130.34 33.16 129.548 33.4767 128.915 33.92C128.281 34.3633 127.775 34.9333 127.395 35.63C127.078 36.2633 126.92 37.0233 126.92 37.91C126.983 38.67 127.173 39.3983 127.49 40.095C127.87 40.7283 128.376 41.2667 129.01 41.71C129.706 42.1533 130.751 42.66 132.145 43.23C133.538 43.8 135.343 44.3383 137.56 44.845C140.663 45.6683 143.26 46.5867 145.35 47.6C147.44 48.6133 149.086 49.785 150.29 51.115C151.493 52.255 152.348 53.585 152.855 55.105C153.361 56.625 153.615 58.3033 153.615 60.14C153.615 63.1167 152.76 65.7767 151.05 68.12C149.403 70.4633 147.123 72.3 144.21 73.63C141.36 74.96 138.13 75.625 134.52 75.625Z" fill="var(--fill-0, #2F91C6)"/>
</g>
</svg>
