<svg preserveAspectRatio="xMidYMid meet" width="99.9998" height="100" overflow="visible" style="display: block;" viewBox="0 0 99.9998 100" fill="none" xmlns="http://www.w3.org/2000/svg">
<g id="Frame 1000004232">
<g id="Vector">
<path fill-rule="evenodd" clip-rule="evenodd" d="M52.4299 11.4736C52.4299 10.6441 53.1047 9.96853 53.9335 10.0011C73.5027 10.7708 89.2291 26.4972 89.9987 46.0663C90.0313 46.8952 89.3558 47.5699 88.5263 47.5699H53.9319C53.1024 47.5699 52.4299 46.8975 52.4299 46.068V11.4736Z" fill="#2F91C6"/>
<path fill-rule="evenodd" clip-rule="evenodd" d="M47.5735 16.3549C47.5735 15.5254 46.8988 14.8498 46.07 14.8825C26.0157 15.6717 10 32.1787 10 52.4265C10 73.1778 26.8222 90 47.5735 90C67.8213 90 84.3283 73.9843 85.1175 53.93C85.1502 53.1012 84.4746 52.4265 83.6451 52.4265L49.0755 52.4265C48.246 52.4265 47.5735 51.754 47.5735 50.9245V16.3549Z" fill="var(--fill-0, #2F91C6)"/>
</g>
</g>
</svg>
