<svg preserveAspectRatio="xMidYMid meet" width="79.9998" height="80" overflow="visible" style="display: block;" viewBox="0 0 79.9998 80" fill="none" xmlns="http://www.w3.org/2000/svg">
<g id="Vector">
<path fill-rule="evenodd" clip-rule="evenodd" d="M42.4299 1.47356C42.4299 0.644061 43.1047 -0.0314656 43.9335 0.00113231C63.5027 0.770759 79.2291 16.4972 79.9987 36.0663C80.0313 36.8952 79.3558 37.5699 78.5263 37.5699H43.9319C43.1024 37.5699 42.4299 36.8975 42.4299 36.068V1.47356Z" fill="#2F91C6"/>
<path fill-rule="evenodd" clip-rule="evenodd" d="M37.5735 6.35486C37.5735 5.52536 36.8988 4.84983 36.07 4.88245C16.0157 5.67168 0 22.1787 0 42.4265C0 63.1778 16.8222 80 37.5735 80C57.8213 80 74.3283 63.9843 75.1175 43.93C75.1502 43.1012 74.4746 42.4265 73.6451 42.4265L39.0755 42.4265C38.246 42.4265 37.5735 41.754 37.5735 40.9245V6.35486Z" fill="var(--fill-0, #2F91C6)"/>
</g>
</svg>
